<?xml version="1.0" standalone="no"?> <!DOCTYPE svg PUBLIC "-//W3C//DTD SVG 1.0//EN" "http://www.w3.org/TR/2001/REC-SVG-20010904/DTD/svg10.dtd" > <svg xmlns="http://www.w3.org/2000/svg" width="100%" height="100%">
<defs >
<font id="TeXGyreAdventor-Regular" horiz-adv-x="565" ><font-face
    font-family="TeXGyreAdventor"
    units-per-em="1000"
    panose-1="0 0 5 0 0 0 0 0 0 0"
    ascent="966"
    descent="-251"
    alphabetic="0" />
<missing-glyph horiz-adv-x="364" d="M33 0V666H298V0H33ZM66 33H265V633H66V33Z" />
<glyph unicode=" " glyph-name="space" horiz-adv-x="277" />
<glyph unicode="!" glyph-name="exclam" horiz-adv-x="295" d="M185 0H111V126H185V0ZM185 197H111V739H185V197Z" />
<glyph unicode="&quot;" glyph-name="quotedbl" horiz-adv-x="309" d="M237 513H187V739H237V513ZM124 513H74V739H124V513Z" />
<glyph unicode="#" glyph-name="numbersign" horiz-adv-x="554" d="M549 453H439L411 298H534V237H399L356 0H290L333 237H169L124 0H59L104 237H5V298H116L145 453H21V514H156L198 739H262L221 514H384L424 739H491L450 514H549V453ZM373 453H210L181 298H344L373 453Z" />
<glyph unicode="$" glyph-name="dollar" horiz-adv-x="554" d="M479 226Q479 147 432 92T311 29V-56H245V29Q75 60 75 228H144Q144 164 180 127T277 90Q333 90 369 128T405 224Q405 285 363 321Q335 344 270 363Q214 380 187 395T139 436Q100 483 100 552Q100
620 139 667T245 728V810H311V728Q385 717 429 669T473 547H403Q403 602 371 633T287 665T205 633T174 546Q174 500 199 476T296 428Q389 398 424 363Q479 311 479 226Z" />
<glyph unicode="%" glyph-name="percent" horiz-adv-x="775" d="M588 739L254 0H182L514 739H588ZM752 163Q752 90 701 39T576 -13Q504 -13 453 38T401 162Q401 236 452 287T578 338Q649 338 700 286T752 163ZM684 117T684 162T653 239T577 272Q531 272 500 240T468
162Q468 117 500 85T576 53T652 85ZM364 573Q364 500 313 449T188 397Q116 397 65 448T13 573Q13 647 64 698T190 749Q261 749 312 697T364 573ZM296 573Q296 618 265 650T189 683Q143 683 111 651T79 573Q79 528 111 496T188 463Q232 463 264 495T296 573Z" />
<glyph unicode="&amp;" glyph-name="ampersand" horiz-adv-x="757" d="M735 38L684 -13L513 153Q469 66 416 27T290 -13Q190 -13 124 52T57 213Q57 286 97 336T227 433Q181 481 163 515T145 588Q145 657 196 704T320 752Q397 752 447 704T498 583Q498 524 469
489T354 411L494 273L602 481H684L548 220L735 38ZM458 206L280 380Q198 340 164 301T130 205Q130 142 175 98T285 54Q338 54 378 89T458 206ZM428 589Q428 630 398 657T322 685Q279 685 249 658T219 590Q219 538 300 464Q366 489 397 519T428 589Z" />
<glyph unicode="&apos;" glyph-name="quotesingle" horiz-adv-x="198" d="M124 513H74V739H124V513Z" />
<glyph unicode="(" glyph-name="parenleft" horiz-adv-x="369" d="M335 -125Q216 -81 137 44T57 309Q57 447 133 571T335 739V676Q238 618 185 516T131 309Q131 200 183 101T335 -60V-125Z" />
<glyph unicode=")" glyph-name="parenright" horiz-adv-x="369" d="M312 305Q312 167 236 43T34 -125V-61Q131 -5 184 98T238 306Q238 414 185 514T34 674V739Q152 697 232 571T312 305Z" />
<glyph unicode="*" glyph-name="asterisk" horiz-adv-x="425" d="M360 583H258L313 495L266 468L213 559L160 468L112 496L169 583H64V632H169L113 724L162 752L215 662L267 752L314 724L257 632H360V583Z" />
<glyph unicode="+" glyph-name="plus" horiz-adv-x="606" d="M543 213H340V10H266V213H63V287H266V490H340V287H543V213Z" />
<glyph unicode="," glyph-name="comma" horiz-adv-x="277" d="M253 126L165 -67H91L179 126H253Z" />
<glyph unicode="-" glyph-name="hyphen" horiz-adv-x="332" d="M302 233H31V296H302V233Z" />
<glyph unicode="." glyph-name="period" horiz-adv-x="277" d="M175 0H101V126H175V0Z" />
<glyph unicode="/" glyph-name="slash" horiz-adv-x="437" d="M397 739L107 -128H40L327 739H397Z" />
<glyph unicode="0" glyph-name="zero" horiz-adv-x="554" d="M525 269Q525 -13 283 -13Q163 -13 97 56T30 269V479Q30 614 95 683T277 752Q391 752 458 684T525 479V269ZM452 281V462Q452 569 413 627T278 685Q192 685 148 633T103 462V281Q103 158 148 106T280
54Q369 54 410 107T452 281Z" />
<glyph unicode="1" glyph-name="one" horiz-adv-x="554" d="M354 0H281V672H155V739H354V0Z" />
<glyph unicode="2" glyph-name="two" horiz-adv-x="554" d="M506 527Q506 468 477 418T370 294L133 67H502V0H33V67L292 317Q332 355 349 373T390 420T423 475T432 531Q432 598 387 641T272 685Q198 685 155 637T112 500H39Q39 617 102 684T273 752Q374 752 440
689T506 527Z" />
<glyph unicode="3" glyph-name="three" horiz-adv-x="554" d="M504 224Q504 124 437 56T272 -13Q169 -13 101 53T33 231H106Q106 143 152 99T270 54Q338 54 384 102T430 220Q430 278 395 323T305 382Q281 387 219 388V454L236 453Q245 452 255 452Q313 452 347
483T381 568Q381 620 350 652T269 685Q215 685 185 651T155 555H82Q82 645 133 698T269 752Q351 752 403 700T455 565Q455 476 379 423Q504 360 504 224Z" />
<glyph unicode="4" glyph-name="four" horiz-adv-x="554" d="M527 135H459V0H386V135H12V202L372 739H459V202H527V135ZM386 202V637L97 202H386Z" />
<glyph unicode="5" glyph-name="five" horiz-adv-x="554" d="M528 246Q528 137 456 62T280 -13Q179 -13 111 52T26 232H98Q108 153 157 104T277 54Q351 54 402 109T454 246T403 381T277 436Q191 436 124 353L67 375L133 739H466V672H192L156 468Q219 503 283 503Q386
503 457 429T528 246Z" />
<glyph unicode="6" glyph-name="six" horiz-adv-x="554" d="M529 249Q529 136 459 62T280 -13Q171 -13 98 60T25 244Q25 299 42 344T113 467L296 739H381L207 482Q253 503 294 503Q392 503 460 429T529 249ZM455 163T455 246T405 382T278 436Q202 436 151 382T99
248Q99 164 150 109T280 54Q356 54 405 108Z" />
<glyph unicode="7" glyph-name="seven" horiz-adv-x="554" d="M490 672L188 0H110L414 672H64V739H490V672Z" />
<glyph unicode="8" glyph-name="eight" horiz-adv-x="554" d="M512 218Q512 117 447 52T280 -13Q178 -13 110 52T42 215Q42 353 167 413Q81 465 81 561Q81 643 137 697T278 752Q363 752 418 698T473 561Q473 454 385 413Q512 357 512 218ZM438 216Q438 286 393
330T278 375Q207 375 162 331T116 216Q116 145 161 100T279 54Q349 54 393 99T438 216ZM399 513T399 565T365 651T277 685T190 652T155 567Q155 514 190 479T281 444Q331 444 365 478Z" />
<glyph unicode="9" glyph-name="nine" horiz-adv-x="554" d="M529 495Q529 440 511 395T441 272L258 0H173L347 257Q301 236 260 236Q162 236 94 310T25 490Q25 603 95 677T274 752Q383 752 456 679T529 495ZM455 491Q455 575 404 630T274 685Q198 685 149 631T99
493Q99 410 149 357T276 303Q352 303 403 357T455 491Z" />
<glyph unicode=":" glyph-name="colon" horiz-adv-x="277" d="M175 0H101V126H175V0ZM175 381H101V507H175V381Z" />
<glyph unicode=";" glyph-name="semicolon" horiz-adv-x="277" d="M203 126L115 -67H41L129 126H203ZM199 381H125V507H199V381Z" />
<glyph unicode="&lt;" glyph-name="less" horiz-adv-x="606" d="M480 -95L102 222V278L480 595V499L184 250L480 1V-95Z" />
<glyph unicode="=" glyph-name="equal" horiz-adv-x="606" d="M543 305H63V379H543V305ZM543 121H63V195H543V121Z" />
<glyph unicode="&gt;" glyph-name="greater" horiz-adv-x="606" d="M480 222L102 -95V1L398 250L102 499V595L480 278V222Z" />
<glyph unicode="?" glyph-name="question" horiz-adv-x="591" d="M335 0H261V126H335V0ZM525 535Q525 487 505 448T435 365Q379 315 357 278T333 193H263Q264 254 287 298T367 397Q418 444 434 472T451 537Q451 601 408 643T299 685Q224 685 180 641T135 508H65Q65
625 130 688T299 752Q397 752 461 691T525 535Z" />
<glyph unicode="@" glyph-name="at" horiz-adv-x="867" d="M797 433Q797 325 726 232T564 139Q529 139 509 152T476 196Q424 144 357 144Q296 144 258 185T219 292Q219 407 294 500T463 593Q547 593 578 524L595 574H656L563 296Q543 235 543 219Q543 207 552
199T577 191Q637 191 692 271T747 434Q747 547 663 624T452 701Q316 701 220 603T123 368Q123 230 219 134T453 37T687 138L727 105Q681 50 607 19T451 -13Q292 -13 182 97T71 367Q71 527 182 639T453 752Q595 752 696 660T797 433ZM540 459Q540 496 520 517T466
539Q400 539 346 463T291 294Q291 253 313 228T371 202Q436 202 486 291Q508 330 524 380T540 459Z" />
<glyph unicode="A" glyph-name="A" horiz-adv-x="740" d="M729 0H648L541 249H197L89 0H11L328 739H411L729 0ZM512 316L370 655L225 316H512Z" />
<glyph unicode="B" glyph-name="B" horiz-adv-x="574" d="M544 212Q544 101 478 51T259 0H76V739H249Q382 739 442 692T502 547Q502 440 420 394Q544 344 544 212ZM469 208Q469 248 457 276T426 319T375 342T314 352T238 354H150V67H251Q367 67 418 98T469 208ZM427
476T427 546T388 644T239 672H150V421H240Q344 421 385 448Z" />
<glyph unicode="C" glyph-name="C" horiz-adv-x="813" d="M770 194Q658 -13 432 -13Q266 -13 155 96T44 367Q44 533 153 642T427 752Q542 752 633 697T767 547H684Q597 684 430 684Q298 684 209 594T119 370Q119 240 211 148T431 55Q511 55 570 87T688 194H770Z" />
<glyph unicode="D" glyph-name="D" horiz-adv-x="744" d="M700 367Q700 200 592 100T275 0H76V739H250Q351 739 415 726T532 681Q700 582 700 367ZM625 370Q625 453 590 519T491 624Q412 672 253 672H150V67H253Q351 67 413 82T519 133Q625 219 625 370Z" />
<glyph unicode="E" glyph-name="E" horiz-adv-x="536" d="M480 0H76V739H480V672H150V407H469V340H150V67H480V0Z" />
<glyph unicode="F" glyph-name="F" horiz-adv-x="485" d="M451 672H150V405H440V338H150V0H76V739H451V672Z" />
<glyph unicode="G" glyph-name="G" horiz-adv-x="872" d="M831 341Q822 197 713 92T446 -13Q276 -13 160 98T44 371Q44 531 157 641T436 752Q557 752 653 694T786 542H703Q665 609 597 646T442 684Q305 684 212 593T119 369Q119 237 213 146T443 55Q550 55 635
119T742 274H329V341H831Z" />
<glyph unicode="H" glyph-name="H" horiz-adv-x="683" d="M607 0H533V347H150V0H76V739H150V414H533V739H607V0Z" />
<glyph unicode="I" glyph-name="I" horiz-adv-x="226" d="M150 0H76V739H150V0Z" />
<glyph unicode="J" glyph-name="J" horiz-adv-x="482" d="M406 231Q406 109 356 48T209 -14Q121 -14 69 36T11 175H84Q88 119 121 87T210 54Q332 54 332 231V739H406V231Z" />
<glyph unicode="K" glyph-name="K" horiz-adv-x="591" d="M585 0H492L246 320L150 202V0H76V739H150V314L492 739H585L293 379L585 0Z" />
<glyph unicode="L" glyph-name="L" horiz-adv-x="462" d="M456 0H76V739H150V67H456V0Z" />
<glyph unicode="M" glyph-name="M" horiz-adv-x="919" d="M843 0H769V658L491 0H427L150 658V0H76V739H191L460 110L728 739H843V0Z" />
<glyph unicode="N" glyph-name="N" horiz-adv-x="740" d="M664 0H590L150 650V0H76V739H176L590 126V739H664V0Z" />
<glyph unicode="O" glyph-name="O" horiz-adv-x="869" d="M825 369Q825 212 710 100T435 -13Q272 -13 158 100T44 374Q44 528 160 640T435 752Q596 752 710 640T825 369ZM750 368Q750 498 657 591T435 684Q307 684 213 592T119 372Q119 241 211 148T435 55Q564
55 657 147T750 368Z" />
<glyph unicode="P" glyph-name="P" horiz-adv-x="592" d="M565 515Q565 406 502 353T292 299H150V0H76V739H280Q431 739 498 686T565 515ZM490 515Q490 559 478 589T449 635T398 659T335 670T255 672H150V366H287Q397 366 443 400T490 515Z" />
<glyph unicode="Q" glyph-name="Q" horiz-adv-x="871" d="M839 371Q839 198 716 93Q769 55 808 55Q821 55 827 56V-13Q775 -12 739 2T665 51Q571 -13 443 -13Q277 -13 161 98T44 369Q44 533 158 642T444 752Q614 752 726 644T839 371ZM605 100Q525 173 448 205T277
237Q214 237 161 216Q197 148 275 102T443 55T605 100ZM764 371Q764 504 672 594T442 684T212 592T119 363Q119 328 130 279Q208 305 288 305Q395 305 480 266T663 142Q764 239 764 371Z" />
<glyph unicode="R" glyph-name="R" horiz-adv-x="607" d="M577 501Q577 403 521 345T359 276L566 0H474L225 335Q383 335 442 370T502 504Q502 595 444 633T254 672H150V0H76V739H259Q428 739 502 680T577 501Z" />
<glyph unicode="S" glyph-name="S" horiz-adv-x="498" d="M476 206Q476 112 413 50T253 -13Q153 -13 90 47T22 207H101Q109 134 150 95T255 55T359 96T401 202Q401 263 366 295T236 357Q172 376 146 388T98 422Q46 471 46 553Q46 639 104 695T251 752Q342 752
400 697T458 552H381Q381 611 344 647T249 684Q194 684 158 648T121 555T156 469Q179 449 265 423Q361 394 402 364Q476 309 476 206Z" />
<glyph unicode="T" glyph-name="T" horiz-adv-x="426" d="M419 672H250V0H176V672H7V739H419V672Z" />
<glyph unicode="U" glyph-name="U" horiz-adv-x="655" d="M579 278Q579 132 512 60T327 -13Q211 -13 144 59T76 278V739H150V278Q150 55 328 55Q505 55 505 278V739H579V278Z" />
<glyph unicode="V" glyph-name="V" horiz-adv-x="702" d="M692 739L386 0H314L10 739H91L351 92L612 739H692Z" />
<glyph unicode="W" glyph-name="W" horiz-adv-x="960" d="M950 739L738 0H643L479 606L317 0H221L10 739H86L268 96L445 739H515L692 96L874 739H950Z" />
<glyph unicode="X" glyph-name="X" horiz-adv-x="609" d="M601 0H514L305 316L95 0H8L259 378L22 739H109L305 443L500 739H586L349 378L601 0Z" />
<glyph unicode="Y" glyph-name="Y" horiz-adv-x="592" d="M590 739L332 247V0H258V247L2 739H84L294 325L509 739H590Z" />
<glyph unicode="Z" glyph-name="Z" horiz-adv-x="480" d="M474 0H17V67L380 672H28V739H463V672L101 67H474V0Z" />
<glyph unicode="[" glyph-name="bracketleft" horiz-adv-x="351" d="M313 -125Q112 -66 112 164V462Q112 569 166 641T313 739V664Q240 632 211 585T182 448V177Q182 81 210 32T313 -50V-125Z" />
<glyph unicode="\" glyph-name="backslash" horiz-adv-x="605" d="M464 0H394L84 739H154L464 0Z" />
<glyph unicode="]" glyph-name="bracketright" horiz-adv-x="351" d="M239 153Q239 45 185 -27T38 -125V-50Q112 -17 140 30T169 166V438Q169 533 141 582T38 664V739Q239 681 239 450V153Z" />
<glyph unicode="^" glyph-name="asciicircum" horiz-adv-x="606" d="M588 180H507L304 660L99 180H18L261 739H346L588 180Z" />
<glyph unicode="_" glyph-name="underscore" horiz-adv-x="500" d="M500 -125H0V-67H500V-125Z" />
<glyph unicode="`" glyph-name="grave" horiz-adv-x="375" d="M263 650L229 594L36 708L70 766L263 650Z" />
<glyph unicode="a" glyph-name="a" horiz-adv-x="683" d="M620 0H546V96Q502 37 454 12T335 -13Q209 -13 126 68T42 272Q42 395 124 477T330 560Q468 560 546 450V547H620V0ZM546 276Q546 367 484 429T332 492Q243 492 180 429T117 277Q117 183 180 119T336 55Q424
55 485 119T546 276Z" />
<glyph unicode="b" glyph-name="b" horiz-adv-x="682" d="M640 274Q640 151 558 69T351 -13Q284 -13 228 15T137 94V0H63V739H137V453Q210 560 352 560Q474 560 557 478T640 274ZM565 276Q565 368 504 430T350 492T195 430T132 276T195 120T349 55Q441 55 503
118T565 276Z" />
<glyph unicode="c" glyph-name="c" horiz-adv-x="647" d="M608 161Q516 -13 340 -13Q214 -13 128 70T42 275Q42 394 127 477T335 560Q427 560 500 512T607 381H524Q459 492 334 492Q243 492 180 429T117 273Q117 182 181 119T337 55Q395 55 438 79T524 161H608Z" />
<glyph unicode="d" glyph-name="d" horiz-adv-x="685" d="M622 0H548V99Q507 40 458 14T340 -13Q213 -13 128 69T42 273T125 477T333 560Q465 560 548 460V739H622V0ZM551 185T551 275T487 428T331 492Q242 492 180 429T117 276Q117 182 180 119T338 55Q426 55 488 120Z" />
<glyph unicode="e" glyph-name="e" horiz-adv-x="650" d="M611 249H116Q120 168 182 112T329 55Q391 55 444 89T520 180H597Q570 99 496 43T331 -13Q210 -13 126 70T42 276Q42 395 124 477T326 560Q450 560 530 476T611 249ZM537 316Q518 398 462 445T325 492Q247
492 190 444T118 316H537Z" />
<glyph unicode="f" glyph-name="f" horiz-adv-x="314" d="M311 480H175V0H101V480H16V547H101Q98 739 311 739V672Q235 672 205 644T175 547H311V480Z" />
<glyph unicode="g" glyph-name="g" horiz-adv-x="673" d="M610 98Q610 18 599 -30T559 -117Q485 -215 337 -215Q234 -215 163 -164T62 -17H134Q175 -90 220 -118T335 -147Q434 -147 485 -91T536 74V111Q473 -13 327 -13Q207 -13 125 69T42 271Q42 395 122 477T322
560Q455 560 536 450V547H610V98ZM536 280Q536 369 475 430T326 492Q235 492 176 432T117 277Q117 182 177 119T327 55Q416 55 476 119T536 280Z" />
<glyph unicode="h" glyph-name="h" horiz-adv-x="610" d="M547 0H473V294Q473 393 428 442T304 492Q229 492 183 444T137 300V0H63V739H137V476Q195 560 311 560Q421 560 484 494T547 294V0Z" />
<glyph unicode="i" glyph-name="i" horiz-adv-x="200" d="M137 0H63V547H137V0ZM137 607H63V733H137V607Z" />
<glyph unicode="j" glyph-name="j" horiz-adv-x="203" d="M140 38Q140 -79 95 -133T-45 -192V-121Q17 -117 41 -82T66 38V547H140V38ZM140 607H66V733H140V607Z" />
<glyph unicode="k" glyph-name="k" horiz-adv-x="502" d="M497 0H405L223 219L137 113V0H63V739H137V215L392 547H483L270 272L497 0Z" />
<glyph unicode="l" glyph-name="l" horiz-adv-x="200" d="M137 0H63V739H137V0Z" />
<glyph unicode="m" glyph-name="m" horiz-adv-x="938" d="M875 0H801V317Q801 493 656 493Q587 493 547 450T506 317V0H432V319Q432 406 392 449T284 492Q215 492 176 447T137 319V0H63V547H137V484Q168 525 203 542T291 560Q352 560 395 535T470 455Q537 561
660 561Q757 561 816 501T875 325V0Z" />
<glyph unicode="n" glyph-name="n" horiz-adv-x="610" d="M547 0H473V287Q473 492 304 492Q226 492 182 445T137 301V0H63V547H137V476Q206 560 313 560Q421 560 484 493T547 287V0Z" />
<glyph unicode="o" glyph-name="o" horiz-adv-x="655" d="M613 272Q613 149 534 68T335 -13Q208 -13 125 69T42 277Q42 397 124 478T329 560Q452 560 532 479T613 272ZM538 271Q538 366 479 429T329 492Q238 492 178 430T117 275Q117 179 178 117T333 55Q422 55
480 116T538 271Z" />
<glyph unicode="p" glyph-name="p" horiz-adv-x="682" d="M640 272Q640 152 556 70T350 -13Q210 -13 137 94V-192H63V547H137V453Q208 560 352 560Q474 560 557 477T640 272ZM565 272Q565 366 503 429T349 492Q258 492 195 430T132 276Q132 181 194 118T350 55Q441
55 503 117T565 272Z" />
<glyph unicode="q" glyph-name="q" horiz-adv-x="682" d="M619 -192H545V94Q472 -13 332 -13Q210 -13 126 69T42 273Q42 395 125 477T330 560Q475 560 545 453V547H619V-192ZM550 270Q550 365 488 428T333 492Q241 492 179 429T117 272Q117 180 179 118T333 55Q424
55 487 117T550 270Z" />
<glyph unicode="r" glyph-name="r" horiz-adv-x="301" d="M292 487Q137 472 137 319V0H63V547H137V469Q159 514 196 535T292 560V487Z" />
<glyph unicode="s" glyph-name="s" horiz-adv-x="388" d="M361 157Q361 82 315 35T194 -13Q115 -13 67 34T18 161H91Q91 112 119 84T194 55Q234 55 260 82T286 150Q286 190 265 210T180 255Q122 278 109 285T79 308Q38 346 38 406Q38 473 82 516T193 560T303 519T347
412H272Q272 450 251 471T192 492Q159 492 136 469T113 413Q113 366 163 341Q183 331 266 297Q361 257 361 157Z" />
<glyph unicode="t" glyph-name="t" horiz-adv-x="339" d="M327 480H204V0H130V480H12V547H130V739H204V547H327V480Z" />
<glyph unicode="u" glyph-name="u" horiz-adv-x="608" d="M545 0H471V85Q418 -13 295 -13Q63 -13 63 252V547H137V252Q137 55 301 55Q380 55 425 107T471 266V547H545V0Z" />
<glyph unicode="v" glyph-name="v" horiz-adv-x="554" d="M546 547L316 0H238L8 547H83L275 87L471 547H546Z" />
<glyph unicode="w" glyph-name="w" horiz-adv-x="831" d="M824 547L612 0H533L414 363L296 0H216L7 547H81L255 89L384 480H445L574 89L752 547H824Z" />
<glyph unicode="x" glyph-name="x" horiz-adv-x="480" d="M472 0H387L240 219L92 0H8L198 279L8 547H92L240 336L387 547H472L281 279L472 0Z" />
<glyph unicode="y" glyph-name="y" horiz-adv-x="536" d="M527 547L211 -192H132L221 18L9 547H90L263 111L448 547H527Z" />
<glyph unicode="z" glyph-name="z" horiz-adv-x="425" d="M415 0H10V67L312 480H20V547H396V484L97 67H415V0Z" />
<glyph unicode="{" glyph-name="braceleft" horiz-adv-x="351" d="M271 -126Q177 -125 147 -95T116 13V183Q116 229 101 246T37 272V341Q86 349 101 366T116 430V600Q116 678 146 707T271 739V672Q218 667 206 655T193 601V431Q193 379 178 354T122 313Q110 309
104 306Q157 286 175 263T193 182V12Q193 -26 206 -40T260 -58L271 -59V-126Z" />
<glyph unicode="|" glyph-name="bar" horiz-adv-x="672" d="M373 -125H299V739H373V-125Z" />
<glyph unicode="}" glyph-name="braceright" horiz-adv-x="351" d="M269 272Q222 264 208 247T193 183V13Q193 -65 163 -95T38 -126V-59L49 -58Q73 -56 87 -51T107 -36T114 -16T116 12V182Q116 239 134 262T205 306Q178 319 170 324T146 339T127 360T120 388T116
431V601Q116 620 115 629T107 648T87 664T49 671L38 672V739Q133 736 163 707T193 600V430Q193 383 207 366T269 341V272Z" />
<glyph unicode="~" glyph-name="asciitilde" horiz-adv-x="606" d="M555 343Q529 292 491 262T415 231Q387 231 322 257L267 279Q214 300 194 300Q162 300 144 282T93 210L51 257Q87 322 119 349T194 377Q222 377 271 358L336 331Q391 308 416 308Q463 308 511
390L555 343Z" />
<glyph unicode="&#xa0;" glyph-name="uni00A0" horiz-adv-x="277" />
<glyph unicode="&#xa1;" glyph-name="exclamdown" horiz-adv-x="295" d="M184 421H110V547H184V421ZM184 -192H110V350H184V-192Z" />
<glyph unicode="&#xa2;" glyph-name="cent" horiz-adv-x="554" d="M509 463H426Q379 547 283 547Q212 547 166 501T119 383Q119 313 166 265T282 217Q359 217 422 290H503Q483 235 434 198T325 152V62H259V152Q167 159 106 224T45 382Q45 476 104 540T259 614V707H325V614Q389
605 438 565T509 463Z" />
<glyph unicode="&#xa3;" glyph-name="sterling" horiz-adv-x="554" d="M592 213Q592 116 529 58T344 0H59V67H198Q240 114 240 183Q240 229 221 262T144 347H18V414H93Q71 467 71 512Q71 617 137 684T306 752Q406 752 474 694T554 541H485Q470 609 423 647T307
685Q235 685 190 637T145 513Q145 466 173 414H457V347H242Q314 270 314 184Q314 133 285 67H342Q432 67 475 108T518 219Q518 238 512 268H584Q592 237 592 213Z" />
<glyph unicode="&#xa5;" glyph-name="yen" horiz-adv-x="554" d="M589 739L443 463H546V396H407L359 304H539V237H333V0H260V237H50V304H233L184 396H43V463H148L0 739H76L297 327L513 739H589Z" />
<glyph unicode="&#xa7;" glyph-name="section" horiz-adv-x="615" d="M529 289Q529 202 453 146Q501 95 501 37Q501 -39 447 -90T313 -141Q225 -141 167 -84T106 64H174Q179 2 217 -36T313 -74Q364 -74 398 -43T433 35Q433 65 411 88T339 137L196 207Q135 237
111 266T87 339Q87 430 173 491Q135 532 135 589Q135 659 184 705T307 752Q380 752 429 712T483 606H412Q395 685 307 685Q261 685 232 659T203 591Q203 533 262 505L420 431Q529 380 529 289ZM461 280Q461 337 400 365L212 454Q155 415 155 350Q155 304 209 278L407
182Q461 221 461 280Z" />
<glyph unicode="&#xa8;" glyph-name="dieresis" horiz-adv-x="369" d="M148 607H74V733H148V607ZM295 607H221V733H295V607Z" />
<glyph unicode="&#xa9;" glyph-name="copyright" horiz-adv-x="747" d="M728 487T728 341T624 92T374 -12T125 91T21 341T124 591T374 695T624 591ZM691 210T691 341T598 565T374 658T151 565T58 341T150 118T374 25T598 117ZM600 253Q532 126 387 126Q285 126
217 187T149 340Q149 433 215 494T384 556Q458 556 515 522T597 430H534Q485 504 385 504Q309 504 258 458T206 341Q206 274 259 226T386 178Q433 178 467 195T537 253H600Z" />
<glyph unicode="&#xaa;" glyph-name="ordfeminine" horiz-adv-x="369" d="M333 448H285V493Q244 441 182 441Q121 441 76 486T31 594T75 700T183 745Q214 745 242 731T285 694V739H333V448ZM282 592Q282 634 253 665T184 696T115 666T84 595Q84 553 114 522T184
490Q223 490 252 521T282 592ZM339 319H31V370H339V319Z" />
<glyph unicode="&#xab;" glyph-name="guillemotleft" horiz-adv-x="425" d="M212 132L153 99L40 300L153 499L212 467L118 300L212 132ZM385 132L326 99L211 300L326 499L385 467L291 300L385 132Z" />
<glyph unicode="&#xac;" glyph-name="logicalnot" horiz-adv-x="606" d="M543 379V158H469V305H63V379H543Z" />
<glyph unicode="&#xae;" glyph-name="registered" horiz-adv-x="747" d="M728 487T728 341T624 92T374 -12T125 91T21 341T124 591T374 695T624 591ZM691 210T691 341T598 565T374 658T151 565T58 341T150 118T374 25T598 117ZM531 133H458L297 330Q398 329 434
345T471 414Q471 460 438 478T330 497H274V133H217V549H333Q437 549 482 515T528 412Q528 302 406 284L531 133Z" />
<glyph unicode="&#xaf;" glyph-name="overscore" horiz-adv-x="485" d="M411 638H74V702H411V638Z" />
<glyph unicode="&#xb0;" glyph-name="degree" horiz-adv-x="400" d="M350 597T350 533T307 425T200 380T94 424T50 534Q50 598 94 642T204 686Q266 686 308 642ZM293 493T293 533T267 601T202 629Q162 629 134 601T106 533T134 465T200 437Q239 437 266 465Z" />
<glyph unicode="&#xb1;" glyph-name="plusminus" horiz-adv-x="606" d="M543 287H340V141H266V287H63V361H266V564H340V361H543V287ZM543 0H63V74H543V0Z" />
<glyph unicode="&#xb4;" glyph-name="acute" horiz-adv-x="375" d="M339 708L146 594L112 650L305 766L339 708Z" />
<glyph unicode="&#xb5;" glyph-name="mu" horiz-adv-x="608" d="M545 0H471V85Q421 -13 307 -13Q196 -13 137 85V-192H63V547H137V266Q137 197 147 164T190 101Q240 54 307 54Q383 54 427 106T471 266V547H545V0Z" />
<glyph unicode="&#xb6;" glyph-name="paragraph" horiz-adv-x="564" d="M491 -133H416V672H302V-133H227V355Q139 364 88 416T37 549Q37 635 94 687T260 739H491V-133Z" />
<glyph unicode="&#xb7;" glyph-name="middot" horiz-adv-x="277" d="M202 276T202 250T184 206T139 187T95 205T76 250T94 294T139 313T183 295Z" />
<glyph unicode="&#xb8;" glyph-name="cedilla" horiz-adv-x="324" d="M288 -137Q288 -185 258 -218T177 -251Q140 -251 115 -228T81 -166L134 -160Q144 -193 178 -193Q199 -193 212 -179T226 -142Q226 -118 212 -104T175 -89Q148 -89 129 -108L97 -89L135 5H174L157
-48Q178 -43 190 -43Q231 -43 259 -69T288 -137Z" />
<glyph unicode="&#xba;" glyph-name="ordmasculine" horiz-adv-x="369" d="M337 594Q337 532 292 487T184 442Q121 442 77 487T32 596Q32 656 77 700T185 745T292 700T337 594ZM284 592Q284 636 256 666T184 696Q143 696 114 666T85 594Q85 551 114 521T185 491Q225
491 254 521T284 592ZM337 319H32V370H337V319Z" />
<glyph unicode="&#xbb;" glyph-name="guillemotright" horiz-adv-x="425" d="M385 300L272 99L213 132L307 300L213 467L272 499L385 300ZM214 300L99 99L40 132L134 300L40 467L99 499L214 300Z" />
<glyph unicode="&#xbf;" glyph-name="questiondown" horiz-adv-x="591" d="M330 421H256V547H330V421ZM526 39Q526 -78 461 -141T292 -205Q194 -205 130 -144T66 12Q66 60 86 99T156 182Q212 232 234 269T258 354H328Q327 293 304 249T224 150Q173 103 157 75T140
10Q140 -54 183 -96T292 -138Q367 -138 411 -94T456 39H526Z" />
<glyph unicode="&#xc0;" glyph-name="Agrave" horiz-adv-x="740" d="M729 0H648L541 249H197L89 0H11L328 739H411L729 0ZM512 316L370 655L225 316H512ZM445 832L411 776L218 890L252 948L445 832Z" />
<glyph unicode="&#xc1;" glyph-name="Aacute" horiz-adv-x="740" d="M729 0H648L541 249H197L89 0H11L328 739H411L729 0ZM512 316L370 655L225 316H512ZM521 890L328 776L294 832L487 948L521 890Z" />
<glyph unicode="&#xc2;" glyph-name="Acircumflex" horiz-adv-x="740" d="M729 0H648L541 249H197L89 0H11L328 739H411L729 0ZM512 316L370 655L225 316H512ZM547 789H458L372 863L284 789H193L338 915H404L547 789Z" />
<glyph unicode="&#xc3;" glyph-name="Atilde" horiz-adv-x="740" d="M729 0H648L541 249H197L89 0H11L328 739H411L729 0ZM512 316L370 655L225 316H512ZM515 854Q503 834 476 820T424 805Q403 805 358 827Q335 837 318 837Q304 837 295 833T265 811L258 805L225
851Q263 900 318 900Q327 900 368 885T425 869Q452 869 482 900L515 854Z" />
<glyph unicode="&#xc4;" glyph-name="Adieresis" horiz-adv-x="740" d="M729 0H648L541 249H197L89 0H11L328 739H411L729 0ZM512 316L370 655L225 316H512ZM333 789H259V915H333V789ZM480 789H406V915H480V789Z" />
<glyph unicode="&#xc5;" glyph-name="Aring" horiz-adv-x="740" d="M729 0H648L541 249H197L89 0H11L328 739H411L729 0ZM512 316L370 655L225 316H512ZM471 865Q471 823 442 794T370 764T299 793T269 864Q269 907 298 936T371 966Q412 966 441 936T471 865ZM426
842T426 865T410 904T370 921T331 905T314 864Q314 841 330 825T370 809T409 825Z" />
<glyph unicode="&#xc6;" glyph-name="AE" horiz-adv-x="992" d="M936 0H543V250H272L99 0H11L522 739H936V672H617V407H925V340H617V67H936V0ZM543 317V644L319 317H543Z" />
<glyph unicode="&#xc7;" glyph-name="Ccedilla" horiz-adv-x="813" d="M770 194Q660 -10 438 -13L427 -48Q448 -43 460 -43Q501 -43 529 -69T558 -137Q558 -185 528 -218T447 -251Q410 -251 385 -228T351 -166L404 -160Q414 -193 448 -193Q469 -193 482 -179T496
-142Q496 -118 482 -104T445 -89Q418 -89 399 -108L367 -89L398 -12Q245 0 145 107T44 367Q44 533 153 642T427 752Q542 752 633 697T767 547H684Q597 684 430 684Q298 684 209 594T119 370Q119 240 211 148T431 55Q511 55 570 87T688 194H770Z" />
<glyph unicode="&#xc8;" glyph-name="Egrave" horiz-adv-x="536" d="M480 0H76V739H480V672H150V407H469V340H150V67H480V0ZM354 832L320 776L127 890L161 948L354 832Z" />
<glyph unicode="&#xc9;" glyph-name="Eacute" horiz-adv-x="536" d="M480 0H76V739H480V672H150V407H469V340H150V67H480V0ZM429 890L236 776L202 832L395 948L429 890Z" />
<glyph unicode="&#xca;" glyph-name="Ecircumflex" horiz-adv-x="536" d="M480 0H76V739H480V672H150V407H469V340H150V67H480V0ZM455 789H366L280 863L192 789H101L246 915H312L455 789Z" />
<glyph unicode="&#xcb;" glyph-name="Edieresis" horiz-adv-x="536" d="M480 0H76V739H480V672H150V407H469V340H150V67H480V0ZM242 789H168V915H242V789ZM389 789H315V915H389V789Z" />
<glyph unicode="&#xcc;" glyph-name="Igrave" horiz-adv-x="226" d="M150 0H76V739H150V0ZM184 832L150 776L-43 890L-9 948L184 832Z" />
<glyph unicode="&#xcd;" glyph-name="Iacute" horiz-adv-x="226" d="M150 0H76V739H150V0ZM269 890L76 776L42 832L235 948L269 890Z" />
<glyph unicode="&#xce;" glyph-name="Icircumflex" horiz-adv-x="226" d="M150 0H76V739H150V0ZM290 789H201L115 863L27 789H-64L81 915H147L290 789Z" />
<glyph unicode="&#xcf;" glyph-name="Idieresis" horiz-adv-x="226" d="M150 0H76V739H150V0ZM77 789H3V915H77V789ZM224 789H150V915H224V789Z" />
<glyph unicode="&#xd1;" glyph-name="Ntilde" horiz-adv-x="740" d="M664 0H590L150 650V0H76V739H176L590 126V739H664V0ZM516 854Q504 834 477 820T425 805Q404 805 359 827Q336 837 319 837Q305 837 296 833T266 811L259 805L226 851Q264 900 319 900Q328 900
369 885T426 869Q453 869 483 900L516 854Z" />
<glyph unicode="&#xd2;" glyph-name="Ograve" horiz-adv-x="869" d="M825 369Q825 212 710 100T435 -13Q272 -13 158 100T44 374Q44 528 160 640T435 752Q596 752 710 640T825 369ZM750 368Q750 498 657 591T435 684Q307 684 213 592T119 372Q119 241 211 148T435
55Q564 55 657 147T750 368ZM511 832L477 776L284 890L318 948L511 832Z" />
<glyph unicode="&#xd3;" glyph-name="Oacute" horiz-adv-x="869" d="M825 369Q825 212 710 100T435 -13Q272 -13 158 100T44 374Q44 528 160 640T435 752Q596 752 710 640T825 369ZM750 368Q750 498 657 591T435 684Q307 684 213 592T119 372Q119 241 211 148T435
55Q564 55 657 147T750 368ZM586 890L393 776L359 832L552 948L586 890Z" />
<glyph unicode="&#xd4;" glyph-name="Ocircumflex" horiz-adv-x="869" d="M825 369Q825 212 710 100T435 -13Q272 -13 158 100T44 374Q44 528 160 640T435 752Q596 752 710 640T825 369ZM750 368Q750 498 657 591T435 684Q307 684 213 592T119 372Q119 241 211
148T435 55Q564 55 657 147T750 368ZM612 789H523L437 863L349 789H258L403 915H469L612 789Z" />
<glyph unicode="&#xd5;" glyph-name="Otilde" horiz-adv-x="869" d="M825 369Q825 212 710 100T435 -13Q272 -13 158 100T44 374Q44 528 160 640T435 752Q596 752 710 640T825 369ZM750 368Q750 498 657 591T435 684Q307 684 213 592T119 372Q119 241 211 148T435
55Q564 55 657 147T750 368ZM581 854Q569 834 542 820T490 805Q469 805 424 827Q401 837 384 837Q370 837 361 833T331 811L324 805L291 851Q329 900 384 900Q393 900 434 885T491 869Q518 869 548 900L581 854Z" />
<glyph unicode="&#xd6;" glyph-name="Odieresis" horiz-adv-x="869" d="M825 369Q825 212 710 100T435 -13Q272 -13 158 100T44 374Q44 528 160 640T435 752Q596 752 710 640T825 369ZM750 368Q750 498 657 591T435 684Q307 684 213 592T119 372Q119 241 211 148T435
55Q564 55 657 147T750 368ZM399 789H325V915H399V789ZM546 789H472V915H546V789Z" />
<glyph unicode="&#xd8;" glyph-name="Oslash" horiz-adv-x="868" d="M824 372Q824 211 712 99T437 -13Q325 -13 233 42L139 -83L83 -42L176 82Q44 192 44 370Q44 531 156 641T431 752Q554 752 636 696L730 821L784 779L692 656Q824 545 824 372ZM595 641Q524 684
430 684Q299 684 209 592T119 366Q119 232 219 138L595 641ZM749 369Q749 504 650 600L274 97Q354 55 436 55Q567 55 658 146T749 369Z" />
<glyph unicode="&#xd9;" glyph-name="Ugrave" horiz-adv-x="655" d="M579 278Q579 132 512 60T327 -13Q211 -13 144 59T76 278V739H150V278Q150 55 328 55Q505 55 505 278V739H579V278ZM403 832L369 776L176 890L210 948L403 832Z" />
<glyph unicode="&#xda;" glyph-name="Uacute" horiz-adv-x="655" d="M579 278Q579 132 512 60T327 -13Q211 -13 144 59T76 278V739H150V278Q150 55 328 55Q505 55 505 278V739H579V278ZM479 890L286 776L252 832L445 948L479 890Z" />
<glyph unicode="&#xdb;" glyph-name="Ucircumflex" horiz-adv-x="655" d="M579 278Q579 132 512 60T327 -13Q211 -13 144 59T76 278V739H150V278Q150 55 328 55Q505 55 505 278V739H579V278ZM505 789H416L330 863L242 789H151L296 915H362L505 789Z" />
<glyph unicode="&#xdc;" glyph-name="Udieresis" horiz-adv-x="655" d="M579 278Q579 132 512 60T327 -13Q211 -13 144 59T76 278V739H150V278Q150 55 328 55Q505 55 505 278V739H579V278ZM291 789H217V915H291V789ZM438 789H364V915H438V789Z" />
<glyph unicode="&#xdf;" glyph-name="germandbls" horiz-adv-x="554" d="M524 199Q524 108 466 48T319 -13Q189 -13 133 109V0H59V481Q59 752 263 752Q354 752 414 693T474 544Q474 440 389 389Q454 368 489 319T524 199ZM449 197Q449 265 401 304T269 343Q257
343 224 341V408H233Q311 408 355 445T399 548Q399 607 361 645T265 684Q197 684 165 636T133 481V203H184Q185 138 222 97T317 55Q373 55 411 96T449 197Z" />
<glyph unicode="&#xe0;" glyph-name="agrave" horiz-adv-x="683" d="M620 0H546V96Q502 37 454 12T335 -13Q209 -13 126 68T42 272Q42 395 124 477T330 560Q468 560 546 450V547H620V0ZM546 276Q546 367 484 429T332 492Q243 492 180 429T117 277Q117 183 180
119T336 55Q424 55 485 119T546 276ZM406 650L372 594L179 708L213 766L406 650Z" />
<glyph unicode="&#xe1;" glyph-name="aacute" horiz-adv-x="683" d="M620 0H546V96Q502 37 454 12T335 -13Q209 -13 126 68T42 272Q42 395 124 477T330 560Q468 560 546 450V547H620V0ZM546 276Q546 367 484 429T332 492Q243 492 180 429T117 277Q117 183 180
119T336 55Q424 55 485 119T546 276ZM481 708L288 594L254 650L447 766L481 708Z" />
<glyph unicode="&#xe2;" glyph-name="acircumflex" horiz-adv-x="683" d="M620 0H546V96Q502 37 454 12T335 -13Q209 -13 126 68T42 272Q42 395 124 477T330 560Q468 560 546 450V547H620V0ZM546 276Q546 367 484 429T332 492Q243 492 180 429T117 277Q117 183
180 119T336 55Q424 55 485 119T546 276ZM507 607H418L332 681L244 607H153L298 733H364L507 607Z" />
<glyph unicode="&#xe3;" glyph-name="atilde" horiz-adv-x="683" d="M620 0H546V96Q502 37 454 12T335 -13Q209 -13 126 68T42 272Q42 395 124 477T330 560Q468 560 546 450V547H620V0ZM546 276Q546 367 484 429T332 492Q243 492 180 429T117 277Q117 183 180
119T336 55Q424 55 485 119T546 276ZM475 672Q463 652 436 638T384 623Q363 623 318 645Q295 655 278 655Q264 655 255 651T225 629L218 623L185 669Q223 718 278 718Q287 718 328 703T385 687Q412 687 442 718L475 672Z" />
<glyph unicode="&#xe4;" glyph-name="adieresis" horiz-adv-x="683" d="M620 0H546V96Q502 37 454 12T335 -13Q209 -13 126 68T42 272Q42 395 124 477T330 560Q468 560 546 450V547H620V0ZM546 276Q546 367 484 429T332 492Q243 492 180 429T117 277Q117 183 180
119T336 55Q424 55 485 119T546 276ZM293 607H219V733H293V607ZM440 607H366V733H440V607Z" />
<glyph unicode="&#xe5;" glyph-name="aring" horiz-adv-x="683" d="M620 0H546V96Q502 37 454 12T335 -13Q209 -13 126 68T42 272Q42 395 124 477T330 560Q468 560 546 450V547H620V0ZM546 276Q546 367 484 429T332 492Q243 492 180 429T117 277Q117 183 180 119T336
55Q424 55 485 119T546 276ZM431 680Q431 638 402 609T330 579T259 608T229 679Q229 722 258 751T331 781Q372 781 401 751T431 680ZM386 657T386 680T370 719T330 736T291 720T274 679Q274 656 290 640T330 624T369 640Z" />
<glyph unicode="&#xe6;" glyph-name="ae" horiz-adv-x="1157" d="M1118 247H623Q630 165 692 110T839 55Q902 55 953 88T1028 178H1105Q1076 92 1003 40T839 -13Q709 -13 619 92V0H548V92Q502 37 451 12T331 -13Q208 -13 125 69T42 272Q42 392 124 476T330 560Q469
560 548 452V547H619V452Q705 560 835 560Q957 560 1037 478T1118 247ZM1046 314Q1031 395 974 443T836 492Q754 492 696 443T626 314H1046ZM550 274Q550 369 489 430T333 492Q241 492 180 430T118 274Q118 182 180 119T333 55T487 118T550 274Z" />
<glyph unicode="&#xe7;" glyph-name="ccedilla" horiz-adv-x="647" d="M608 161Q518 -10 348 -13L337 -48Q358 -43 370 -43Q411 -43 439 -69T468 -137Q468 -185 438 -218T357 -251Q320 -251 295 -228T261 -166L314 -160Q324 -193 358 -193Q379 -193 392 -179T406
-142Q406 -118 392 -104T355 -89Q328 -89 309 -108L277 -89L308 -11Q193 0 118 80T42 275Q42 394 127 477T335 560Q427 560 500 512T607 381H524Q459 492 334 492Q243 492 180 429T117 273Q117 182 181 119T337 55Q395 55 438 79T524 161H608Z" />
<glyph unicode="&#xe8;" glyph-name="egrave" horiz-adv-x="650" d="M611 249H116Q120 168 182 112T329 55Q391 55 444 89T520 180H597Q570 99 496 43T331 -13Q210 -13 126 70T42 276Q42 395 124 477T326 560Q450 560 530 476T611 249ZM537 316Q518 398 462 445T325
492Q247 492 190 444T118 316H537ZM402 650L368 594L175 708L209 766L402 650Z" />
<glyph unicode="&#xe9;" glyph-name="eacute" horiz-adv-x="650" d="M611 249H116Q120 168 182 112T329 55Q391 55 444 89T520 180H597Q570 99 496 43T331 -13Q210 -13 126 70T42 276Q42 395 124 477T326 560Q450 560 530 476T611 249ZM537 316Q518 398 462 445T325
492Q247 492 190 444T118 316H537ZM477 708L284 594L250 650L443 766L477 708Z" />
<glyph unicode="&#xea;" glyph-name="ecircumflex" horiz-adv-x="650" d="M611 249H116Q120 168 182 112T329 55Q391 55 444 89T520 180H597Q570 99 496 43T331 -13Q210 -13 126 70T42 276Q42 395 124 477T326 560Q450 560 530 476T611 249ZM537 316Q518 398 462
445T325 492Q247 492 190 444T118 316H537ZM503 607H414L328 681L240 607H149L294 733H360L503 607Z" />
<glyph unicode="&#xeb;" glyph-name="edieresis" horiz-adv-x="650" d="M611 249H116Q120 168 182 112T329 55Q391 55 444 89T520 180H597Q570 99 496 43T331 -13Q210 -13 126 70T42 276Q42 395 124 477T326 560Q450 560 530 476T611 249ZM537 316Q518 398 462
445T325 492Q247 492 190 444T118 316H537ZM289 607H215V733H289V607ZM436 607H362V733H436V607Z" />
<glyph unicode="&#xec;" glyph-name="igrave" horiz-adv-x="200" d="M137 0H63V547H137V0ZM171 650L137 594L-56 708L-22 766L171 650Z" />
<glyph unicode="&#xed;" glyph-name="iacute" horiz-adv-x="200" d="M137 0H63V547H137V0ZM256 708L63 594L29 650L222 766L256 708Z" />
<glyph unicode="&#xee;" glyph-name="icircumflex" horiz-adv-x="200" d="M137 0H63V547H137V0ZM277 607H188L102 681L14 607H-77L68 733H134L277 607Z" />
<glyph unicode="&#xef;" glyph-name="idieresis" horiz-adv-x="200" d="M137 0H63V547H137V0ZM63 607H-11V733H63V607ZM210 607H136V733H210V607Z" />
<glyph unicode="&#xf1;" glyph-name="ntilde" horiz-adv-x="610" d="M547 0H473V287Q473 492 304 492Q226 492 182 445T137 301V0H63V547H137V476Q206 560 313 560Q421 560 484 493T547 287V0ZM450 672Q438 652 411 638T359 623Q338 623 293 645Q270 655 253 655Q239
655 230 651T200 629L193 623L160 669Q198 718 253 718Q262 718 303 703T360 687Q387 687 417 718L450 672Z" />
<glyph unicode="&#xf2;" glyph-name="ograve" horiz-adv-x="655" d="M613 272Q613 149 534 68T335 -13Q208 -13 125 69T42 277Q42 397 124 478T329 560Q452 560 532 479T613 272ZM538 271Q538 366 479 429T329 492Q238 492 178 430T117 275Q117 179 178 117T333
55Q422 55 480 116T538 271ZM405 650L371 594L178 708L212 766L405 650Z" />
<glyph unicode="&#xf3;" glyph-name="oacute" horiz-adv-x="655" d="M613 272Q613 149 534 68T335 -13Q208 -13 125 69T42 277Q42 397 124 478T329 560Q452 560 532 479T613 272ZM538 271Q538 366 479 429T329 492Q238 492 178 430T117 275Q117 179 178 117T333
55Q422 55 480 116T538 271ZM480 708L287 594L253 650L446 766L480 708Z" />
<glyph unicode="&#xf4;" glyph-name="ocircumflex" horiz-adv-x="655" d="M613 272Q613 149 534 68T335 -13Q208 -13 125 69T42 277Q42 397 124 478T329 560Q452 560 532 479T613 272ZM538 271Q538 366 479 429T329 492Q238 492 178 430T117 275Q117 179 178 117T333
55Q422 55 480 116T538 271ZM506 607H417L331 681L243 607H152L297 733H363L506 607Z" />
<glyph unicode="&#xf5;" glyph-name="otilde" horiz-adv-x="655" d="M613 272Q613 149 534 68T335 -13Q208 -13 125 69T42 277Q42 397 124 478T329 560Q452 560 532 479T613 272ZM538 271Q538 366 479 429T329 492Q238 492 178 430T117 275Q117 179 178 117T333
55Q422 55 480 116T538 271ZM474 672Q462 652 435 638T383 623Q362 623 317 645Q294 655 277 655Q263 655 254 651T224 629L217 623L184 669Q222 718 277 718Q286 718 327 703T384 687Q411 687 441 718L474 672Z" />
<glyph unicode="&#xf6;" glyph-name="odieresis" horiz-adv-x="655" d="M613 272Q613 149 534 68T335 -13Q208 -13 125 69T42 277Q42 397 124 478T329 560Q452 560 532 479T613 272ZM538 271Q538 366 479 429T329 492Q238 492 178 430T117 275Q117 179 178 117T333
55Q422 55 480 116T538 271ZM292 607H218V733H292V607ZM439 607H365V733H439V607Z" />
<glyph unicode="&#xf7;" glyph-name="divide" horiz-adv-x="606" d="M543 213H63V287H543V213ZM366 461T366 435T348 391T303 372T259 390T240 435T258 479T303 498T347 480ZM366 91T366 65T348 21T303 2T259 20T240 65T258 109T303 128T347 110Z" />
<glyph unicode="&#xf8;" glyph-name="oslash" horiz-adv-x="653" d="M611 281Q611 153 532 70T328 -13Q255 -13 178 28L126 -39L73 1L124 68Q79 120 61 166T42 272Q42 392 125 476T328 560Q408 560 474 519L531 594L584 552L528 478Q611 402 611 281ZM434 468Q386
492 329 492Q239 492 178 427T117 266Q117 190 166 121L434 468ZM536 280Q536 365 487 426L218 79Q271 55 323 55Q417 55 476 118T536 280Z" />
<glyph unicode="&#xf9;" glyph-name="ugrave" horiz-adv-x="608" d="M545 0H471V85Q418 -13 295 -13Q63 -13 63 252V547H137V252Q137 55 301 55Q380 55 425 107T471 266V547H545V0ZM380 650L346 594L153 708L187 766L380 650Z" />
<glyph unicode="&#xfa;" glyph-name="uacute" horiz-adv-x="608" d="M545 0H471V85Q418 -13 295 -13Q63 -13 63 252V547H137V252Q137 55 301 55Q380 55 425 107T471 266V547H545V0ZM455 708L262 594L228 650L421 766L455 708Z" />
<glyph unicode="&#xfb;" glyph-name="ucircumflex" horiz-adv-x="608" d="M545 0H471V85Q418 -13 295 -13Q63 -13 63 252V547H137V252Q137 55 301 55Q380 55 425 107T471 266V547H545V0ZM481 607H392L306 681L218 607H127L272 733H338L481 607Z" />
<glyph unicode="&#xfc;" glyph-name="udieresis" horiz-adv-x="608" d="M545 0H471V85Q418 -13 295 -13Q63 -13 63 252V547H137V252Q137 55 301 55Q380 55 425 107T471 266V547H545V0ZM267 607H193V733H267V607ZM414 607H340V733H414V607Z" />
<glyph unicode="&#xff;" glyph-name="ydieresis" horiz-adv-x="536" d="M527 547L211 -192H132L221 18L9 547H90L263 111L448 547H527ZM232 607H158V733H232V607ZM379 607H305V733H379V607Z" />
<glyph unicode="&#x131;" glyph-name="dotlessi" horiz-adv-x="200" d="M137 0H63V547H137V0Z" />
<glyph unicode="&#x152;" glyph-name="OE" horiz-adv-x="1194" d="M1138 0H745V151Q650 -13 445 -13Q272 -13 158 96T44 371Q44 534 154 643T432 752Q536 752 617 711T745 592V739H1138V672H819V407H1127V340H819V67H1138V0ZM746 372Q746 508 658 596T432 684Q298
684 209 595T119 375Q119 237 210 146T439 55Q572 55 659 145T746 372Z" />
<glyph unicode="&#x153;" glyph-name="oe" horiz-adv-x="1137" d="M1098 286Q1098 282 1096 248H608Q613 165 677 110T824 55Q952 55 1012 179H1086Q1065 101 994 44T828 -13Q742 -13 674 27T571 138Q526 59 469 23T331 -13Q209 -13 126 70T42 274T123 477T324
560Q483 560 571 414Q656 560 817 560Q936 560 1017 481T1098 286ZM1027 315Q1014 394 955 443T815 492Q739 492 684 445T608 315H1027ZM536 273Q536 367 476 429T326 492T177 430T117 273Q117 181 178 118T331 55Q418 55 477 118T536 273Z" />
<glyph unicode="&#x178;" glyph-name="Ydieresis" horiz-adv-x="592" d="M590 739L332 247V0H258V247L2 739H84L294 325L509 739H590ZM259 789H185V915H259V789ZM406 789H332V915H406V789Z" />
<glyph unicode="&#x192;" glyph-name="florin" horiz-adv-x="554" d="M546 815L535 749Q524 751 513 751Q425 751 396 607L392 584H504L492 517H380L300 86Q284 0 269 -37T225 -101Q167 -153 76 -153Q42 -153 18 -146L30 -82Q61 -86 78 -86Q147 -86 179 -50T231
92L311 517H198L211 584H322L326 607Q346 712 396 765T517 818Q525 818 546 815Z" />
<glyph unicode="&#x2c6;" glyph-name="circumflex" horiz-adv-x="502" d="M428 607H339L253 681L165 607H74L219 733H285L428 607Z" />
<glyph unicode="&#x2c7;" glyph-name="caron" horiz-adv-x="502" d="M428 733L283 607H217L74 733H163L249 659L337 733H428Z" />
<glyph unicode="&#x2d8;" glyph-name="breve" horiz-adv-x="453" d="M378 730Q366 666 328 638T226 610Q96 610 74 730H138Q148 668 226 668T314 730H378Z" />
<glyph unicode="&#x2d9;" glyph-name="dotaccent" horiz-adv-x="222" d="M148 607H74V733H148V607Z" />
<glyph unicode="&#x2da;" glyph-name="ring" horiz-adv-x="332" d="M267 680Q267 638 238 609T166 579T95 608T65 679Q65 722 94 751T167 781Q208 781 237 751T267 680ZM222 657T222 680T206 719T166 736T127 720T110 679Q110 656 126 640T166 624T205 640Z" />
<glyph unicode="&#x2db;" glyph-name="ogonek" horiz-adv-x="302" d="M233 -246Q212 -250 183 -250Q132 -250 97 -213T62 -125Q62 -59 146 0H220Q136 -48 136 -125Q136 -146 149 -161T183 -176Q205 -176 233 -171V-246Z" />
<glyph unicode="&#x2dc;" glyph-name="tilde" horiz-adv-x="439" d="M365 672Q353 652 326 638T274 623Q253 623 208 645Q185 655 168 655Q154 655 145 651T115 629L108 623L75 669Q113 718 168 718Q177 718 218 703T275 687Q302 687 332 718L365 672Z" />
<glyph unicode="&#x2dd;" glyph-name="hungarumlaut" horiz-adv-x="552" d="M353 706L179 585L144 632L315 755L353 706ZM549 706L375 585L340 632L511 755L549 706Z" />
<glyph unicode="&#x3a9;" glyph-name="Omega" horiz-adv-x="797" d="M765 340Q763 258 728 184T636 74H714V-2H482V76Q568 101 625 173T684 340Q685 448 599 530T400 612Q285 612 200 530T115 336Q117 244 175 173T319 76V-2H84V74H166Q109 110 72 183T34 336Q31
479 141 584T399 690Q494 690 579 643T715 514T765 340Z" />
<glyph unicode="&#x3c0;" glyph-name="pi" horiz-adv-x="736" d="M673 473H539V0H465V473H317V0H243V473H230Q190 473 164 441T137 365H63Q63 439 111 493T230 547H673V473Z" />
<glyph unicode="&#x2013;" glyph-name="endash" horiz-adv-x="500" d="M500 233H0V296H500V233Z" />
<glyph unicode="&#x2014;" glyph-name="emdash" horiz-adv-x="1000" d="M1000 233H0V296H1000V233Z" />
<glyph unicode="&#x2018;" glyph-name="quoteleft" horiz-adv-x="351" d="M260 547H186L98 739H172L260 547Z" />
<glyph unicode="&#x2019;" glyph-name="quoteright" horiz-adv-x="351" d="M253 739L165 547H91L179 739H253Z" />
<glyph unicode="&#x201a;" glyph-name="quotesinglbase" horiz-adv-x="354" d="M251 126L163 -67H89L177 126H251Z" />
<glyph unicode="&#x201c;" glyph-name="quotedblleft" horiz-adv-x="502" d="M406 547H332L244 739H318L406 547ZM258 547H184L96 739H170L258 547Z" />
<glyph unicode="&#x201d;" glyph-name="quotedblright" horiz-adv-x="484" d="M249 739L161 547H87L175 739H249ZM393 739L305 547H231L319 739H393Z" />
<glyph unicode="&#x201e;" glyph-name="quotedblbase" horiz-adv-x="502" d="M251 126L163 -67H89L177 126H251ZM398 126L310 -67H236L324 126H398Z" />
<glyph unicode="&#x2020;" glyph-name="dagger" horiz-adv-x="553" d="M494 470H311V-133H237V470H59V536H237V739H311V536H494V470Z" />
<glyph unicode="&#x2021;" glyph-name="daggerdbl" horiz-adv-x="553" d="M494 331H312V-133H238V331H59V401H238V493H59V563H238V739H312V563H494V493H312V401H494V331Z" />
<glyph unicode="&#x2022;" glyph-name="bullet" horiz-adv-x="606" d="M488 304Q488 226 434 172T301 118Q226 118 172 172T118 303Q118 380 172 434T303 488T434 435T488 304Z" />
<glyph unicode="&#x2026;" glyph-name="ellipsis" horiz-adv-x="1000" d="M204 0H130V126H204V0ZM537 0H463V126H537V0ZM870 0H796V126H870V0Z" />
<glyph unicode="&#x2030;" glyph-name="perthousand" horiz-adv-x="1174" d="M588 739L254 0H182L514 739H588ZM752 163Q752 90 701 39T576 -13Q504 -13 453 38T401 162Q401 236 452 287T578 338Q649 338 700 286T752 163ZM684 117T684 162T653 239T577 272Q531
272 500 240T468 162Q468 117 500 85T576 53T652 85ZM1151 163Q1151 90 1100 39T975 -13Q903 -13 852 38T800 162Q800 236 851 287T977 338Q1048 338 1099 286T1151 163ZM1083 117T1083 162T1052 239T976 272Q930 272 899 240T867 162Q867 117 899 85T975 53T1051
85ZM364 573Q364 500 313 449T188 397Q116 397 65 448T13 573Q13 647 64 698T190 749Q261 749 312 697T364 573ZM296 573Q296 618 265 650T189 683Q143 683 111 651T79 573Q79 528 111 496T188 463Q232 463 264 495T296 573Z" />
<glyph unicode="&#x2039;" glyph-name="guilsinglleft" horiz-adv-x="251" d="M211 132L152 99L40 300L152 499L211 467L118 300L211 132Z" />
<glyph unicode="&#x203a;" glyph-name="guilsinglright" horiz-adv-x="251" d="M211 300L99 99L40 132L133 300L40 467L99 499L211 300Z" />
<glyph unicode="&#x2044;" glyph-name="fraction" horiz-adv-x="166" d="M281 739L-61 0H-115L227 739H281Z" />
<glyph unicode="&#x20ac;" glyph-name="Euro" horiz-adv-x="554" d="M573 628L542 559Q493 631 453 658T354 686Q266 686 217 635T142 459H493L468 400H136Q134 366 134 362Q134 345 135 331H438L414 272H140Q154 166 208 109T348 52Q406 52 441 70T536 143V62Q496
22 453 5T349 -13Q231 -13 161 56T65 272H-31L-7 331H61Q60 345 60 362Q60 366 62 400H-32L-8 459H67Q96 620 165 686T353 752Q420 752 468 727T573 628Z" />
<glyph unicode="&#x2122;" glyph-name="trademark" horiz-adv-x="1000" d="M348 739V687H237V318H175V687H63V739H348ZM937 318H875V658L702 318H652L481 658V318H418V739H505L678 401L851 739H937V318Z" />
<glyph unicode="&#x2202;" glyph-name="partialdiff" horiz-adv-x="494" d="M482 470T482 370T449 183T350 41T198 -15Q120 -15 66 43T12 182Q12 275 73 342T224 410Q318 410 408 378Q406 510 352 604T198 698Q151 698 61 666L37 736Q88 754 198 754Q284 754 350
699T449 557ZM406 319Q319 355 224 355Q164 355 125 304T86 182Q86 125 117 83T198 41Q289 41 342 120T406 319Z" />
<glyph unicode="&#x2211;" glyph-name="summation" horiz-adv-x="713" d="M619 -123H95V-49L238 315L95 678V752H619V678H174L317 315L174 -49H619V-123Z" />
<glyph unicode="&#x221a;" glyph-name="radical" horiz-adv-x="549" d="M515 908L363 -35L121 461L26 414L10 449L156 520L351 126L478 913L515 908Z" />
<glyph unicode="&#x221e;" glyph-name="infinity" horiz-adv-x="768" d="M654 320Q654 374 621 407T534 440Q503 440 473 411T427 352L412 322Q414 317 418 309T434 281T460 246T494 217T534 204Q587 204 620 236T654 320ZM350 322Q348 327 344 335T328 363T302
398T269 427T230 440Q177 440 144 408T110 324Q110 270 143 237T230 204Q260 204 290 233T335 292L350 322ZM720 324Q720 238 674 184T546 130Q492 130 448 159T382 234Q360 187 320 159T226 130Q144 130 93 184T42 324Q42 410 93 465T226 520Q279 520 319 492T382
416Q404 462 448 491T546 520Q627 520 673 466T720 324Z" />
<glyph unicode="&#x2248;" glyph-name="approxequal" horiz-adv-x="606" d="M555 203Q529 152 491 122T415 91Q387 91 322 117L267 139Q214 160 194 160Q162 160 144 142T93 70L51 117Q87 182 119 209T194 237Q222 237 271 218L336 191Q391 168 416 168Q463 168
511 250L555 203ZM555 383Q529 332 491 302T415 271Q387 271 322 297L267 319Q214 340 194 340Q162 340 144 322T93 250L51 297Q87 362 119 389T194 417Q222 417 271 398L336 371Q391 348 416 348Q463 348 511 430L555 383Z" />
<glyph unicode="&#x2260;" glyph-name="notequal" horiz-adv-x="606" d="M543 121H279L184 -64L119 -30L195 121H63V195H233L290 305H63V379H327L422 564L487 530L411 379H543V305H373L316 195H543V121Z" />
<glyph unicode="&#x2264;" glyph-name="lessequal" horiz-adv-x="606" d="M480 67L102 384V440L480 757V661L184 412L480 163V67ZM480 -37H126V37H480V-37Z" />
<glyph unicode="&#x2265;" glyph-name="greaterequal" horiz-adv-x="606" d="M504 384L126 67V163L422 412L126 661V757L504 440V384ZM480 -37H126V37H480V-37Z" />
<glyph unicode="&#x25ca;" glyph-name="lozenge" horiz-adv-x="494" d="M466 374L269 0H209L18 377L214 740H277L466 374ZM402 374L245 683L81 376L240 58L402 374Z" />
<glyph unicode="&#xfb01;" glyph-name="f_i" horiz-adv-x="487" d="M311 480H175V0H101V480H16V547H101Q98 739 311 739V672Q235 672 205 644T175 547H311V480ZM424 0H350V547H424V0ZM424 607H350V733H424V607Z" />
<glyph unicode="&#xfb02;" glyph-name="f_l" horiz-adv-x="485" d="M311 480H175V0H101V480H16V547H101Q98 739 311 739V672Q235 672 205 644T175 547H311V480ZM422 0H348V739H422V0Z" />
</font>
</defs>
</svg>
