<?xml version="1.0" standalone="no"?> <!DOCTYPE svg PUBLIC "-//W3C//DTD SVG 1.0//EN" "http://www.w3.org/TR/2001/REC-SVG-20010904/DTD/svg10.dtd" > <svg xmlns="http://www.w3.org/2000/svg" width="100%" height="100%">
<defs >
<font id="TeXGyreAdventor-Bold" horiz-adv-x="564" ><font-face
    font-family="TeXGyreAdventor"
    units-per-em="1000"
    panose-1="0 0 8 0 0 0 0 0 0 0"
    ascent="1001"
    descent="-250"
    alphabetic="0" />
<missing-glyph horiz-adv-x="364" d="M33 0V666H298V0H33ZM66 33H265V633H66V33Z" />
<glyph unicode=" " glyph-name="space" horiz-adv-x="280" />
<glyph unicode="!" glyph-name="exclam" horiz-adv-x="280" d="M205 188H72V739H205V188ZM205 0H72V128H205V0Z" />
<glyph unicode="&quot;" glyph-name="quotedbl" horiz-adv-x="360" d="M283 513H207V739H283V513ZM150 513H74V739H150V513Z" />
<glyph unicode="#" glyph-name="numbersign" horiz-adv-x="560" d="M526 422H423L411 333H500V233H398L366 0H276L308 233H221L190 0H99L131 233H34V333H144L156 422H60V521H170L199 739H289L260 521H347L376 739H466L437 521H526V422ZM333 422H247L234 333H321L333 422Z" />
<glyph unicode="$" glyph-name="dollar" horiz-adv-x="560" d="M494 251Q494 174 456 120T347 46V-86H220V46Q145 67 102 119T59 236V249H193Q195 210 218 187T277 163T337 187T361 246Q361 291 322 316Q300 330 217 361Q88 408 88 541Q88 609 121 658T220 723V856H347V723Q398
713 433 664T471 551H345Q333 613 280 613Q254 613 238 595T221 549Q221 514 241 495T335 449Q427 417 460 375T494 251Z" />
<glyph unicode="%" glyph-name="percent" horiz-adv-x="860" d="M631 739L325 0H223L528 739H631ZM835 168Q835 93 782 40T654 -13T526 40T473 167Q473 243 526 295T655 348Q728 348 781 295T835 168ZM728 138T728 168T706 220T654 242T603 221T581 168T602 116T654
94T706 116ZM383 572Q383 497 330 444T202 391T74 444T21 571Q21 647 74 699T203 752Q276 752 329 699T383 572ZM276 542T276 572T254 624T202 646T151 625T129 572T150 520T202 498T254 520Z" />
<glyph unicode="&amp;" glyph-name="ampersand" horiz-adv-x="680" d="M664 73L569 -13L464 98Q417 35 376 11T276 -13Q175 -13 105 55T35 223Q35 290 68 340T173 433Q137 474 124 502T111 569Q111 646 165 699T298 752Q379 752 433 700T488 570Q488 510 463 471T372
389L439 314L511 433H660L532 214L664 73ZM361 566Q361 593 344 610T300 627Q274 627 256 610T238 567Q238 547 249 528T289 481Q331 504 346 521T361 566ZM372 198L257 322Q168 282 168 215Q168 174 196 147T268 119Q301 119 324 136T372 198Z" />
<glyph unicode="&apos;" glyph-name="quotesingle" horiz-adv-x="220" d="M150 513H74V739H150V513Z" />
<glyph unicode="(" glyph-name="parenleft" horiz-adv-x="380" d="M349 -137Q228 -94 151 31T74 300Q74 448 148 567T349 739V595Q209 487 209 300Q209 212 248 130T349 8V-137Z" />
<glyph unicode=")" glyph-name="parenright" horiz-adv-x="380" d="M312 302Q312 154 238 35T37 -137V7Q177 115 177 302Q177 390 138 472T37 594V739Q158 696 235 570T312 302Z" />
<glyph unicode="*" glyph-name="asterisk" horiz-adv-x="440" d="M371 554L274 559L327 479L270 441L223 529L180 441L116 472L168 561L70 554V625L169 620L116 706L179 738L223 652L269 739L328 703L274 620L371 626V554Z" />
<glyph unicode="+" glyph-name="plus" horiz-adv-x="600" d="M546 181H369V4H231V181H54V319H231V496H369V319H546V181Z" />
<glyph unicode="," glyph-name="comma" horiz-adv-x="280" d="M205 -7Q205 -67 171 -103T72 -140V-73Q104 -67 117 -54T131 -17Q131 -6 130 0H72V128H205V-7Z" />
<glyph unicode="-" glyph-name="hyphen" horiz-adv-x="420" d="M351 229H74V347H351V229Z" />
<glyph unicode="." glyph-name="period" horiz-adv-x="280" d="M205 0H72V128H205V0Z" />
<glyph unicode="/" glyph-name="slash" horiz-adv-x="460" d="M443 739L120 -128H26L349 739H443Z" />
<glyph unicode="0" glyph-name="zero" horiz-adv-x="560" d="M525 247Q525 124 460 56T284 -13Q168 -13 99 55T30 247V498Q30 615 97 683T278 752Q390 752 457 685T525 505V247ZM392 248V498Q392 562 363 596T279 630T194 595T163 498V251Q163 182 193 146T280
109Q392 109 392 248Z" />
<glyph unicode="1" glyph-name="one" horiz-adv-x="560" d="M379 0H246V614H153V739H379V0Z" />
<glyph unicode="2" glyph-name="two" horiz-adv-x="560" d="M520 512Q520 443 490 390T377 262L226 125H517V0H39V117L302 366Q387 447 387 514Q387 564 357 597T280 630Q228 630 197 590T165 484H34Q34 609 102 680T279 752Q382 752 451 683T520 512Z" />
<glyph unicode="3" glyph-name="three" horiz-adv-x="560" d="M518 235Q518 128 448 58T270 -13Q164 -13 93 53T15 224H149Q156 172 188 141T269 109Q319 109 352 144T385 232Q385 288 346 322T240 356H218V484Q280 485 306 503T332 560Q332 591 314 610T267 630Q214
630 205 563H70Q77 654 131 703T266 752Q352 752 408 695T465 553Q465 471 403 426Q518 375 518 235Z" />
<glyph unicode="4" glyph-name="four" horiz-adv-x="560" d="M530 111H452V0H319V111H0V219L340 739H452V230H530V111ZM319 230V515L135 230H319Z" />
<glyph unicode="5" glyph-name="five" horiz-adv-x="560" d="M520 247Q520 136 448 62T269 -13Q169 -13 93 54T12 221H145Q155 167 186 138T265 109Q319 109 353 147T387 245Q387 301 353 339T267 377Q209 377 164 321L46 353L115 739H449V614H215L191 478Q241
499 286 499Q387 499 453 428T520 247Z" />
<glyph unicode="6" glyph-name="six" horiz-adv-x="560" d="M533 252Q533 137 462 62T280 -13Q168 -13 95 59T21 242Q21 295 37 342T94 449L287 739H446L269 476Q299 486 329 486Q417 486 475 420T533 252ZM400 239Q400 296 366 333T278 370Q223 370 189 334T154
239Q154 182 189 146T280 109Q333 109 366 145T400 239Z" />
<glyph unicode="7" glyph-name="seven" horiz-adv-x="560" d="M500 614L230 0H80L360 614H65V739H500V614Z" />
<glyph unicode="8" glyph-name="eight" horiz-adv-x="560" d="M523 232Q523 127 453 57T278 -13Q174 -13 103 57T31 231Q31 352 137 411Q103 448 90 478T76 549Q76 634 135 693T279 752Q366 752 423 695T481 551Q481 461 419 411Q474 378 498 336T523 232ZM354
516T354 550T333 607T280 630Q247 630 225 607T203 549Q203 516 225 493T279 469T332 492ZM390 225Q390 273 358 307T279 341Q231 341 198 308T164 226Q164 176 197 143T279 109Q326 109 358 142T390 225Z" />
<glyph unicode="9" glyph-name="nine" horiz-adv-x="560" d="M532 496Q532 443 516 396T459 290L266 0H107L285 263Q253 251 225 251Q139 251 81 319T22 487Q22 603 93 677T273 752Q385 752 458 679T532 496ZM399 500Q399 557 364 593T273 630Q221 630 188 594T155
500T189 406T276 369Q331 369 365 405T399 500Z" />
<glyph unicode=":" glyph-name="colon" horiz-adv-x="280" d="M205 0H72V128H205V0ZM205 369H72V502H205V369Z" />
<glyph unicode=";" glyph-name="semicolon" horiz-adv-x="280" d="M205 -7Q205 -68 169 -104T72 -140V-73Q104 -67 117 -54T131 -17V0H72V128H205V-7ZM205 369H72V502H205V369Z" />
<glyph unicode="&lt;" glyph-name="less" horiz-adv-x="600" d="M492 -142L65 196V304L492 642V466L219 250L492 34V-142Z" />
<glyph unicode="=" glyph-name="equal" horiz-adv-x="600" d="M546 273H54V411H546V273ZM546 89H54V227H546V89Z" />
<glyph unicode="&gt;" glyph-name="greater" horiz-adv-x="600" d="M492 196L65 -142V34L338 250L65 466V642L492 304V196Z" />
<glyph unicode="?" glyph-name="question" horiz-adv-x="560" d="M485 523Q485 473 463 434T383 344Q342 308 331 280T318 187H185Q185 281 208 331T307 442Q352 480 352 527Q352 567 325 593T257 620Q178 620 165 520H32Q41 632 104 692T260 752Q356 752 420
687T485 523ZM318 0H185V128H318V0Z" />
<glyph unicode="@" glyph-name="at" horiz-adv-x="740" d="M745 397Q745 289 686 222T534 154Q454 154 435 208Q399 154 322 154Q247 154 202 205T157 345Q157 444 215 510T359 577Q400 577 426 564T477 519L484 573H580L547 278Q546 273 546 263Q546 237 573
237Q613 237 642 289T672 413Q672 538 594 616T390 694Q254 694 164 603T74 374Q74 243 163 152T401 60Q487 60 550 107L596 47Q519 -13 399 -13Q228 -13 116 98T3 377Q3 543 113 654T388 766Q548 766 646 666T745 397ZM455 374Q455 416 435 440T379 465Q337 465
307 433T277 355Q277 311 298 286T355 260Q399 260 427 292T455 374Z" />
<glyph unicode="A" glyph-name="A" horiz-adv-x="740" d="M733 0H582L503 191H240L158 0H7L315 739H423L733 0ZM448 322L369 546L290 322H448Z" />
<glyph unicode="B" glyph-name="B" horiz-adv-x="580" d="M548 220Q548 116 477 58T265 0H68V739H220Q303 739 345 732T420 703Q504 649 504 542Q504 490 485 458T422 403Q491 374 519 331T548 220ZM410 223Q410 320 270 320H205V131H273Q345 131 377 153T410
223ZM367 530Q367 605 261 605H205V454H249Q311 454 339 472T367 530Z" />
<glyph unicode="C" glyph-name="C" horiz-adv-x="780" d="M760 206Q717 105 625 46T419 -13Q257 -13 144 99T30 372Q30 529 141 640T410 752Q525 752 618 693T760 527H607Q569 576 523 598T413 620Q308 620 238 548T168 371Q168 267 241 193T416 119Q470 119 512
139T599 206H760Z" />
<glyph unicode="D" glyph-name="D" horiz-adv-x="700" d="M660 368Q660 256 612 170T479 41Q397 0 240 0H68V739H237Q411 739 499 686Q576 640 618 557T660 368ZM522 368Q522 439 492 495T409 578Q350 608 232 608H205V131H235Q356 131 415 164Q464 191 493 246T522 368Z" />
<glyph unicode="E" glyph-name="E" horiz-adv-x="520" d="M465 0H68V739H465V608H205V434H454V303H205V131H465V0Z" />
<glyph unicode="F" glyph-name="F" horiz-adv-x="480" d="M444 608H205V434H433V303H205V0H68V739H444V608Z" />
<glyph unicode="G" glyph-name="G" horiz-adv-x="840" d="M818 359Q818 207 706 97T432 -13Q262 -13 146 98T30 371Q30 530 143 641T419 752Q540 752 642 687T780 522H619Q549 620 416 620Q308 620 238 548T168 369T241 191T424 119Q497 119 554 153T641 249H335V377H818V359Z"
/>
<glyph unicode="H" glyph-name="H" horiz-adv-x="680" d="M606 0H469V310H205V0H68V739H205V441H469V739H606V0Z" />
<glyph unicode="I" glyph-name="I" horiz-adv-x="280" d="M205 0H68V739H205V0Z" />
<glyph unicode="J" glyph-name="J" horiz-adv-x="480" d="M414 212Q414 108 361 48T214 -13Q131 -13 75 35T9 175H146Q160 119 211 119Q277 119 277 216V739H414V212Z" />
<glyph unicode="K" glyph-name="K" horiz-adv-x="620" d="M599 0H434L205 325V0H68V739H205V420L434 739H599L321 376L599 0Z" />
<glyph unicode="L" glyph-name="L" horiz-adv-x="440" d="M431 0H68V739H205V131H431V0Z" />
<glyph unicode="M" glyph-name="M" horiz-adv-x="900" d="M840 0H703V554L510 0H398L205 554V0H68V739H256L455 179L652 739H840V0Z" />
<glyph unicode="N" glyph-name="N" horiz-adv-x="740" d="M667 0H514L205 537V0H68V739H224L530 201V739H667V0Z" />
<glyph unicode="O" glyph-name="O" horiz-adv-x="840" d="M800 370Q800 208 690 98T419 -13Q256 -13 143 98T30 369Q30 531 142 641T420 752Q578 752 689 640T800 370ZM662 368Q662 474 592 547T418 620Q311 620 240 548T168 369Q168 264 240 192T418 119T592
190T662 368Z" />
<glyph unicode="P" glyph-name="P" horiz-adv-x="560" d="M540 511Q540 447 514 395T443 314Q412 295 370 288T249 281H205V0H68V739H251Q383 739 440 705Q540 644 540 511ZM402 509Q402 566 368 587T251 608H205V412H245Q334 412 368 435T402 509Z" />
<glyph unicode="Q" glyph-name="Q" horiz-adv-x="840" d="M828 -14Q820 -15 802 -15Q755 -15 720 -2T635 45Q551 -13 430 -13Q263 -13 147 98T30 370Q30 531 144 641T424 752Q592 752 703 642T815 366Q815 221 726 129Q769 107 794 107Q807 107 828 110V-14ZM519
138Q398 235 282 235Q254 235 211 227Q293 119 430 119Q477 119 519 138ZM677 364Q677 474 605 547T422 620Q313 620 240 548T167 369Q167 352 169 334Q218 347 283 347Q371 347 460 309T617 204Q677 266 677 364Z" />
<glyph unicode="R" glyph-name="R" horiz-adv-x="580" d="M568 0H399L205 283V0H68V739H281Q357 739 402 727T483 684Q561 618 561 502Q561 321 368 273L568 0ZM423 498Q423 553 390 580T266 608H205V386H272Q351 386 387 412T423 498Z" />
<glyph unicode="S" glyph-name="S" horiz-adv-x="520" d="M493 224Q493 124 425 56T257 -13Q158 -13 91 47T14 211H157Q166 119 257 119Q301 119 329 144T357 209Q357 258 323 284Q307 296 289 304T195 341Q121 369 81 420T41 542Q41 630 104 691T256 752Q347
752 408 695T475 542H333Q330 580 310 600T255 620Q221 620 200 599T179 545Q179 504 220 478Q231 471 302 445Q410 405 451 354T493 224Z" />
<glyph unicode="T" glyph-name="T" horiz-adv-x="420" d="M418 608H281V0H144V608H7V739H418V608Z" />
<glyph unicode="U" glyph-name="U" horiz-adv-x="640" d="M567 271Q567 133 499 60T317 -13Q205 -13 137 60T68 271V739H205V271Q205 189 233 154T318 119Q373 119 401 153T430 271V739H567V271Z" />
<glyph unicode="V" glyph-name="V" horiz-adv-x="700" d="M694 739L408 0H296L8 739H152L351 177L550 739H694Z" />
<glyph unicode="W" glyph-name="W" horiz-adv-x="900" d="M898 739L682 0H573L454 489L332 0H224L7 739H147L277 223L403 739H503L627 223L758 739H898Z" />
<glyph unicode="X" glyph-name="X" horiz-adv-x="680" d="M676 0H517L340 255L168 0H5L259 368L5 739H168L340 481L517 739H676L420 368L676 0Z" />
<glyph unicode="Y" glyph-name="Y" horiz-adv-x="620" d="M626 739L383 273V0H246V273L3 739H151L315 399L478 739H626Z" />
<glyph unicode="Z" glyph-name="Z" horiz-adv-x="500" d="M480 0H18V116L298 608H33V739H461V616L183 131H480V0Z" />
<glyph unicode="[" glyph-name="bracketleft" horiz-adv-x="320" d="M292 -137Q74 -87 74 187V446Q74 561 124 633T292 739V592Q241 570 225 532T209 419V164Q209 103 226 66T292 10V-137Z" />
<glyph unicode="\" glyph-name="backslash" horiz-adv-x="640" d="M503 0H409L84 739H178L503 0Z" />
<glyph unicode="]" glyph-name="bracketright" horiz-adv-x="320" d="M255 156Q255 41 205 -31T37 -137V10Q88 31 104 70T120 183V438Q120 499 103 535T37 592V739Q255 690 255 415V156Z" />
<glyph unicode="^" glyph-name="asciicircum" horiz-adv-x="600" d="M543 363L439 313L303 589L167 313L63 363L242 739H364L543 363Z" />
<glyph unicode="_" glyph-name="underscore" horiz-adv-x="500" d="M500 -138H0V-48H500V-138Z" />
<glyph unicode="`" glyph-name="grave" horiz-adv-x="420" d="M303 682L252 604L25 724L79 816L303 682Z" />
<glyph unicode="a" glyph-name="a" horiz-adv-x="660" d="M615 0H493V72Q453 27 410 7T309 -13Q188 -13 109 68T30 275Q30 402 109 484T312 567Q427 567 493 480V554H615V0ZM489 273Q489 349 443 397T326 445T210 397T164 272Q164 199 209 154T328 109Q402 109
445 155T489 273Z" />
<glyph unicode="b" glyph-name="b" horiz-adv-x="660" d="M638 281Q638 155 562 71T368 -13Q306 -13 263 6T176 71V0H54V739H187V503Q225 541 265 557T359 574Q478 574 558 490T638 281ZM504 280Q504 354 458 403T340 452Q270 452 225 404T179 281Q179 205 225
157T343 109Q414 109 459 156T504 280Z" />
<glyph unicode="c" glyph-name="c" horiz-adv-x="640" d="M601 182Q566 89 495 38T326 -13Q203 -13 117 71T30 277Q30 399 114 483T322 567Q418 567 493 515T601 369H451Q411 445 322 445Q253 445 209 398T164 278T210 157T325 109Q404 109 451 182H601Z" />
<glyph unicode="d" glyph-name="d" horiz-adv-x="660" d="M613 0H491V72Q416 -13 308 -13Q190 -13 110 71T30 278Q30 402 110 488T307 574Q417 574 480 505V739H613V0ZM490 280Q490 353 443 402T326 452Q258 452 211 404T164 284Q164 210 211 160T329 109Q397
109 443 158T490 280Z" />
<glyph unicode="e" glyph-name="e" horiz-adv-x="640" d="M608 269Q608 242 603 218H174Q186 168 227 139T327 109Q368 109 395 121T449 164H594Q567 82 493 35T330 -13Q203 -13 117 70T30 275T115 482T322 567Q446 567 527 483T608 269ZM477 335Q464 388 425
416T324 445Q203 445 170 335H477Z" />
<glyph unicode="f" glyph-name="f" horiz-adv-x="280" d="M274 611H261Q222 611 207 597T191 544H266V433H191V0H58V433H10V544H58Q78 739 241 739Q258 739 274 737V611Z" />
<glyph unicode="g" glyph-name="g" horiz-adv-x="660" d="M611 105Q611 -221 324 -221Q222 -221 148 -175T39 -45H190Q219 -77 250 -90T329 -104Q477 -104 484 73Q445 27 403 7T302 -13Q183 -13 107 70T30 281Q30 404 107 485T303 567Q423 567 484 484V554H611V105ZM478
275Q478 351 434 398T318 445Q248 445 206 399T164 275Q164 199 206 154T320 109T434 154T478 275Z" />
<glyph unicode="h" glyph-name="h" horiz-adv-x="600" d="M545 0H412V283Q412 370 387 407T304 445Q245 445 216 408T187 281V0H54V739H187V516Q245 568 328 568Q545 568 545 313V0Z" />
<glyph unicode="i" glyph-name="i" horiz-adv-x="240" d="M187 0H54V554H187V0ZM188 634H55V767H188V634Z" />
<glyph unicode="j" glyph-name="j" horiz-adv-x="260" d="M205 37Q205 -72 155 -128T17 -185V-56Q54 -49 63 -34T72 40V554H205V37ZM206 634H73V767H206V634Z" />
<glyph unicode="k" glyph-name="k" horiz-adv-x="580" d="M555 0H376L187 259V0H54V739H187V293L364 554H523L325 283L555 0Z" />
<glyph unicode="l" glyph-name="l" horiz-adv-x="240" d="M187 0H54V739H187V0Z" />
<glyph unicode="m" glyph-name="m" horiz-adv-x="940" d="M885 0H752V304Q752 382 726 413T648 445Q590 445 563 407T536 273V0H403V304Q403 382 377 413T295 445Q236 445 212 408T187 273V0H54V554H176V502Q205 537 238 552T320 567Q429 567 483 481Q548 567
661 567Q885 567 885 320V0Z" />
<glyph unicode="n" glyph-name="n" horiz-adv-x="600" d="M546 0H413V271Q413 375 388 410T307 445Q241 445 209 394Q187 359 187 261V0H54V554H177V501Q246 567 333 567Q451 567 506 487Q528 455 537 413T546 297V0Z" />
<glyph unicode="o" glyph-name="o" horiz-adv-x="640" d="M619 273Q619 156 532 72T324 -13Q202 -13 116 72T30 277Q30 396 116 481T323 567Q448 567 533 482T619 273ZM485 277Q485 346 438 395T324 445Q259 445 212 396T164 279Q164 208 211 159T325 109Q391
109 438 158T485 277Z" />
<glyph unicode="p" glyph-name="p" horiz-adv-x="660" d="M634 279Q634 153 556 70T357 -13Q259 -13 187 52V-185H54V554H176V489Q243 567 358 567Q478 567 556 486T634 279ZM500 276Q500 348 455 396T341 445Q272 445 226 397T179 278Q179 205 225 157T343 109Q409
109 454 157T500 276Z" />
<glyph unicode="q" glyph-name="q" horiz-adv-x="660" d="M611 -185H478V53Q412 -13 311 -13Q192 -13 111 71T30 279Q30 399 111 483T309 567Q427 567 489 483V554H611V-185ZM486 275Q486 348 441 396T328 445Q257 445 211 397T164 276Q164 204 210 157T327 109Q395
109 440 156T486 275Z" />
<glyph unicode="r" glyph-name="r" horiz-adv-x="320" d="M306 439Q187 436 187 308V0H54V554H176V500Q202 538 227 552T296 567H306V439Z" />
<glyph unicode="s" glyph-name="s" horiz-adv-x="440" d="M420 176Q420 97 363 42T222 -13Q137 -13 83 34T19 176H153Q163 141 180 125T227 109Q253 109 270 124T287 163Q287 188 272 200T193 234Q110 262 75 299T39 398Q39 469 92 518T223 567Q296 567 348 522T405
401H275Q266 445 223 445Q201 445 187 432T172 398Q172 376 185 368T266 338Q352 311 386 275T420 176Z" />
<glyph unicode="t" glyph-name="t" horiz-adv-x="300" d="M287 433H207V0H74V433H9V554H74V739H207V554H287V433Z" />
<glyph unicode="u" glyph-name="u" horiz-adv-x="600" d="M547 0H424V53Q387 16 351 2T265 -13Q54 -13 54 257V554H187V283Q187 180 213 145T292 109Q361 109 393 160Q414 195 414 293V554H547V0Z" />
<glyph unicode="v" glyph-name="v" horiz-adv-x="560" d="M553 554L330 0H224L1 554H149L277 187L403 554H553Z" />
<glyph unicode="w" glyph-name="w" horiz-adv-x="800" d="M785 554L585 0H502L397 359L290 0H208L10 554H153L252 216L345 554H451L542 216L643 554H785Z" />
<glyph unicode="x" glyph-name="x" horiz-adv-x="560" d="M553 0H393L277 190L161 0H1L197 286L27 554H177L277 387L375 554H525L356 286L553 0Z" />
<glyph unicode="y" glyph-name="y" horiz-adv-x="580" d="M568 554L248 -185H105L209 52L6 554H158L281 195L415 554H568Z" />
<glyph unicode="z" glyph-name="z" horiz-adv-x="460" d="M442 0H20V119L264 435H48V554H423V435L179 119H442V0Z" />
<glyph unicode="{" glyph-name="braceleft" horiz-adv-x="340" d="M302 -128Q287 -129 261 -129Q185 -129 152 -97T118 10V167Q118 255 37 265V346Q118 356 118 444V601Q118 675 151 707T261 740Q287 740 302 739V659Q249 655 236 638T223 557V434Q223 375 203
347T133 305Q183 293 203 264T223 177V54Q223 -10 236 -27T302 -48V-128Z" />
<glyph unicode="|" glyph-name="bar" horiz-adv-x="600" d="M369 -137H231V739H369V-137Z" />
<glyph unicode="}" glyph-name="braceright" horiz-adv-x="340" d="M303 265Q222 255 222 167V10Q222 -64 189 -96T79 -129Q53 -129 38 -128V-48Q91 -44 104 -27T117 54V177Q117 236 137 264T207 306Q157 318 137 347T117 434V557Q117 621 104 638T38 659V739Q53
740 79 740Q155 740 188 708T222 601V444Q222 356 303 346V265Z" />
<glyph unicode="~" glyph-name="asciitilde" horiz-adv-x="600" d="M555 347Q516 283 484 257T410 230Q377 230 319 254L265 276Q218 295 201 295Q175 295 154 273Q143 262 114 214L51 289Q95 360 123 386T199 412Q238 412 276 396L343 369Q397 347 414 347Q450
347 491 421L555 347Z" />
<glyph unicode="&#xa0;" glyph-name="uni00A0" horiz-adv-x="280" />
<glyph unicode="&#xa1;" glyph-name="exclamdown" horiz-adv-x="280" d="M208 -185H75V366H208V-185ZM208 426H75V554H208V426Z" />
<glyph unicode="&#xa2;" glyph-name="cent" horiz-adv-x="560" d="M511 310Q459 179 343 148V39H218V148Q138 166 89 230T39 381Q39 462 86 526T218 611V715H343V611Q407 595 452 550T511 443H369Q336 489 276 489Q232 489 202 458T172 379T202 301T280 270Q329
270 365 310H511Z" />
<glyph unicode="&#xa3;" glyph-name="sterling" horiz-adv-x="560" d="M563 222Q563 119 488 54Q453 24 412 12T301 0H41V125H180Q200 159 200 198Q200 256 142 310H0V435H58Q41 473 41 516Q41 615 110 683T280 752Q375 752 440 694T514 541H379Q368 584 343 607T281
630Q236 630 205 596T174 511Q174 468 201 435H408V310H301Q333 247 333 200Q333 162 320 125Q373 125 401 151T430 220Q430 242 420 274H552Q563 245 563 222Z" />
<glyph unicode="&#xa5;" glyph-name="yen" horiz-adv-x="560" d="M589 739L446 468H538V380H398L341 275H538V187H341V0H208V187H12V275H208L152 380H12V468H106L-35 739H114L274 398L435 739H589Z" />
<glyph unicode="&#xa7;" glyph-name="section" horiz-adv-x="560" d="M529 292Q529 206 454 150Q504 99 504 31Q504 -52 444 -104T289 -157Q192 -157 130 -102T60 55H194Q194 -35 290 -35Q327 -35 352 -17T377 30Q377 51 363 65T304 103L141 187Q40 239 40 347Q40
435 118 493Q90 536 90 586Q90 659 146 705T291 752T432 704T497 563H371Q358 630 285 630Q254 630 236 617T217 582Q217 541 278 512L442 431Q482 411 505 374T529 292ZM405 278Q405 296 393 308T345 339L196 413Q157 382 157 354Q157 322 217 291L368 215Q405
241 405 278Z" />
<glyph unicode="&#xa8;" glyph-name="dieresis" horiz-adv-x="500" d="M207 634H74V767H207V634ZM417 634H284V767H417V634Z" />
<glyph unicode="&#xa9;" glyph-name="copyright" horiz-adv-x="740" d="M720 482T720 337T618 90T370 -13T123 89T20 337T122 584T370 687T617 585ZM660 217T660 337T575 542T370 627T165 542T80 337T165 132T370 47T575 132ZM587 407H482Q444 454 377 454Q322
454 286 421T249 338Q249 289 287 255T378 220Q432 220 478 265H586Q564 204 508 168T380 131Q285 131 219 192T152 339Q152 423 217 483T375 543Q447 543 504 507T587 407Z" />
<glyph unicode="&#xaa;" glyph-name="ordfeminine" horiz-adv-x="360" d="M338 441H272V482Q233 431 170 431Q110 431 69 477T28 592Q28 658 71 704T175 750Q233 750 272 700V739H338V441ZM266 555T266 591T243 651T185 676T128 651T104 589Q104 554 127 530T185
505T242 530ZM342 310H31V380H342V310Z" />
<glyph unicode="&#xab;" glyph-name="guillemotleft" horiz-adv-x="460" d="M388 108L249 239V339L388 469V346L321 289L388 231V108ZM175 108L36 239V339L175 469V346L108 289L175 231V108Z" />
<glyph unicode="&#xac;" glyph-name="logicalnot" horiz-adv-x="600" d="M546 158H408V273H54V411H546V158Z" />
<glyph unicode="&#xae;" glyph-name="registered" horiz-adv-x="740" d="M720 482T720 337T618 90T370 -13T123 89T20 337T122 584T370 687T617 585ZM660 217T660 337T575 542T370 627T165 542T80 337T165 132T370 47T575 132ZM526 138H405L310 264V138H214V537H343Q424
537 462 507Q510 470 510 405Q510 311 410 282L526 138ZM423 403Q423 431 405 445T335 459H301V346H338Q383 346 403 359T423 403Z" />
<glyph unicode="&#xaf;" glyph-name="overscore" horiz-adv-x="420" d="M351 650H74V750H351V650Z" />
<glyph unicode="&#xb0;" glyph-name="degree" horiz-adv-x="400" d="M350 597T350 533T307 425T200 380T94 424T50 534Q50 598 94 642T204 686Q266 686 308 642ZM293 493T293 533T267 601T202 629Q162 629 134 601T106 533T134 465T200 437Q239 437 266 465Z" />
<glyph unicode="&#xb1;" glyph-name="plusminus" horiz-adv-x="600" d="M546 319H369V262H231V319H54V457H231V634H369V457H546V319ZM546 0H54V138H546V0Z" />
<glyph unicode="&#xb4;" glyph-name="acute" horiz-adv-x="420" d="M395 724L168 604L117 682L341 816L395 724Z" />
<glyph unicode="&#xb5;" glyph-name="mu" horiz-adv-x="576" d="M523 0H401V59Q361 -18 270 -18Q231 -18 187 1V-185H54V554H187V282Q187 247 190 221T204 168T235 127T289 112T342 126T373 168T386 221T390 282V554H523V0Z" />
<glyph unicode="&#xb6;" glyph-name="paragraph" horiz-adv-x="600" d="M527 -128H426V632H342V-128H241V330Q150 331 94 387T37 533Q37 635 102 687T309 739H527V-128Z" />
<glyph unicode="&#xb7;" glyph-name="middot" horiz-adv-x="280" d="M204 276T204 250T185 205T140 186T95 205T76 250T95 295T140 314T185 295Z" />
<glyph unicode="&#xb8;" glyph-name="cedilla" horiz-adv-x="340" d="M270 -152Q270 -196 244 -223T174 -250Q136 -250 108 -227T74 -166H135Q148 -195 173 -195Q189 -195 200 -182T212 -150Q212 -132 201 -119T173 -106Q154 -106 135 -133L83 -107L129 5H181L150
-58Q168 -51 179 -51Q216 -51 243 -81T270 -152Z" />
<glyph unicode="&#xba;" glyph-name="ordmasculine" horiz-adv-x="360" d="M338 660T338 596T293 487T184 442Q121 442 76 488T31 599Q31 661 76 705T185 750Q249 750 293 705ZM265 597Q265 631 241 655T185 680Q152 680 128 656T104 599Q104 563 126 540T184
516Q218 516 241 539T265 597ZM338 311H31V381H338V311Z" />
<glyph unicode="&#xbb;" glyph-name="guillemotright" horiz-adv-x="460" d="M212 239L73 108V231L140 289L73 346V469L212 339V239ZM425 239L286 108V231L353 289L286 346V469L425 339V239Z" />
<glyph unicode="&#xbf;" glyph-name="questiondown" horiz-adv-x="560" d="M528 34Q519 -78 456 -138T300 -198Q204 -198 140 -133T75 31Q75 81 97 120T177 210Q218 246 229 274T242 367H375Q375 273 352 223T253 112Q208 74 208 27Q208 -13 235 -39T303 -66Q382
-66 395 34H528ZM375 426H242V554H375V426Z" />
<glyph unicode="&#xc0;" glyph-name="Agrave" horiz-adv-x="740" d="M733 0H582L503 191H240L158 0H7L315 739H423L733 0ZM448 322L369 546L290 322H448ZM462 857L411 779L184 899L238 991L462 857Z" />
<glyph unicode="&#xc1;" glyph-name="Aacute" horiz-adv-x="740" d="M733 0H582L503 191H240L158 0H7L315 739H423L733 0ZM448 322L369 546L290 322H448ZM554 899L327 779L276 857L500 991L554 899Z" />
<glyph unicode="&#xc2;" glyph-name="Acircumflex" horiz-adv-x="740" d="M733 0H582L503 191H240L158 0H7L315 739H423L733 0ZM448 322L369 546L290 322H448ZM569 806H424L371 870L317 806H170L317 944H424L569 806Z" />
<glyph unicode="&#xc3;" glyph-name="Atilde" horiz-adv-x="740" d="M733 0H582L503 191H240L158 0H7L315 739H423L733 0ZM448 322L369 546L290 322H448ZM534 862Q489 807 440 807Q427 807 382 819T327 832Q309 832 298 828T257 807L203 887Q229 913 252 923T306
934Q318 934 358 922T413 909Q450 909 480 943L534 862Z" />
<glyph unicode="&#xc4;" glyph-name="Adieresis" horiz-adv-x="740" d="M733 0H582L503 191H240L158 0H7L315 739H423L733 0ZM448 322L369 546L290 322H448ZM326 809H193V942H326V809ZM536 809H403V942H536V809Z" />
<glyph unicode="&#xc5;" glyph-name="Aring" horiz-adv-x="740" d="M733 0H582L503 191H240L158 0H7L315 739H423L733 0ZM448 322L369 546L290 322H448ZM482 935T482 888T449 808T369 775T289 808T256 888T289 968T370 1001Q416 1001 449 968ZM409 872T409 888T398
916T369 928T341 916T329 888T340 860T369 848T397 860Z" />
<glyph unicode="&#xc6;" glyph-name="AE" horiz-adv-x="900" d="M843 0H488V191H294L182 0H17L504 739H843V608H625V434H832V303H625V131H843V0ZM488 322V513L373 322H488Z" />
<glyph unicode="&#xc7;" glyph-name="Ccedilla" horiz-adv-x="780" d="M760 206Q718 108 630 50T432 -13L410 -58Q428 -51 439 -51Q476 -51 503 -81T530 -152Q530 -196 504 -223T434 -250Q396 -250 368 -227T334 -166H395Q408 -195 433 -195Q449 -195 460 -182T472
-150Q472 -132 461 -119T433 -106Q414 -106 395 -133L343 -107L382 -11Q233 3 132 112T30 372Q30 529 141 640T410 752Q525 752 618 693T760 527H607Q569 576 523 598T413 620Q308 620 238 548T168 371Q168 267 241 193T416 119Q470 119 512 139T599 206H760Z"
/>
<glyph unicode="&#xc8;" glyph-name="Egrave" horiz-adv-x="520" d="M465 0H68V739H465V608H205V434H454V303H205V131H465V0ZM360 857L309 779L82 899L136 991L360 857Z" />
<glyph unicode="&#xc9;" glyph-name="Eacute" horiz-adv-x="520" d="M465 0H68V739H465V608H205V434H454V303H205V131H465V0ZM452 899L225 779L174 857L398 991L452 899Z" />
<glyph unicode="&#xca;" glyph-name="Ecircumflex" horiz-adv-x="520" d="M465 0H68V739H465V608H205V434H454V303H205V131H465V0ZM467 806H322L269 870L215 806H68L215 944H322L467 806Z" />
<glyph unicode="&#xcb;" glyph-name="Edieresis" horiz-adv-x="520" d="M465 0H68V739H465V608H205V434H454V303H205V131H465V0ZM224 809H91V942H224V809ZM434 809H301V942H434V809Z" />
<glyph unicode="&#xcc;" glyph-name="Igrave" horiz-adv-x="280" d="M205 0H68V739H205V0ZM256 857L205 779L-22 899L32 991L256 857Z" />
<glyph unicode="&#xcd;" glyph-name="Iacute" horiz-adv-x="280" d="M205 0H68V739H205V0ZM295 899L68 779L17 857L241 991L295 899Z" />
<glyph unicode="&#xce;" glyph-name="Icircumflex" horiz-adv-x="280" d="M205 0H68V739H205V0ZM337 806H192L139 870L85 806H-62L85 944H192L337 806Z" />
<glyph unicode="&#xcf;" glyph-name="Idieresis" horiz-adv-x="280" d="M205 0H68V739H205V0ZM94 809H-39V942H94V809ZM304 809H171V942H304V809Z" />
<glyph unicode="&#xd1;" glyph-name="Ntilde" horiz-adv-x="740" d="M667 0H514L205 537V0H68V739H224L530 201V739H667V0ZM533 862Q488 807 439 807Q426 807 381 819T326 832Q308 832 297 828T256 807L202 887Q228 913 251 923T305 934Q317 934 357 922T412 909Q449
909 479 943L533 862Z" />
<glyph unicode="&#xd2;" glyph-name="Ograve" horiz-adv-x="840" d="M800 370Q800 208 690 98T419 -13Q256 -13 143 98T30 369Q30 531 142 641T420 752Q578 752 689 640T800 370ZM662 368Q662 474 592 547T418 620Q311 620 240 548T168 369Q168 264 240 192T418
119T592 190T662 368ZM513 857L462 779L235 899L289 991L513 857Z" />
<glyph unicode="&#xd3;" glyph-name="Oacute" horiz-adv-x="840" d="M800 370Q800 208 690 98T419 -13Q256 -13 143 98T30 369Q30 531 142 641T420 752Q578 752 689 640T800 370ZM662 368Q662 474 592 547T418 620Q311 620 240 548T168 369Q168 264 240 192T418
119T592 190T662 368ZM605 899L378 779L327 857L551 991L605 899Z" />
<glyph unicode="&#xd4;" glyph-name="Ocircumflex" horiz-adv-x="840" d="M800 370Q800 208 690 98T419 -13Q256 -13 143 98T30 369Q30 531 142 641T420 752Q578 752 689 640T800 370ZM662 368Q662 474 592 547T418 620Q311 620 240 548T168 369Q168 264 240 192T418
119T592 190T662 368ZM620 806H475L422 870L368 806H221L368 944H475L620 806Z" />
<glyph unicode="&#xd5;" glyph-name="Otilde" horiz-adv-x="840" d="M800 370Q800 208 690 98T419 -13Q256 -13 143 98T30 369Q30 531 142 641T420 752Q578 752 689 640T800 370ZM662 368Q662 474 592 547T418 620Q311 620 240 548T168 369Q168 264 240 192T418
119T592 190T662 368ZM585 862Q540 807 491 807Q478 807 433 819T378 832Q360 832 349 828T308 807L254 887Q280 913 303 923T357 934Q369 934 409 922T464 909Q501 909 531 943L585 862Z" />
<glyph unicode="&#xd6;" glyph-name="Odieresis" horiz-adv-x="840" d="M800 370Q800 208 690 98T419 -13Q256 -13 143 98T30 369Q30 531 142 641T420 752Q578 752 689 640T800 370ZM662 368Q662 474 592 547T418 620Q311 620 240 548T168 369Q168 264 240 192T418
119T592 190T662 368ZM377 809H244V942H377V809ZM587 809H454V942H587V809Z" />
<glyph unicode="&#xd8;" glyph-name="Oslash" horiz-adv-x="840" d="M803 370Q803 208 693 98T421 -13Q332 -13 253 23L193 -65L97 0L156 87Q96 141 63 215T30 370Q30 529 142 640T416 752Q501 752 581 717L643 809L738 743L677 653Q803 538 803 370ZM665 368Q665
465 601 540L329 135Q374 119 420 119Q525 119 595 190T665 368ZM505 605Q462 620 416 620Q312 620 240 548T168 370Q168 275 233 201L505 605Z" />
<glyph unicode="&#xd9;" glyph-name="Ugrave" horiz-adv-x="640" d="M567 271Q567 133 499 60T317 -13Q205 -13 137 60T68 271V739H205V271Q205 189 233 154T318 119Q373 119 401 153T430 271V739H567V271ZM411 857L360 779L133 899L187 991L411 857Z" />
<glyph unicode="&#xda;" glyph-name="Uacute" horiz-adv-x="640" d="M567 271Q567 133 499 60T317 -13Q205 -13 137 60T68 271V739H205V271Q205 189 233 154T318 119Q373 119 401 153T430 271V739H567V271ZM503 899L276 779L225 857L449 991L503 899Z" />
<glyph unicode="&#xdb;" glyph-name="Ucircumflex" horiz-adv-x="640" d="M567 271Q567 133 499 60T317 -13Q205 -13 137 60T68 271V739H205V271Q205 189 233 154T318 119Q373 119 401 153T430 271V739H567V271ZM518 806H373L320 870L266 806H119L266 944H373L518 806Z" />
<glyph unicode="&#xdc;" glyph-name="Udieresis" horiz-adv-x="640" d="M567 271Q567 133 499 60T317 -13Q205 -13 137 60T68 271V739H205V271Q205 189 233 154T318 119Q373 119 401 153T430 271V739H567V271ZM275 809H142V942H275V809ZM485 809H352V942H485V809Z" />
<glyph unicode="&#xdf;" glyph-name="germandbls" horiz-adv-x="600" d="M584 216Q584 115 519 51T350 -13Q229 -13 173 79V0H51V487Q51 611 110 681T272 752Q364 752 427 693T490 546Q490 450 415 408Q499 388 541 338T584 216ZM450 205Q450 262 410 288T266
315H255V433H266Q305 433 330 462T356 536Q356 579 333 604T271 630Q184 630 184 503V189H266Q273 155 299 132T359 109Q398 109 424 136T450 205Z" />
<glyph unicode="&#xe0;" glyph-name="agrave" horiz-adv-x="660" d="M615 0H493V72Q453 27 410 7T309 -13Q188 -13 109 68T30 275Q30 402 109 484T312 567Q427 567 493 480V554H615V0ZM489 273Q489 349 443 397T326 445T210 397T164 272Q164 199 209 154T328 109Q402
109 445 155T489 273ZM423 682L372 604L145 724L199 816L423 682Z" />
<glyph unicode="&#xe1;" glyph-name="aacute" horiz-adv-x="660" d="M615 0H493V72Q453 27 410 7T309 -13Q188 -13 109 68T30 275Q30 402 109 484T312 567Q427 567 493 480V554H615V0ZM489 273Q489 349 443 397T326 445T210 397T164 272Q164 199 209 154T328 109Q402
109 445 155T489 273ZM515 724L288 604L237 682L461 816L515 724Z" />
<glyph unicode="&#xe2;" glyph-name="acircumflex" horiz-adv-x="660" d="M615 0H493V72Q453 27 410 7T309 -13Q188 -13 109 68T30 275Q30 402 109 484T312 567Q427 567 493 480V554H615V0ZM489 273Q489 349 443 397T326 445T210 397T164 272Q164 199 209 154T328
109Q402 109 445 155T489 273ZM530 631H385L332 695L278 631H131L278 769H385L530 631Z" />
<glyph unicode="&#xe3;" glyph-name="atilde" horiz-adv-x="660" d="M615 0H493V72Q453 27 410 7T309 -13Q188 -13 109 68T30 275Q30 402 109 484T312 567Q427 567 493 480V554H615V0ZM489 273Q489 349 443 397T326 445T210 397T164 272Q164 199 209 154T328 109Q402
109 445 155T489 273ZM495 687Q450 632 401 632Q388 632 343 644T288 657Q270 657 259 653T218 632L164 712Q190 738 213 748T267 759Q279 759 319 747T374 734Q411 734 441 768L495 687Z" />
<glyph unicode="&#xe4;" glyph-name="adieresis" horiz-adv-x="660" d="M615 0H493V72Q453 27 410 7T309 -13Q188 -13 109 68T30 275Q30 402 109 484T312 567Q427 567 493 480V554H615V0ZM489 273Q489 349 443 397T326 445T210 397T164 272Q164 199 209 154T328
109Q402 109 445 155T489 273ZM287 634H154V767H287V634ZM497 634H364V767H497V634Z" />
<glyph unicode="&#xe5;" glyph-name="aring" horiz-adv-x="660" d="M615 0H493V72Q453 27 410 7T309 -13Q188 -13 109 68T30 275Q30 402 109 484T312 567Q427 567 493 480V554H615V0ZM489 273Q489 349 443 397T326 445T210 397T164 272Q164 199 209 154T328 109Q402
109 445 155T489 273ZM443 757T443 710T410 630T330 597T250 630T217 710T250 790T331 823Q377 823 410 790ZM370 694T370 710T358 738T330 750T302 738T290 710T302 682T330 670T358 682Z" />
<glyph unicode="&#xe6;" glyph-name="ae" horiz-adv-x="1080" d="M1051 288Q1051 258 1042 219H614Q631 167 672 138T770 109Q841 109 887 164H1032Q1007 88 934 38T776 -13Q670 -13 607 60V0H485V60Q451 20 414 4T320 -13Q195 -13 113 69T30 275T113 483T318
567Q420 567 485 499V554H607V499Q674 567 774 567Q890 567 970 486T1051 288ZM481 276Q481 348 436 396T323 445T210 397T164 280Q164 206 209 158T325 109Q392 109 436 157T481 276ZM911 337Q882 445 761 445Q645 445 607 337H911Z" />
<glyph unicode="&#xe7;" glyph-name="ccedilla" horiz-adv-x="640" d="M601 182Q568 93 501 43T342 -13L320 -58Q338 -51 349 -51Q386 -51 413 -81T440 -152Q440 -196 414 -223T344 -250Q306 -250 278 -227T244 -166H305Q318 -195 343 -195Q359 -195 370 -182T382
-150Q382 -132 371 -119T343 -106Q324 -106 305 -133L253 -107L292 -11Q180 1 105 83T30 277Q30 399 114 483T322 567Q418 567 493 515T601 369H451Q411 445 322 445Q253 445 209 398T164 278T210 157T325 109Q404 109 451 182H601Z" />
<glyph unicode="&#xe8;" glyph-name="egrave" horiz-adv-x="640" d="M608 269Q608 242 603 218H174Q186 168 227 139T327 109Q368 109 395 121T449 164H594Q567 82 493 35T330 -13Q203 -13 117 70T30 275T115 482T322 567Q446 567 527 483T608 269ZM477 335Q464
388 425 416T324 445Q203 445 170 335H477ZM415 682L364 604L137 724L191 816L415 682Z" />
<glyph unicode="&#xe9;" glyph-name="eacute" horiz-adv-x="640" d="M608 269Q608 242 603 218H174Q186 168 227 139T327 109Q368 109 395 121T449 164H594Q567 82 493 35T330 -13Q203 -13 117 70T30 275T115 482T322 567Q446 567 527 483T608 269ZM477 335Q464
388 425 416T324 445Q203 445 170 335H477ZM507 724L280 604L229 682L453 816L507 724Z" />
<glyph unicode="&#xea;" glyph-name="ecircumflex" horiz-adv-x="640" d="M608 269Q608 242 603 218H174Q186 168 227 139T327 109Q368 109 395 121T449 164H594Q567 82 493 35T330 -13Q203 -13 117 70T30 275T115 482T322 567Q446 567 527 483T608 269ZM477 335Q464
388 425 416T324 445Q203 445 170 335H477ZM522 631H377L324 695L270 631H123L270 769H377L522 631Z" />
<glyph unicode="&#xeb;" glyph-name="edieresis" horiz-adv-x="640" d="M608 269Q608 242 603 218H174Q186 168 227 139T327 109Q368 109 395 121T449 164H594Q567 82 493 35T330 -13Q203 -13 117 70T30 275T115 482T322 567Q446 567 527 483T608 269ZM477 335Q464
388 425 416T324 445Q203 445 170 335H477ZM279 634H146V767H279V634ZM489 634H356V767H489V634Z" />
<glyph unicode="&#xec;" glyph-name="igrave" horiz-adv-x="240" d="M187 0H54V554H187V0ZM238 682L187 604L-40 724L14 816L238 682Z" />
<glyph unicode="&#xed;" glyph-name="iacute" horiz-adv-x="240" d="M187 0H54V554H187V0ZM281 724L54 604L3 682L227 816L281 724Z" />
<glyph unicode="&#xee;" glyph-name="icircumflex" horiz-adv-x="240" d="M187 0H54V554H187V0ZM321 631H176L123 695L69 631H-78L69 769H176L321 631Z" />
<glyph unicode="&#xef;" glyph-name="idieresis" horiz-adv-x="240" d="M187 0H54V554H187V0ZM78 634H-55V767H78V634ZM288 634H155V767H288V634Z" />
<glyph unicode="&#xf1;" glyph-name="ntilde" horiz-adv-x="600" d="M546 0H413V271Q413 375 388 410T307 445Q241 445 209 394Q187 359 187 261V0H54V554H177V501Q246 567 333 567Q451 567 506 487Q528 455 537 413T546 297V0ZM465 687Q420 632 371 632Q358 632
313 644T258 657Q240 657 229 653T188 632L134 712Q160 738 183 748T237 759Q249 759 289 747T344 734Q381 734 411 768L465 687Z" />
<glyph unicode="&#xf2;" glyph-name="ograve" horiz-adv-x="640" d="M619 273Q619 156 532 72T324 -13Q202 -13 116 72T30 277Q30 396 116 481T323 567Q448 567 533 482T619 273ZM485 277Q485 346 438 395T324 445Q259 445 212 396T164 279Q164 208 211 159T325
109Q391 109 438 158T485 277ZM416 682L365 604L138 724L192 816L416 682Z" />
<glyph unicode="&#xf3;" glyph-name="oacute" horiz-adv-x="640" d="M619 273Q619 156 532 72T324 -13Q202 -13 116 72T30 277Q30 396 116 481T323 567Q448 567 533 482T619 273ZM485 277Q485 346 438 395T324 445Q259 445 212 396T164 279Q164 208 211 159T325
109Q391 109 438 158T485 277ZM508 724L281 604L230 682L454 816L508 724Z" />
<glyph unicode="&#xf4;" glyph-name="ocircumflex" horiz-adv-x="640" d="M619 273Q619 156 532 72T324 -13Q202 -13 116 72T30 277Q30 396 116 481T323 567Q448 567 533 482T619 273ZM485 277Q485 346 438 395T324 445Q259 445 212 396T164 279Q164 208 211 159T325
109Q391 109 438 158T485 277ZM523 631H378L325 695L271 631H124L271 769H378L523 631Z" />
<glyph unicode="&#xf5;" glyph-name="otilde" horiz-adv-x="640" d="M619 273Q619 156 532 72T324 -13Q202 -13 116 72T30 277Q30 396 116 481T323 567Q448 567 533 482T619 273ZM485 277Q485 346 438 395T324 445Q259 445 212 396T164 279Q164 208 211 159T325
109Q391 109 438 158T485 277ZM488 687Q443 632 394 632Q381 632 336 644T281 657Q263 657 252 653T211 632L157 712Q183 738 206 748T260 759Q272 759 312 747T367 734Q404 734 434 768L488 687Z" />
<glyph unicode="&#xf6;" glyph-name="odieresis" horiz-adv-x="640" d="M619 273Q619 156 532 72T324 -13Q202 -13 116 72T30 277Q30 396 116 481T323 567Q448 567 533 482T619 273ZM485 277Q485 346 438 395T324 445Q259 445 212 396T164 279Q164 208 211 159T325
109Q391 109 438 158T485 277ZM280 634H147V767H280V634ZM490 634H357V767H490V634Z" />
<glyph unicode="&#xf7;" glyph-name="divide" horiz-adv-x="600" d="M546 181H54V319H546V181ZM364 435Q364 408 345 390T300 371T255 389T236 435Q236 461 255 480T300 499T345 480T364 435ZM364 65Q364 39 345 20T300 1T255 20T236 65Q236 92 255 110T300 129T345
111T364 65Z" />
<glyph unicode="&#xf8;" glyph-name="oslash" horiz-adv-x="660" d="M620 277Q620 157 534 72T326 -13Q260 -13 200 15L144 -67L59 -10L116 74Q30 155 30 277Q30 397 117 482T326 567Q382 567 435 546L487 623L573 565L523 492Q620 403 620 277ZM363 440Q344 445
325 445Q259 445 212 396T164 278Q164 228 191 185L363 440ZM486 276Q486 335 450 383L271 119Q298 109 325 109Q392 109 439 158T486 276Z" />
<glyph unicode="&#xf9;" glyph-name="ugrave" horiz-adv-x="600" d="M547 0H424V53Q387 16 351 2T265 -13Q54 -13 54 257V554H187V283Q187 180 213 145T292 109Q361 109 393 160Q414 195 414 293V554H547V0ZM394 682L343 604L116 724L170 816L394 682Z" />
<glyph unicode="&#xfa;" glyph-name="uacute" horiz-adv-x="600" d="M547 0H424V53Q387 16 351 2T265 -13Q54 -13 54 257V554H187V283Q187 180 213 145T292 109Q361 109 393 160Q414 195 414 293V554H547V0ZM486 724L259 604L208 682L432 816L486 724Z" />
<glyph unicode="&#xfb;" glyph-name="ucircumflex" horiz-adv-x="600" d="M547 0H424V53Q387 16 351 2T265 -13Q54 -13 54 257V554H187V283Q187 180 213 145T292 109Q361 109 393 160Q414 195 414 293V554H547V0ZM501 631H356L303 695L249 631H102L249 769H356L501 631Z" />
<glyph unicode="&#xfc;" glyph-name="udieresis" horiz-adv-x="600" d="M547 0H424V53Q387 16 351 2T265 -13Q54 -13 54 257V554H187V283Q187 180 213 145T292 109Q361 109 393 160Q414 195 414 293V554H547V0ZM258 634H125V767H258V634ZM468 634H335V767H468V634Z" />
<glyph unicode="&#xff;" glyph-name="ydieresis" horiz-adv-x="580" d="M568 554L248 -185H105L209 52L6 554H158L281 195L415 554H568ZM244 634H111V767H244V634ZM454 634H321V767H454V634Z" />
<glyph unicode="&#x131;" glyph-name="dotlessi" horiz-adv-x="240" d="M187 0H54V554H187V0Z" />
<glyph unicode="&#x152;" glyph-name="OE" horiz-adv-x="1060" d="M1004 0H647V81Q562 -13 418 -13Q256 -13 147 96T38 369Q38 533 145 642T413 752Q564 752 647 657V739H1004V608H786V434H993V303H786V131H1004V0ZM652 260T652 368T585 548T415 620Q311 620 244
546T176 365Q176 261 245 190T416 119Q519 119 585 189Z" />
<glyph unicode="&#x153;" glyph-name="oe" horiz-adv-x="1080" d="M1048 284Q1048 252 1043 218H614Q631 168 671 139T767 109Q801 109 834 124T888 163H1030Q1001 83 930 35T768 -13Q622 -13 543 100Q465 -13 324 -13Q198 -13 114 70T30 277Q30 398 114 482T320
567Q456 567 543 456Q591 515 643 541T762 567Q887 567 967 486T1048 284ZM486 276Q486 348 440 396T325 445Q258 445 211 397T164 281Q164 207 211 158T329 109Q396 109 441 157T486 276ZM910 335Q878 445 760 445Q646 445 608 335H910Z" />
<glyph unicode="&#x178;" glyph-name="Ydieresis" horiz-adv-x="620" d="M626 739L383 273V0H246V273L3 739H151L315 399L478 739H626ZM272 809H139V942H272V809ZM482 809H349V942H482V809Z" />
<glyph unicode="&#x192;" glyph-name="florin" horiz-adv-x="560" d="M494 820L474 703H465Q420 703 399 677T364 585H456L437 470H344L282 106Q267 21 252 -19T207 -87Q142 -149 42 -149Q14 -149 -17 -142L3 -26Q23 -30 36 -30Q91 -30 116 -1T158 128L218 470H124L143
585H237L242 611Q255 669 265 694T297 747Q359 823 465 823Q478 823 494 820Z" />
<glyph unicode="&#x2c6;" glyph-name="circumflex" horiz-adv-x="540" d="M470 631H325L272 695L218 631H71L218 769H325L470 631Z" />
<glyph unicode="&#x2c7;" glyph-name="caron" horiz-adv-x="540" d="M470 769L323 631H216L71 769H216L269 705L323 769H470Z" />
<glyph unicode="&#x2d8;" glyph-name="breve" horiz-adv-x="480" d="M404 770Q402 708 357 670T240 631Q166 631 122 667T74 770H172Q190 727 240 727Q294 727 302 770H404Z" />
<glyph unicode="&#x2d9;" glyph-name="dotaccent" horiz-adv-x="280" d="M207 634H74V767H207V634Z" />
<glyph unicode="&#x2da;" glyph-name="ring" horiz-adv-x="360" d="M293 757T293 710T260 630T180 597T100 630T67 710T100 790T181 823Q227 823 260 790ZM220 694T220 710T208 738T180 750T152 738T140 710T152 682T180 670T208 682Z" />
<glyph unicode="&#x2db;" glyph-name="ogonek" horiz-adv-x="340" d="M276 -231Q229 -250 200 -250Q147 -250 111 -218T74 -135Q74 -63 154 0H276Q230 -15 205 -41T180 -91Q180 -119 188 -131T218 -144Q246 -144 276 -131V-231Z" />
<glyph unicode="&#x2dc;" glyph-name="tilde" horiz-adv-x="480" d="M405 687Q360 632 311 632Q298 632 253 644T198 657Q180 657 169 653T128 632L74 712Q100 738 123 748T177 759Q189 759 229 747T284 734Q321 734 351 768L405 687Z" />
<glyph unicode="&#x2dd;" glyph-name="hungarumlaut" horiz-adv-x="700" d="M436 726L214 594L164 663L374 806L436 726ZM699 726L478 594L427 663L638 806L699 726Z" />
<glyph unicode="&#x3a9;" glyph-name="Omega" horiz-adv-x="771" d="M748 339Q748 278 729 223T673 137H732V-1H483L468 134Q529 161 568 215T608 339Q608 432 542 497Q478 559 392 562L393 560Q292 560 227 496T161 338Q161 268 200 215T301 134L286 -1H33V137H95Q59
167 40 221T20 338Q20 488 127 592Q234 697 384 697Q535 697 641 593Q748 489 748 339Z" />
<glyph unicode="&#x3c0;" glyph-name="pi" horiz-adv-x="708" d="M654 416H576V0H438V416H378V0H240V416H227Q211 416 202 402T192 369H54Q54 445 104 499T227 554H654V416Z" />
<glyph unicode="&#x2013;" glyph-name="endash" horiz-adv-x="500" d="M500 229H0V347H500V229Z" />
<glyph unicode="&#x2014;" glyph-name="emdash" horiz-adv-x="1000" d="M1000 229H0V347H1000V229Z" />
<glyph unicode="&#x2018;" glyph-name="quoteleft" horiz-adv-x="280" d="M205 466H72V606Q72 666 108 702T205 739V672Q173 666 160 653T146 615Q146 605 147 599H205V466Z" />
<glyph unicode="&#x2019;" glyph-name="quoteright" horiz-adv-x="280" d="M205 599Q205 539 171 503T72 466V533Q104 539 117 553T131 593Q131 604 130 611H72V739H205V599Z" />
<glyph unicode="&#x201a;" glyph-name="quotesinglbase" horiz-adv-x="280" d="M203 -7Q203 -67 169 -103T70 -140V-73Q102 -67 115 -54T129 -17Q129 -6 128 0H70V128H203V-7Z" />
<glyph unicode="&#x201c;" glyph-name="quotedblleft" horiz-adv-x="480" d="M203 466H70V606Q70 666 106 702T203 739V672Q171 666 158 653T144 614Q144 605 145 599H203V466ZM410 466H277V606Q277 666 313 702T410 739V672Q378 666 365 653T351 616Q351 605
352 599H410V466Z" />
<glyph unicode="&#x201d;" glyph-name="quotedblright" horiz-adv-x="480" d="M203 599Q203 539 168 503T70 466V533Q101 539 115 553T129 593Q129 604 128 611H70V739H203V599ZM410 599Q410 539 375 503T277 466V533Q309 539 322 553T336 593Q336 604 335 611H277V739H410V599Z"
/>
<glyph unicode="&#x201e;" glyph-name="quotedblbase" horiz-adv-x="480" d="M203 -7Q203 -67 169 -103T70 -140V-73Q102 -67 115 -54T129 -17Q129 -6 128 0H70V128H203V-7ZM410 -7Q410 -67 375 -103T277 -140V-73Q309 -67 322 -54T336 -17Q336 -6 335 0H277V128H410V-7Z" />
<glyph unicode="&#x2020;" glyph-name="dagger" horiz-adv-x="560" d="M505 436H344V-128H211V436H48V554H211V739H344V554H505V436Z" />
<glyph unicode="&#x2021;" glyph-name="daggerdbl" horiz-adv-x="560" d="M505 260H343V-128H210V260H48V378H210V473H48V591H210V739H343V591H505V473H343V378H505V260Z" />
<glyph unicode="&#x2022;" glyph-name="bullet" horiz-adv-x="600" d="M471 316Q471 245 422 196T300 147Q232 147 183 197T134 316T183 434T302 484Q372 484 421 435T471 316Z" />
<glyph unicode="&#x2026;" glyph-name="ellipsis" horiz-adv-x="1000" d="M233 0H100V128H233V0ZM565 0H432V128H565V0ZM899 0H765V128H899V0Z" />
<glyph unicode="&#x2030;" glyph-name="perthousand" horiz-adv-x="1280" d="M631 739L325 0H223L528 739H631ZM1248 168Q1248 93 1195 40T1067 -13T939 40T886 167Q886 243 939 295T1068 348Q1142 348 1195 295T1248 168ZM1141 138T1141 168T1119 220T1067 242T1016
221T994 168T1015 116T1067 94T1119 116ZM835 168Q835 93 782 40T654 -13T526 40T473 167Q473 243 526 295T655 348Q728 348 781 295T835 168ZM728 138T728 168T706 220T654 242T603 221T581 168T602 116T654 94T706 116ZM383 572Q383 497 330 444T202 391T74 444T21
571Q21 647 74 699T203 752Q276 752 329 699T383 572ZM276 542T276 572T254 624T202 646T151 625T129 572T150 520T202 498T254 520Z" />
<glyph unicode="&#x2039;" glyph-name="guilsinglleft" horiz-adv-x="240" d="M175 108L36 239V339L175 469V346L108 289L175 231V108Z" />
<glyph unicode="&#x203a;" glyph-name="guilsinglright" horiz-adv-x="240" d="M212 239L73 108V231L140 289L73 346V469L212 339V239Z" />
<glyph unicode="&#x2044;" glyph-name="fraction" horiz-adv-x="160" d="M280 739L-26 0H-121L185 739H280Z" />
<glyph unicode="&#x20ac;" glyph-name="Euro" horiz-adv-x="560" d="M595 684L556 581Q458 639 373 639Q305 639 265 602T202 481H517L484 393H195V348H467L433 260H200Q218 187 264 146T379 105Q428 105 525 145V22Q444 -11 365 -11Q272 -11 200 35Q148 66 119
117T69 260H-32L-8 348H61V367Q61 382 62 393H-33L-9 481H70Q103 623 177 686T376 750Q438 750 485 736T595 684Z" />
<glyph unicode="&#x2122;" glyph-name="trademark" horiz-adv-x="1000" d="M349 643H258V307H145V643H54V739H349V643ZM946 739V307H833V570L723 307H635L525 570V307H412V739H555L680 446L803 739H946Z" />
<glyph unicode="&#x2202;" glyph-name="partialdiff" horiz-adv-x="494" d="M471 470T471 370T440 184T346 41T198 -16Q123 -16 73 43T23 185Q23 285 79 359T224 434Q281 434 332 413Q324 652 198 652Q182 652 143 611L41 705Q89 755 198 755Q282 755 345 699T440
557ZM331 296Q282 331 224 331Q203 331 190 319T170 283T163 238T161 185Q161 162 161 150T165 120T177 95T198 87Q316 87 331 296Z" />
<glyph unicode="&#x2211;" glyph-name="summation" horiz-adv-x="713" d="M632 -123H81V15L238 315L81 614V752H632V614H237L393 314L237 15H632V-123Z" />
<glyph unicode="&#x221a;" glyph-name="radical" horiz-adv-x="549" d="M542 904L390 -35H334L109 425L14 378L-25 461L169 555L338 212L452 917L542 904Z" />
<glyph unicode="&#x221e;" glyph-name="infinity" horiz-adv-x="746" d="M714 310Q714 223 657 166T512 108Q470 108 432 138T372 204Q353 168 314 138T232 108Q146 108 89 165T32 310Q32 395 91 454T234 514Q314 514 372 428Q432 514 510 514Q596 514 655 455T714
310ZM314 310Q310 319 303 331T275 365T234 386Q199 386 177 365T154 310Q154 278 177 257T234 236Q254 236 274 254T304 292L314 310ZM592 310Q592 343 569 364T510 386Q490 386 470 367T440 329L430 310Q431 307 434 302T445 284T463 262T485 244T512 236Q545
236 568 257T592 310Z" />
<glyph unicode="&#x2248;" glyph-name="approxequal" horiz-adv-x="600" d="M555 176Q516 112 484 86T410 59Q377 59 319 83L265 105Q218 124 201 124Q175 124 154 102Q143 91 114 43L51 118Q95 189 123 215T199 241Q238 241 276 225L343 198Q397 176 414 176Q450
176 491 250L555 176ZM555 383Q516 319 484 293T410 266Q377 266 319 290L265 312Q218 331 201 331Q175 331 154 309Q143 298 114 250L51 325Q95 396 123 422T199 448Q238 448 276 432L343 405Q397 383 414 383Q450 383 491 457L555 383Z" />
<glyph unicode="&#x2260;" glyph-name="notequal" horiz-adv-x="600" d="M546 89H297L212 -85L88 -23L143 89H54V227H212L235 273H54V411H303L388 585L512 523L457 411H546V273H388L365 227H546V89Z" />
<glyph unicode="&#x2264;" glyph-name="lessequal" horiz-adv-x="600" d="M492 99L65 437V545L492 883V707L219 491L492 275V99ZM492 -69H108V69H492V-69Z" />
<glyph unicode="&#x2265;" glyph-name="greaterequal" horiz-adv-x="600" d="M535 437L108 99V275L381 491L108 707V883L535 545V437ZM492 -69H108V69H492V-69Z" />
<glyph unicode="&#x25ca;" glyph-name="lozenge" horiz-adv-x="494" d="M466 374L269 0H209L18 377L214 740H277L466 374ZM373 374L245 625L111 376L240 117L373 374Z" />
<glyph unicode="&#xfb01;" glyph-name="f_i" horiz-adv-x="520" d="M274 611H261Q222 611 207 597T191 544H266V433H191V0H58V433H10V544H58Q78 739 241 739Q258 739 274 737V611ZM467 0H334V554H467V0ZM468 634H335V767H468V634Z" />
<glyph unicode="&#xfb02;" glyph-name="f_l" horiz-adv-x="520" d="M274 611H261Q222 611 207 597T191 544H266V433H191V0H58V433H10V544H58Q78 739 241 739Q258 739 274 737V611ZM467 0H334V739H467V0Z" />
</font>
</defs>
</svg>
