<?xml version="1.0" standalone="no"?> <!DOCTYPE svg PUBLIC "-//W3C//DTD SVG 1.0//EN" "http://www.w3.org/TR/2001/REC-SVG-20010904/DTD/svg10.dtd" > <svg xmlns="http://www.w3.org/2000/svg" width="100%" height="100%">
<defs >
<font id="TeXGyreAdventor-Italic" horiz-adv-x="565" ><font-face
    font-family="TeXGyreAdventor"
    units-per-em="1000"
    panose-1="0 0 5 0 0 0 0 0 0 0"
    ascent="966"
    descent="-251"
    alphabetic="0" />
<missing-glyph horiz-adv-x="364" d="M33 0V666H298V0H33ZM66 33H265V633H66V33Z" />
<glyph unicode=" " glyph-name="space" horiz-adv-x="277" />
<glyph unicode="!" glyph-name="exclam" horiz-adv-x="295" d="M155 0H81L104 126H178L155 0ZM192 197H118L218 739H292L192 197Z" />
<glyph unicode="&quot;" glyph-name="quotedbl" horiz-adv-x="309" d="M231 739L189 513H139L181 739H231ZM344 739L302 513H252L294 739H344Z" />
<glyph unicode="#" glyph-name="numbersign" horiz-adv-x="554" d="M599 453H477L420 297H535L524 237H398L311 0H245L332 237H203L115 0H49L138 237H21L32 297H160L219 453H98L109 513H241L326 739H390L306 513H433L516 739H582L499 513H610L599 453ZM411 453H284L226
297H354L411 453Z" />
<glyph unicode="$" glyph-name="dollar" horiz-adv-x="554" d="M494 264Q494 181 438 114T286 29L270 -56H204L220 29Q163 37 123 76T82 178Q82 196 88 228H156Q154 204 154 196Q154 149 183 120T261 90Q326 90 371 137T417 252Q417 293 394 317T305 363Q227 387
197 422T167 513Q167 592 218 652T350 728L365 810H431L416 728Q484 713 514 677T545 573Q545 569 543 547H473Q475 570 475 579Q475 617 448 641T379 665Q320 665 280 623T239 516Q239 487 261 468T343 428Q433 397 463 361T494 264Z" />
<glyph unicode="%" glyph-name="percent" horiz-adv-x="775" d="M696 739L225 0H153L621 739H696ZM755 195Q755 114 691 51T545 -13Q481 -13 440 28T398 132Q398 212 462 275T610 338Q672 338 713 297T755 195ZM687 185Q687 220 662 245T599 270Q547 270 507 231T466
142Q466 105 491 80T554 55Q607 55 647 94T687 185ZM444 606Q444 525 380 461T235 397Q171 397 129 438T87 542Q87 620 151 684T299 749Q361 749 402 708T444 606ZM376 595Q376 631 351 656T288 681Q235 681 195 643T155 552Q155 515 180 490T243 465Q296 465 336
504T376 595Z" />
<glyph unicode="&amp;" glyph-name="ampersand" horiz-adv-x="757" d="M713 38L653 -13L512 153Q405 -13 256 -13Q168 -13 116 37T63 173Q63 234 97 292T190 387L261 424Q271 429 278 433Q223 508 223 560Q223 636 286 694T432 752Q498 752 539 715T581 617Q581
548 542 502T401 411L516 273L662 481H744L560 220L713 38ZM467 206L321 380Q219 333 177 288T135 177Q135 124 172 90T266 55Q317 55 370 94T467 206ZM509 603Q509 641 486 662T421 684Q375 684 338 650T300 572Q300 549 312 527T357 464Q449 502 479 530T509
603Z" />
<glyph unicode="&apos;" glyph-name="quotesingle" horiz-adv-x="198" d="M231 739L189 513H139L181 739H231Z" />
<glyph unicode="(" glyph-name="parenleft" horiz-adv-x="369" d="M282 -125Q184 -86 130 10T76 221Q76 319 120 424T250 617T442 739L430 676Q295 595 224 475T153 232Q153 38 294 -60L282 -125Z" />
<glyph unicode=")" glyph-name="parenright" horiz-adv-x="369" d="M347 392Q347 292 302 189T172 0T-20 -125L-8 -61Q110 2 190 129T270 382Q270 567 128 674L140 739Q234 705 290 606T347 392Z" />
<glyph unicode="*" glyph-name="asterisk" horiz-adv-x="425" d="M438 547L336 568L375 468L322 449L287 550L217 470L173 506L248 585L142 602L152 654L257 632L217 734L272 752L306 652L376 734L417 696L344 615L447 599L438 547Z" />
<glyph unicode="+" glyph-name="plus" horiz-adv-x="606" d="M566 213H363V10H289V213H86V287H289V490H363V287H566V213Z" />
<glyph unicode="," glyph-name="comma" horiz-adv-x="277" d="M246 126L122 -67H49L173 126H246Z" />
<glyph unicode="-" glyph-name="hyphen" horiz-adv-x="332" d="M334 296L322 233H50L62 296H334Z" />
<glyph unicode="." glyph-name="period" horiz-adv-x="277" d="M145 0H71L94 126H168L145 0Z" />
<glyph unicode="/" glyph-name="slash" horiz-adv-x="437" d="M504 739L53 -128H-14L435 739H504Z" />
<glyph unicode="0" glyph-name="zero" horiz-adv-x="554" d="M582 479L543 269Q490 -13 247 -13Q152 -13 97 37T41 175Q41 222 49 260L51 269L90 479Q115 615 192 683T388 752Q477 752 534 702T591 575Q591 528 582 479ZM472 281L505 462Q514 514 514 550Q514
613 475 648T374 684Q199 684 159 462L126 281Q118 244 118 189Q118 129 157 92T260 55Q346 55 398 108T472 281Z" />
<glyph unicode="1" glyph-name="one" horiz-adv-x="554" d="M461 739L324 0H251L376 672H250L262 739H461Z" />
<glyph unicode="2" glyph-name="two" horiz-adv-x="554" d="M472 0H3L15 67L321 317Q428 404 464 453T500 560Q500 616 464 650T368 684Q292 684 241 635T175 500H102Q119 612 196 682T381 752Q469 752 523 703T577 572Q577 498 538 438T395 294L115 67H484L472 0Z" />
<glyph unicode="3" glyph-name="three" horiz-adv-x="554" d="M518 270Q518 158 434 73T240 -13Q152 -13 97 39T41 171Q41 193 44 231H117L116 216Q116 130 149 93T247 55Q324 55 382 114T441 252Q441 326 396 357T260 388L272 454L311 452Q372 452 414 492T457
593Q457 633 432 658T364 684Q311 684 272 648T227 555H154Q173 648 235 700T379 752Q449 752 491 711T534 604Q534 491 426 423Q518 374 518 270Z" />
<glyph unicode="4" glyph-name="four" horiz-adv-x="554" d="M523 135H455L430 0H357L382 135H7L19 202L480 739H567L467 202H535L523 135ZM475 637L105 202H394L475 637Z" />
<glyph unicode="5" glyph-name="five" horiz-adv-x="554" d="M547 297Q547 175 455 81T246 -13Q160 -13 99 44T37 190V232H109Q109 143 148 99T253 55Q341 55 405 124T470 286Q470 352 430 393T326 435Q240 435 158 353L105 375L238 739H573L561 672H285L211 468Q285
503 347 503Q436 503 491 446T547 297Z" />
<glyph unicode="6" glyph-name="six" horiz-adv-x="554" d="M549 299Q549 173 459 80T247 -13Q154 -13 95 43T36 189Q36 260 60 314T170 467L403 739H488L267 482Q317 503 358 503Q442 503 495 446T549 299ZM472 286Q472 353 434 394T331 435Q245 435 179 367T113
204Q113 136 153 96T261 55Q345 55 408 125T472 286Z" />
<glyph unicode="7" glyph-name="seven" horiz-adv-x="554" d="M585 672L156 0H78L509 672H159L171 739H597L585 672Z" />
<glyph unicode="8" glyph-name="eight" horiz-adv-x="554" d="M526 267Q526 151 445 69T249 -13Q157 -13 103 38T48 176Q48 250 92 314T213 413Q176 441 164 465T151 527Q151 618 224 685T387 752Q460 752 505 711T550 603Q550 541 521 490T431 413Q526 363 526
267ZM451 250Q451 306 415 340T319 375Q240 375 183 319T125 181Q125 126 163 91T259 55Q338 55 394 112T451 250ZM473 587Q473 631 446 657T373 684Q314 684 271 642T228 541Q228 500 258 472T332 444Q389 444 431 488T473 587Z" />
<glyph unicode="9" glyph-name="nine" horiz-adv-x="554" d="M595 550Q595 479 563 413Q541 367 460 272L227 0H142L364 257Q314 236 273 236Q190 236 136 292T82 435Q82 563 171 657T382 752Q477 752 536 696T595 550ZM518 532Q518 600 477 642T370 684Q284 684
222 613T159 455Q159 387 197 346T299 304Q388 304 453 372T518 532Z" />
<glyph unicode=":" glyph-name="colon" horiz-adv-x="277" d="M217 381H143L166 507H240L217 381ZM145 0H71L94 126H168L145 0Z" />
<glyph unicode=";" glyph-name="semicolon" horiz-adv-x="277" d="M196 126L72 -67H-1L124 126H196ZM245 381H171L194 507H268L245 381Z" />
<glyph unicode="&lt;" glyph-name="less" horiz-adv-x="606" d="M503 -95L125 222V278L503 595V499L207 250L503 1V-95Z" />
<glyph unicode="=" glyph-name="equal" horiz-adv-x="606" d="M566 305H86V379H566V305ZM566 121H86V195H566V121Z" />
<glyph unicode="&gt;" glyph-name="greater" horiz-adv-x="606" d="M503 222L125 -95V1L421 250L125 499V595L503 278V222Z" />
<glyph unicode="?" glyph-name="question" horiz-adv-x="591" d="M305 0H231L254 126H328L305 0ZM597 577Q597 513 572 469T471 365Q406 313 377 274T339 193H269Q278 295 408 397Q474 449 493 478Q520 517 520 567Q520 619 485 651T394 684Q246 684 199 508H129Q155
626 230 689T408 752Q494 752 545 704T597 577Z" />
<glyph unicode="@" glyph-name="at" horiz-adv-x="867" d="M853 489Q853 411 808 329T695 193T562 139Q526 139 508 152T483 196Q417 144 354 144Q302 144 272 174T241 257Q241 329 289 408T408 540T544 593Q626 593 646 524L672 574H733L588 296Q562 242 558
232T554 211Q554 203 563 197T585 191Q625 191 675 233T763 346T800 482Q800 578 731 639T552 700Q399 700 278 580T156 307Q156 190 233 115T431 39Q568 39 683 138L717 105Q587 -13 413 -13Q279 -13 191 75T103 298Q103 416 167 521T339 689T568 752Q691 752
772 678T853 489ZM598 482Q598 508 582 524T537 541H532Q488 541 436 497T349 388T313 271Q313 239 330 221T377 202Q417 202 453 230T532 324Q598 425 598 482Z" />
<glyph unicode="A" glyph-name="A" horiz-adv-x="740" d="M699 0H618L557 249H213L59 0H-19L435 739H518L699 0ZM541 316L461 655L254 316H541Z" />
<glyph unicode="B" glyph-name="B" horiz-adv-x="574" d="M558 260Q558 203 535 151T473 64Q433 29 378 15T229 0H46L183 739H356Q469 739 523 704T577 595Q577 528 548 474T457 394Q513 367 535 337T558 260ZM481 242Q481 307 431 334Q394 354 274 354H183L132
67H233Q371 67 426 113T481 242ZM500 578Q500 631 465 651T335 672H245L198 421H288Q356 421 393 430T455 462Q500 504 500 578Z" />
<glyph unicode="C" glyph-name="C" horiz-adv-x="813" d="M777 194Q710 96 612 42T402 -13Q257 -13 167 71T76 290Q76 413 139 519T309 689T539 752Q653 752 736 695T839 547H757Q696 684 529 684Q433 684 346 633T206 494T153 310Q153 199 227 127T414 55Q568
55 695 194H777Z" />
<glyph unicode="D" glyph-name="D" horiz-adv-x="744" d="M744 448Q744 346 701 256T579 102Q511 48 433 24T245 0H46L183 739H357Q543 739 626 681Q744 600 744 448ZM667 435Q667 551 594 611T348 672H245L132 67H235Q351 67 423 89T552 165Q605 214 636 287T667 435Z" />
<glyph unicode="E" glyph-name="E" horiz-adv-x="536" d="M575 672H245L195 407H514L502 340H183L132 67H462L450 0H46L183 739H587L575 672Z" />
<glyph unicode="F" glyph-name="F" horiz-adv-x="485" d="M546 672H245L195 405H485L473 338H183L120 0H46L183 739H558L546 672Z" />
<glyph unicode="G" glyph-name="G" horiz-adv-x="872" d="M864 341Q827 194 698 91T416 -13Q267 -13 172 74T77 300Q77 388 115 471T217 615T367 714T545 752Q666 752 751 695T857 542H773Q750 607 688 645T542 684Q385 684 270 573T154 312Q154 196 230 126T425
55Q530 55 622 115T763 274H349L361 341H864Z" />
<glyph unicode="H" glyph-name="H" horiz-adv-x="683" d="M714 739L577 0H503L567 347H184L120 0H46L183 739H257L197 414H580L640 739H714Z" />
<glyph unicode="I" glyph-name="I" horiz-adv-x="226" d="M257 739L120 0H46L183 739H257Z" />
<glyph unicode="J" glyph-name="J" horiz-adv-x="482" d="M513 739L418 231Q396 110 335 48T177 -14Q100 -14 56 27T11 146Q11 164 13 175H86Q92 111 114 83T188 54Q250 54 288 97T344 231L439 739H513Z" />
<glyph unicode="K" glyph-name="K" horiz-adv-x="591" d="M692 739L333 379L555 0H462L275 320L157 202L120 0H46L183 739H257L178 314L599 739H692Z" />
<glyph unicode="L" glyph-name="L" horiz-adv-x="462" d="M426 0H46L183 739H257L132 67H438L426 0Z" />
<glyph unicode="M" glyph-name="M" horiz-adv-x="919" d="M950 739L813 0H739L861 658L461 0H397L242 658L120 0H46L183 739H298L450 110L835 739H950Z" />
<glyph unicode="N" glyph-name="N" horiz-adv-x="740" d="M771 739L634 0H560L240 650L120 0H46L183 739H283L583 126L697 739H771Z" />
<glyph unicode="O" glyph-name="O" horiz-adv-x="869" d="M870 436Q870 322 804 218T628 50T398 -13Q263 -13 170 77T76 302Q76 417 142 521T318 689T548 752Q681 752 775 663T870 436ZM793 422Q793 536 719 610T530 684Q387 684 270 570T153 316Q153 206 227
131T410 55Q559 55 676 167T793 422Z" />
<glyph unicode="P" glyph-name="P" horiz-adv-x="592" d="M635 572Q635 515 615 462T557 371Q518 332 463 316T317 299H175L120 0H46L183 739H388Q519 739 577 700T635 572ZM558 558Q558 622 511 650Q475 672 350 672H245L188 366H325Q397 366 438 378T507 419Q530
444 544 482T558 558Z" />
<glyph unicode="Q" glyph-name="Q" horiz-adv-x="871" d="M883 447Q883 344 835 249T703 93Q747 55 791 55Q800 55 807 56L794 -13Q740 -12 710 1T644 51Q542 -13 411 -13Q266 -13 171 76T75 299Q75 419 143 524T321 691T551 752Q700 752 791 668T883 447ZM593
100Q527 173 457 205T294 237Q226 237 171 216Q187 156 259 106T421 55Q510 55 593 100ZM806 427Q806 542 733 613T540 684Q381 684 267 570T152 285L151 279Q239 305 320 305Q423 305 495 269T659 142Q738 212 772 279T806 427Z" />
<glyph unicode="R" glyph-name="R" horiz-adv-x="607" d="M643 553Q643 439 570 363T380 276L536 0H444L257 335Q398 335 457 359Q505 379 535 430T566 541Q566 612 516 642T349 672H245L120 0H46L183 739H366Q516 739 579 695T643 553Z" />
<glyph unicode="S" glyph-name="S" horiz-adv-x="498" d="M488 246Q488 144 407 66T219 -13Q134 -13 80 36T26 165Q26 175 28 207H107Q107 127 138 91T234 55Q306 55 358 107T411 232Q411 278 381 304T272 356Q175 386 145 421T115 520Q115 609 187 680T361 752Q439
752 486 708T534 590Q534 579 531 552H454Q454 684 348 684Q283 684 238 637T192 531Q192 516 198 497T214 469Q225 458 243 450T315 423Q425 386 456 347Q488 306 488 246Z" />
<glyph unicode="T" glyph-name="T" horiz-adv-x="426" d="M514 672H345L220 0H146L271 672H102L114 739H526L514 672Z" />
<glyph unicode="U" glyph-name="U" horiz-adv-x="655" d="M601 278Q574 133 494 60T296 -13Q204 -13 147 39T89 173Q89 217 100 278L185 739H259L174 278Q165 230 165 188Q165 129 205 92T309 55Q393 55 449 110T527 278L612 739H686L601 278Z" />
<glyph unicode="V" glyph-name="V" horiz-adv-x="702" d="M799 739L356 0H284L117 739H198L338 92L719 739H799Z" />
<glyph unicode="W" glyph-name="W" horiz-adv-x="960" d="M1057 739L708 0H613L561 606L287 0H191L117 739H193L256 96L552 739H622L680 96L981 739H1057Z" />
<glyph unicode="X" glyph-name="X" horiz-adv-x="609" d="M571 0H483L334 316L65 0H-22L299 378L129 739H216L357 443L607 739H693L389 378L571 0Z" />
<glyph unicode="Y" glyph-name="Y" horiz-adv-x="592" d="M697 739L348 247L302 0H228L274 247L109 739H191L324 325L616 739H697Z" />
<glyph unicode="Z" glyph-name="Z" horiz-adv-x="480" d="M444 0H-13L-1 67L475 672H123L135 739H570L558 672L83 67H456L444 0Z" />
<glyph unicode="[" glyph-name="bracketleft" horiz-adv-x="351" d="M274 -50L260 -125Q102 -77 102 86Q102 112 112 164L167 462Q183 563 251 638T420 739L406 664Q330 635 291 586T234 448L184 177Q174 126 174 89Q174 -6 274 -50Z" />
<glyph unicode="\" glyph-name="backslash" horiz-adv-x="605" d="M434 0H363L191 739H263L434 0Z" />
<glyph unicode="]" glyph-name="bracketright" horiz-adv-x="351" d="M238 153Q218 47 153 -25T-16 -125L-2 -50Q73 -23 113 28T170 166L220 438Q230 489 230 526Q230 622 130 664L144 739Q217 717 259 664T302 541Q302 498 293 450L238 153Z" />
<glyph unicode="^" glyph-name="asciicircum" horiz-adv-x="606" d="M591 180H510L396 657L104 180H21L368 739H452L591 180Z" />
<glyph unicode="_" glyph-name="underscore" horiz-adv-x="500" d="M458 -67L447 -125H-53L-42 -67H458Z" />
<glyph unicode="`" glyph-name="grave" horiz-adv-x="375" d="M354 650L309 594L137 708L183 766L354 650Z" />
<glyph unicode="a" glyph-name="a" horiz-adv-x="683" d="M590 0H516L534 96Q473 34 423 11T303 -13Q193 -13 126 50T58 216Q58 355 161 457T404 560Q543 560 599 450L617 547H691L590 0ZM571 319Q571 394 522 443T397 492Q293 492 214 415T135 235Q135 155 185
105T318 55Q418 55 494 135T571 319Z" />
<glyph unicode="b" glyph-name="b" horiz-adv-x="682" d="M666 330Q666 191 562 89T318 -13Q251 -13 201 15T124 94L107 0H33L170 739H244L191 453Q234 504 295 532T425 560Q530 560 598 495T666 330ZM589 318Q589 396 540 444T411 492Q308 492 228 414T148 237Q148
159 199 107T329 55Q433 55 511 134T589 318Z" />
<glyph unicode="c" glyph-name="c" horiz-adv-x="647" d="M609 161Q539 66 468 27T309 -13Q197 -13 128 52T58 222Q58 355 164 457T408 560Q502 560 566 512T649 381H566Q546 434 502 463T396 492Q292 492 214 414T135 233Q135 155 186 105T318 55Q379 55 420
76T526 161H609Z" />
<glyph unicode="d" glyph-name="d" horiz-adv-x="685" d="M729 739L592 0H518L536 99Q483 39 430 13T305 -13Q198 -13 128 52T58 217Q58 354 163 457T408 560Q535 560 603 460L655 739H729ZM576 318Q576 393 524 442T392 492Q291 492 213 414T135 236Q135 155
186 105T320 55Q419 55 497 135T576 318Z" />
<glyph unicode="e" glyph-name="e" horiz-adv-x="650" d="M626 249H131Q129 225 129 221Q129 151 181 103T308 55Q369 55 429 90T522 180H599Q551 92 469 40T295 -13Q193 -13 126 53T58 220Q58 355 160 457T398 560Q502 560 568 496T635 332Q635 300 626 249ZM565
316Q561 397 513 444T385 492Q307 492 240 443T146 316H565Z" />
<glyph unicode="f" glyph-name="f" horiz-adv-x="314" d="M405 672H390Q326 672 292 643T246 547H381L369 480H234L145 0H71L160 480H75L87 547H172Q192 646 253 692T400 739H417L405 672Z" />
<glyph unicode="g" glyph-name="g" horiz-adv-x="673" d="M681 547L597 98Q580 10 562 -34T507 -117Q415 -215 265 -215Q166 -215 107 -168T30 -17H102Q135 -94 172 -120T279 -147Q376 -147 437 -91T519 74L526 111Q445 -13 295 -13Q191 -13 124 52T57 219Q57
354 160 457T396 560Q463 560 505 538T589 450L607 547H681ZM562 325Q562 397 512 444T385 492Q289 492 212 416T134 236Q134 158 179 107T307 55Q407 55 484 135T562 325Z" />
<glyph unicode="h" glyph-name="h" horiz-adv-x="610" d="M515 0H441L495 294Q502 338 502 366Q502 421 463 456T363 492Q287 492 234 443T163 300L107 0H33L170 739H244L195 476Q271 560 380 560Q474 560 526 512T579 376Q579 350 569 294L515 0Z" />
<glyph unicode="i" glyph-name="i" horiz-adv-x="200" d="M107 0H33L134 547H208L107 0ZM220 607H146L169 733H243L220 607Z" />
<glyph unicode="j" glyph-name="j" horiz-adv-x="203" d="M118 38Q83 -182 -111 -192L-98 -121Q-34 -117 -4 -83T44 38L138 547H212L118 38ZM224 607H150L173 733H247L224 607Z" />
<glyph unicode="k" glyph-name="k" horiz-adv-x="502" d="M467 0H375L234 219L128 113L107 0H33L170 739H244L147 215L463 547H554L290 272L467 0Z" />
<glyph unicode="l" glyph-name="l" horiz-adv-x="200" d="M244 739L107 0H33L170 739H244Z" />
<glyph unicode="m" glyph-name="m" horiz-adv-x="938" d="M843 0H769L828 317Q834 353 834 379Q834 431 803 461T716 492Q647 492 599 449T534 317L475 0H401L460 319Q466 350 466 372Q466 431 432 461T345 492Q277 492 229 446T166 319L107 0H33L134 547H208L197
484Q244 531 278 545T363 560Q491 560 522 455Q571 511 619 535T731 560Q812 560 861 517T911 402Q911 371 903 325L843 0Z" />
<glyph unicode="n" glyph-name="n" horiz-adv-x="610" d="M515 0H441L494 287Q502 332 502 361Q502 421 465 456T363 492Q287 492 234 445T163 301L107 0H33L134 547H208L195 476Q282 560 383 560Q473 560 526 511T579 379Q579 344 568 287L515 0Z" />
<glyph unicode="o" glyph-name="o" horiz-adv-x="655" d="M639 332Q639 192 537 90T303 -13Q194 -13 126 50T57 215Q57 356 162 458T405 560Q509 560 574 497T639 332ZM562 325Q562 398 514 445T392 492Q287 492 211 414T134 228Q134 151 183 103T313 55Q417 55
489 133T562 325Z" />
<glyph unicode="p" glyph-name="p" horiz-adv-x="682" d="M665 325Q665 192 561 90T320 -13Q180 -13 124 94L71 -192H-3L134 547H208L191 453Q228 502 291 531T425 560Q533 560 599 495T665 325ZM588 317Q588 393 538 442T409 492Q310 492 229 416T147 227Q147
153 198 104T325 55Q426 55 507 131T588 317Z" />
<glyph unicode="q" glyph-name="q" horiz-adv-x="682" d="M690 547L553 -192H479L532 94Q441 -13 295 -13Q191 -13 124 52T57 217Q57 354 160 457T402 560Q547 560 599 453L616 547H690ZM575 318Q575 393 524 442T393 492Q290 492 212 413T134 229Q134 153 183
104T310 55Q415 55 495 133T575 318Z" />
<glyph unicode="r" glyph-name="r" horiz-adv-x="301" d="M366 560L352 487Q194 470 166 319L107 0H33L134 547H208L194 469Q224 514 263 535T366 560Z" />
<glyph unicode="s" glyph-name="s" horiz-adv-x="388" d="M362 189Q362 106 301 47T159 -13Q93 -13 53 25T13 117Q13 137 16 161H89Q89 99 109 77T172 55Q218 55 251 88T285 167Q285 198 269 214T197 255Q152 275 135 285T106 308Q80 337 80 380Q80 452 137 506T268
560Q323 560 359 527T395 442Q395 423 394 412H319Q319 492 254 492Q217 492 187 464T157 400Q157 362 195 341Q212 332 290 297Q362 265 362 189Z" />
<glyph unicode="t" glyph-name="t" horiz-adv-x="339" d="M386 480H257L168 0H94L183 480H71L83 547H195L231 739H305L269 547H398L386 480Z" />
<glyph unicode="u" glyph-name="u" horiz-adv-x="608" d="M616 547L514 0H440L456 85Q416 32 371 10T260 -13Q173 -13 121 32T69 155Q69 202 78 252L133 547H207L152 252Q146 226 146 185Q146 123 180 89T280 55Q357 55 412 105T489 266L542 547H616Z" />
<glyph unicode="v" glyph-name="v" horiz-adv-x="554" d="M617 547L286 0H208L79 547H154L261 87L542 547H617Z" />
<glyph unicode="w" glyph-name="w" horiz-adv-x="831" d="M895 547L582 0H503L451 363L266 0H186L78 547H152L241 89L443 480H504L560 89L823 547H895Z" />
<glyph unicode="x" glyph-name="x" horiz-adv-x="480" d="M442 0H357L251 219L62 0H-22L220 279L79 547H163L272 336L458 547H543L303 279L442 0Z" />
<glyph unicode="y" glyph-name="y" horiz-adv-x="536" d="M598 547L145 -192H67L194 18L80 547H161L253 111L519 547H598Z" />
<glyph unicode="z" glyph-name="z" horiz-adv-x="425" d="M385 0H-20L-8 67L371 480H79L91 547H467L456 484L79 67H397L385 0Z" />
<glyph unicode="{" glyph-name="braceleft" horiz-adv-x="351" d="M378 739L365 672Q316 668 302 657T277 601L245 431Q233 373 211 349T133 306Q174 292 188 275T203 221L200 183L168 13Q165 -2 165 -18Q165 -39 176 -47T220 -58L230 -59L217 -126Q144 -124 124
-112Q87 -90 87 -41Q87 -9 91 13L123 183L126 215Q126 243 115 253T64 272L77 341Q124 349 142 367T168 431L200 601Q223 690 255 713T378 739Z" />
<glyph unicode="|" glyph-name="bar" horiz-adv-x="672" d="M396 -125H322V739H396V-125Z" />
<glyph unicode="}" glyph-name="braceright" horiz-adv-x="351" d="M296 341L283 272Q234 263 220 249T192 183L161 13Q146 -68 108 -97T-16 -126L-4 -59Q45 -55 58 -45T85 13L116 183Q124 235 149 262T227 306Q182 326 170 340T157 385Q157 408 162 431L194 601Q195
605 195 632Q195 653 185 660T143 671L132 672L144 739Q217 737 237 725Q275 702 275 648Q275 633 270 601L238 431L234 390Q234 369 247 359T296 341Z" />
<glyph unicode="~" glyph-name="asciitilde" horiz-adv-x="606" d="M589 343Q554 292 510 262T427 231Q399 231 340 257L290 279Q243 299 221 299Q190 299 168 283T102 210L69 257Q117 322 155 349T235 377Q264 377 308 358L368 331Q418 308 443 309Q490 309 554
390L589 343Z" />
<glyph unicode="&#xa0;" glyph-name="uni00A0" horiz-adv-x="277" />
<glyph unicode="&#xa1;" glyph-name="exclamdown" horiz-adv-x="295" d="M232 421H158L181 547H255L232 421ZM118 -192H44L144 350H218L118 -192Z" />
<glyph unicode="&#xa2;" glyph-name="cent" horiz-adv-x="554" d="M565 463H483L477 475Q442 547 354 547Q277 547 219 489T160 353Q160 292 197 255T294 217Q377 217 447 290H527Q499 236 443 198T324 151L308 62H241L257 151Q180 158 132 210T83 338Q83 438
156 518T343 614L360 707H427L410 614Q474 603 514 564T565 463Z" />
<glyph unicode="&#xa3;" glyph-name="sterling" horiz-adv-x="554" d="M603 268Q603 142 524 71T313 0H28L40 67H178Q208 95 226 136T244 220Q244 251 229 279T175 347H51L64 414H140Q128 454 128 481Q128 592 216 672T414 752Q507 752 566 699T625 569Q625 565
623 541H553Q553 606 512 645T402 684Q321 684 263 623T205 476Q205 452 220 414H503L490 347H274Q321 283 321 219Q321 151 265 67H322Q424 67 477 121T531 268H603Z" />
<glyph unicode="&#xa5;" glyph-name="yen" horiz-adv-x="554" d="M696 739L501 463H603L590 396H452L386 304H566L554 237H349L305 0H231L275 237H67L79 304H261L229 396H89L102 463H206L109 739H185L330 327L620 739H696Z" />
<glyph unicode="&#xa7;" glyph-name="section" horiz-adv-x="615" d="M553 315Q553 222 449 146Q480 108 480 70Q480 -22 411 -81T256 -141Q180 -141 132 -94T84 22Q84 38 87 64H155Q154 55 154 39Q154 -11 186 -42T271 -73Q326 -73 369 -35T412 52Q412 95 334
137L204 207Q157 233 137 256T116 310Q116 363 147 411T234 491Q210 519 210 561Q210 637 271 694T416 752Q478 752 522 717T566 631Q566 628 564 606H493Q490 684 400 684Q351 684 316 652T280 575Q280 528 325 505L468 431Q553 387 553 315ZM481 300Q481 342
436 365L265 454Q232 433 210 399T188 333Q188 319 199 304T229 278L410 182Q481 229 481 300Z" />
<glyph unicode="&#xa8;" glyph-name="dieresis" horiz-adv-x="369" d="M229 607H155L178 733H252L229 607ZM376 607H302L325 733H399L376 607Z" />
<glyph unicode="&#xa9;" glyph-name="copyright" horiz-adv-x="747" d="M751 487T751 341T647 92T397 -12T148 91T44 341T147 591T397 695T647 591ZM714 210T714 341T621 565T397 658T174 565T81 341T173 118T397 25T621 117ZM630 430H569Q533 504 434 504Q349
504 285 446T222 311Q223 253 266 216T375 178Q465 178 539 253H601Q562 193 500 160T366 126Q277 126 221 173T163 296Q161 401 244 478T443 556Q517 556 569 521T630 430Z" />
<glyph unicode="&#xaa;" glyph-name="ordfeminine" horiz-adv-x="369" d="M447 739L393 448H345L353 493Q304 441 239 441Q187 441 151 478T115 569Q115 637 172 691T303 745Q356 745 391 694L399 739H447ZM370 610Q370 646 348 671T291 696Q244 696 206 659T168
575Q168 540 192 515T250 490Q294 490 332 528T370 610ZM379 319H61L70 371H388L379 319Z" />
<glyph unicode="&#xab;" glyph-name="guillemotleft" horiz-adv-x="425" d="M206 132L141 99L66 300L215 499L268 467L144 300L206 132ZM380 132L315 99L240 300L389 499L442 467L318 300L380 132Z" />
<glyph unicode="&#xac;" glyph-name="logicalnot" horiz-adv-x="606" d="M566 379V158H492V305H86V379H566Z" />
<glyph unicode="&#xae;" glyph-name="registered" horiz-adv-x="747" d="M751 487T751 341T647 92T397 -12T148 91T44 341T147 591T397 695T647 591ZM714 210T714 341T621 565T397 658T174 565T81 341T173 118T397 25T621 117ZM580 442Q581 380 540 337T432 284L529
133H456L332 330Q428 329 464 343Q490 353 506 378T521 432Q520 468 492 482T395 497H339L272 133H215L292 549H408Q500 549 539 524T580 442Z" />
<glyph unicode="&#xaf;" glyph-name="overscore" horiz-adv-x="485" d="M511 701L499 639H162L174 701H511Z" />
<glyph unicode="&#xb0;" glyph-name="degree" horiz-adv-x="400" d="M432 531Q432 469 388 425T279 381Q216 381 172 425T127 532Q127 594 172 637T282 681Q344 681 388 637T432 531ZM375 493T375 531T347 596T281 624Q241 624 213 597T184 532Q184 493 212 466T279
438Q319 438 347 465Z" />
<glyph unicode="&#xb1;" glyph-name="plusminus" horiz-adv-x="606" d="M566 287H363V141H289V287H86V361H289V564H363V361H566V287ZM566 0H86V74H566V0Z" />
<glyph unicode="&#xb4;" glyph-name="acute" horiz-adv-x="375" d="M440 708L226 594L202 650L416 766L440 708Z" />
<glyph unicode="&#xb5;" glyph-name="mu" horiz-adv-x="608" d="M616 547L514 0H440L456 85Q422 32 384 10T289 -13Q177 -13 124 94L71 -192H-3L134 547H208L156 266Q149 228 149 198Q149 55 298 55Q371 55 419 102T489 266L542 547H616Z" />
<glyph unicode="&#xb6;" glyph-name="paragraph" horiz-adv-x="564" d="M437 -133H363L512 672H396L247 -133H173L263 355Q188 363 147 403T105 510Q105 606 175 672T367 739H598L437 -133Z" />
<glyph unicode="&#xb7;" glyph-name="middot" horiz-adv-x="277" d="M225 276T225 250T207 206T162 187T118 205T99 250T117 294T162 313T206 295Z" />
<glyph unicode="&#xb8;" glyph-name="cedilla" horiz-adv-x="324" d="M232 -137Q224 -185 187 -218T99 -251Q26 -251 19 -166L73 -160Q75 -178 83 -185T111 -193Q135 -193 152 -175T169 -129Q170 -110 159 -100T129 -89Q100 -89 78 -108L50 -89L105 5H144L117
-48Q139 -43 151 -43Q188 -43 211 -63T234 -118Q234 -125 232 -137Z" />
<glyph unicode="&#xba;" glyph-name="ordmasculine" horiz-adv-x="369" d="M420 619Q420 550 364 496T234 442Q182 442 147 478T111 567Q111 637 167 691T296 745Q349 745 384 709T420 619ZM367 617Q367 649 344 672T287 696Q237 696 201 659T164 572Q164 537
187 514T246 491Q295 491 331 528T367 617ZM367 319H62L71 371H376L367 319Z" />
<glyph unicode="&#xbb;" glyph-name="guillemotright" horiz-adv-x="425" d="M237 300L88 99L35 132L159 300L97 467L162 499L237 300ZM411 300L262 99L209 132L333 300L271 467L336 499L411 300Z" />
<glyph unicode="&#xbf;" glyph-name="questiondown" horiz-adv-x="591" d="M378 421H304L327 547H401L378 421ZM503 39Q477 -79 402 -142T224 -205Q138 -205 87 -157T35 -30Q35 34 60 78T161 182Q226 234 255 273T293 354H363Q354 252 224 150Q158 98 139 69Q112
30 112 -20Q112 -72 147 -104T238 -137Q386 -137 433 39H503Z" />
<glyph unicode="&#xc0;" glyph-name="Agrave" horiz-adv-x="740" d="M699 0H618L557 249H213L59 0H-19L435 739H518L699 0ZM541 316L461 655L254 316H541ZM570 832L525 776L353 890L399 948L570 832Z" />
<glyph unicode="&#xc1;" glyph-name="Aacute" horiz-adv-x="740" d="M699 0H618L557 249H213L59 0H-19L435 739H518L699 0ZM541 316L461 655L254 316H541ZM655 890L441 776L417 832L631 948L655 890Z" />
<glyph unicode="&#xc2;" glyph-name="Acircumflex" horiz-adv-x="740" d="M699 0H618L557 249H213L59 0H-19L435 739H518L699 0ZM541 316L461 655L254 316H541ZM663 789H574L502 863L400 789H309L477 915H543L663 789Z" />
<glyph unicode="&#xc3;" glyph-name="Atilde" horiz-adv-x="740" d="M699 0H618L557 249H213L59 0H-19L435 739H518L699 0ZM541 316L461 655L254 316H541ZM638 857Q598 802 546 802Q519 802 450 835Q443 839 433 839Q424 839 415 834T375 806L352 851Q401 902
441 902Q455 902 496 884T546 865Q582 865 617 903L638 857Z" />
<glyph unicode="&#xc4;" glyph-name="Adieresis" horiz-adv-x="740" d="M699 0H618L557 249H213L59 0H-19L435 739H518L699 0ZM541 316L461 655L254 316H541ZM448 789H374L397 915H471L448 789ZM595 789H521L544 915H618L595 789Z" />
<glyph unicode="&#xc5;" glyph-name="Aring" horiz-adv-x="740" d="M699 0H618L557 249H213L59 0H-19L435 739H518L699 0ZM541 316L461 655L254 316H541ZM602 879Q602 835 564 800T480 764Q444 764 420 786T396 843Q396 893 431 929T516 966Q555 966 578 942T602
879ZM560 874Q560 894 545 908T509 922Q482 922 460 901T438 854Q438 834 452 821T488 808Q514 808 537 829T560 874Z" />
<glyph unicode="&#xc6;" glyph-name="AE" horiz-adv-x="992" d="M1031 672H712L662 407H970L958 340H650L599 67H918L906 0H513L559 250H288L69 0H-19L629 739H1043L1031 672ZM572 317L632 644L348 317H572Z" />
<glyph unicode="&#xc7;" glyph-name="Ccedilla" horiz-adv-x="813" d="M777 194Q711 96 614 42T405 -13L387 -48Q409 -43 421 -43Q458 -43 481 -63T504 -118Q504 -125 502 -137Q494 -185 457 -218T369 -251Q296 -251 289 -166L343 -160Q345 -178 353 -185T381
-193Q405 -193 422 -175T439 -129Q440 -110 429 -100T399 -89Q370 -89 348 -108L320 -89L365 -11Q235 0 156 82T76 290Q76 413 139 519T309 689T539 752Q653 752 736 695T839 547H757Q696 684 529 684Q433 684 346 633T206 494T153 310Q153 199 227 127T414 55Q568
55 695 194H777Z" />
<glyph unicode="&#xc8;" glyph-name="Egrave" horiz-adv-x="536" d="M575 672H245L195 407H514L502 340H183L132 67H462L450 0H46L183 739H587L575 672ZM478 832L433 776L261 890L307 948L478 832Z" />
<glyph unicode="&#xc9;" glyph-name="Eacute" horiz-adv-x="536" d="M575 672H245L195 407H514L502 340H183L132 67H462L450 0H46L183 739H587L575 672ZM564 890L350 776L326 832L540 948L564 890Z" />
<glyph unicode="&#xca;" glyph-name="Ecircumflex" horiz-adv-x="536" d="M575 672H245L195 407H514L502 340H183L132 67H462L450 0H46L183 739H587L575 672ZM572 789H483L411 863L309 789H218L386 915H452L572 789Z" />
<glyph unicode="&#xcb;" glyph-name="Edieresis" horiz-adv-x="536" d="M575 672H245L195 407H514L502 340H183L132 67H462L450 0H46L183 739H587L575 672ZM356 789H282L305 915H379L356 789ZM503 789H429L452 915H526L503 789Z" />
<glyph unicode="&#xcc;" glyph-name="Igrave" horiz-adv-x="226" d="M257 739L120 0H46L183 739H257ZM309 832L264 776L92 890L138 948L309 832Z" />
<glyph unicode="&#xcd;" glyph-name="Iacute" horiz-adv-x="226" d="M257 739L120 0H46L183 739H257ZM403 890L189 776L165 832L379 948L403 890Z" />
<glyph unicode="&#xce;" glyph-name="Icircumflex" horiz-adv-x="226" d="M257 739L120 0H46L183 739H257ZM407 789H318L246 863L144 789H53L221 915H287L407 789Z" />
<glyph unicode="&#xcf;" glyph-name="Idieresis" horiz-adv-x="226" d="M257 739L120 0H46L183 739H257ZM191 789H117L140 915H214L191 789ZM338 789H264L287 915H361L338 789Z" />
<glyph unicode="&#xd1;" glyph-name="Ntilde" horiz-adv-x="740" d="M771 739L634 0H560L240 650L120 0H46L183 739H283L583 126L697 739H771ZM638 857Q598 802 546 802Q519 802 450 835Q443 839 433 839Q424 839 415 834T375 806L352 851Q401 902 441 902Q455
902 496 884T546 865Q582 865 617 903L638 857Z" />
<glyph unicode="&#xd2;" glyph-name="Ograve" horiz-adv-x="869" d="M870 436Q870 322 804 218T628 50T398 -13Q263 -13 170 77T76 302Q76 417 142 521T318 689T548 752Q681 752 775 663T870 436ZM793 422Q793 536 719 610T530 684Q387 684 270 570T153 316Q153
206 227 131T410 55Q559 55 676 167T793 422ZM639 832L594 776L422 890L468 948L639 832Z" />
<glyph unicode="&#xd3;" glyph-name="Oacute" horiz-adv-x="869" d="M870 436Q870 322 804 218T628 50T398 -13Q263 -13 170 77T76 302Q76 417 142 521T318 689T548 752Q681 752 775 663T870 436ZM793 422Q793 536 719 610T530 684Q387 684 270 570T153 316Q153
206 227 131T410 55Q559 55 676 167T793 422ZM724 890L510 776L486 832L700 948L724 890Z" />
<glyph unicode="&#xd4;" glyph-name="Ocircumflex" horiz-adv-x="869" d="M870 436Q870 322 804 218T628 50T398 -13Q263 -13 170 77T76 302Q76 417 142 521T318 689T548 752Q681 752 775 663T870 436ZM793 422Q793 536 719 610T530 684Q387 684 270 570T153 316Q153
206 227 131T410 55Q559 55 676 167T793 422ZM732 789H643L571 863L469 789H378L546 915H612L732 789Z" />
<glyph unicode="&#xd5;" glyph-name="Otilde" horiz-adv-x="869" d="M870 436Q870 322 804 218T628 50T398 -13Q263 -13 170 77T76 302Q76 417 142 521T318 689T548 752Q681 752 775 663T870 436ZM793 422Q793 536 719 610T530 684Q387 684 270 570T153 316Q153
206 227 131T410 55Q559 55 676 167T793 422ZM707 857Q667 802 615 802Q588 802 519 835Q512 839 502 839Q493 839 484 834T444 806L421 851Q470 902 510 902Q524 902 565 884T615 865Q651 865 686 903L707 857Z" />
<glyph unicode="&#xd6;" glyph-name="Odieresis" horiz-adv-x="869" d="M870 436Q870 322 804 218T628 50T398 -13Q263 -13 170 77T76 302Q76 417 142 521T318 689T548 752Q681 752 775 663T870 436ZM793 422Q793 536 719 610T530 684Q387 684 270 570T153 316Q153
206 227 131T410 55Q559 55 676 167T793 422ZM517 789H443L466 915H540L517 789ZM664 789H590L613 915H687L664 789Z" />
<glyph unicode="&#xd8;" glyph-name="Oslash" horiz-adv-x="868" d="M867 442Q867 327 801 221T627 51T401 -13Q350 -13 297 2T208 42L90 -83L42 -42L159 82Q73 166 73 294Q73 413 138 519T310 689T534 752Q650 752 733 696L850 821L895 778L781 656Q867 572 867
442ZM682 641Q620 684 524 684Q377 684 264 567T150 309Q150 253 162 219T211 138L682 641ZM790 426Q790 479 779 512T736 590L729 600L259 97Q334 55 410 55Q556 55 673 166T790 426Z" />
<glyph unicode="&#xd9;" glyph-name="Ugrave" horiz-adv-x="655" d="M601 278Q574 133 494 60T296 -13Q204 -13 147 39T89 173Q89 217 100 278L185 739H259L174 278Q165 230 165 188Q165 129 205 92T309 55Q393 55 449 110T527 278L612 739H686L601 278ZM529 832L484
776L312 890L358 948L529 832Z" />
<glyph unicode="&#xda;" glyph-name="Uacute" horiz-adv-x="655" d="M601 278Q574 133 494 60T296 -13Q204 -13 147 39T89 173Q89 217 100 278L185 739H259L174 278Q165 230 165 188Q165 129 205 92T309 55Q393 55 449 110T527 278L612 739H686L601 278ZM614 890L400
776L376 832L590 948L614 890Z" />
<glyph unicode="&#xdb;" glyph-name="Ucircumflex" horiz-adv-x="655" d="M601 278Q574 133 494 60T296 -13Q204 -13 147 39T89 173Q89 217 100 278L185 739H259L174 278Q165 230 165 188Q165 129 205 92T309 55Q393 55 449 110T527 278L612 739H686L601 278ZM622
789H533L461 863L359 789H268L436 915H502L622 789Z" />
<glyph unicode="&#xdc;" glyph-name="Udieresis" horiz-adv-x="655" d="M601 278Q574 133 494 60T296 -13Q204 -13 147 39T89 173Q89 217 100 278L185 739H259L174 278Q165 230 165 188Q165 129 205 92T309 55Q393 55 449 110T527 278L612 739H686L601 278ZM407
789H333L356 915H430L407 789ZM554 789H480L503 915H577L554 789Z" />
<glyph unicode="&#xdf;" glyph-name="germandbls" horiz-adv-x="554" d="M535 245Q535 140 462 64T288 -13Q160 -13 123 109L103 0H29L118 481Q145 621 208 686T373 752Q450 752 498 707T546 588Q546 456 431 389Q535 353 535 245ZM458 230Q458 283 417 313T300
343Q279 343 257 341L270 408H285Q364 408 416 457T469 574Q469 624 439 654T360 684Q292 684 252 636T192 481L141 203H192Q188 183 188 172Q188 120 218 88T298 55Q362 55 410 107T458 230Z" />
<glyph unicode="&#xe0;" glyph-name="agrave" horiz-adv-x="683" d="M590 0H516L534 96Q473 34 423 11T303 -13Q193 -13 126 50T58 216Q58 355 161 457T404 560Q543 560 599 450L617 547H691L590 0ZM571 319Q571 394 522 443T397 492Q293 492 214 415T135 235Q135
155 185 105T318 55Q418 55 494 135T571 319ZM497 650L452 594L280 708L326 766L497 650Z" />
<glyph unicode="&#xe1;" glyph-name="aacute" horiz-adv-x="683" d="M590 0H516L534 96Q473 34 423 11T303 -13Q193 -13 126 50T58 216Q58 355 161 457T404 560Q543 560 599 450L617 547H691L590 0ZM571 319Q571 394 522 443T397 492Q293 492 214 415T135 235Q135
155 185 105T318 55Q418 55 494 135T571 319ZM582 708L368 594L344 650L558 766L582 708Z" />
<glyph unicode="&#xe2;" glyph-name="acircumflex" horiz-adv-x="683" d="M590 0H516L534 96Q473 34 423 11T303 -13Q193 -13 126 50T58 216Q58 355 161 457T404 560Q543 560 599 450L617 547H691L590 0ZM571 319Q571 394 522 443T397 492Q293 492 214 415T135
235Q135 155 185 105T318 55Q418 55 494 135T571 319ZM589 607H500L428 681L326 607H235L403 733H469L589 607Z" />
<glyph unicode="&#xe3;" glyph-name="atilde" horiz-adv-x="683" d="M590 0H516L534 96Q473 34 423 11T303 -13Q193 -13 126 50T58 216Q58 355 161 457T404 560Q543 560 599 450L617 547H691L590 0ZM571 319Q571 394 522 443T397 492Q293 492 214 415T135 235Q135
155 185 105T318 55Q418 55 494 135T571 319ZM563 675Q523 620 471 620Q444 620 375 653Q368 657 358 657Q349 657 340 652T300 624L277 669Q326 720 366 720Q380 720 421 702T471 683Q507 683 542 721L563 675Z" />
<glyph unicode="&#xe4;" glyph-name="adieresis" horiz-adv-x="683" d="M590 0H516L534 96Q473 34 423 11T303 -13Q193 -13 126 50T58 216Q58 355 161 457T404 560Q543 560 599 450L617 547H691L590 0ZM571 319Q571 394 522 443T397 492Q293 492 214 415T135 235Q135
155 185 105T318 55Q418 55 494 135T571 319ZM374 607H300L323 733H397L374 607ZM521 607H447L470 733H544L521 607Z" />
<glyph unicode="&#xe5;" glyph-name="aring" horiz-adv-x="683" d="M590 0H516L534 96Q473 34 423 11T303 -13Q193 -13 126 50T58 216Q58 355 161 457T404 560Q543 560 599 450L617 547H691L590 0ZM571 319Q571 394 522 443T397 492Q293 492 214 415T135 235Q135
155 185 105T318 55Q418 55 494 135T571 319ZM528 694Q528 650 490 615T406 579Q370 579 347 601T323 658Q323 708 358 744T443 781Q481 781 504 757T528 694ZM487 689Q487 709 472 723T435 737Q409 737 387 716T365 669Q365 649 378 636T414 623Q440 623 463 644T487
689Z" />
<glyph unicode="&#xe6;" glyph-name="ae" horiz-adv-x="1157" d="M1132 247H637Q636 237 636 225Q636 153 688 104T818 55Q880 55 939 89T1029 178H1106Q1070 99 982 43T804 -13Q676 -13 604 92L587 0H516L533 92Q431 -13 300 -13Q191 -13 125 51T58 219Q58 350
161 455T402 560Q546 560 600 452L618 547H689L671 452Q776 560 906 560Q1010 560 1076 497T1142 333Q1142 293 1132 247ZM1073 314Q1072 396 1024 444T896 492Q815 492 746 442T653 314H1073ZM574 319Q574 396 525 444T396 492Q289 492 212 413T135 231Q135 154
185 105T312 55Q416 55 495 134T574 319Z" />
<glyph unicode="&#xe7;" glyph-name="ccedilla" horiz-adv-x="647" d="M609 161Q541 68 471 29T315 -13L297 -48Q319 -43 331 -43Q368 -43 391 -63T414 -118Q414 -125 412 -137Q404 -185 367 -218T279 -251Q206 -251 199 -166L253 -160Q255 -178 263 -185T291
-193Q315 -193 332 -175T349 -129Q350 -110 339 -100T309 -89Q280 -89 258 -108L230 -89L275 -11Q177 -1 118 62T58 222Q58 355 164 457T408 560Q502 560 566 512T649 381H566Q546 434 502 463T396 492Q292 492 214 414T135 233Q135 155 186 105T318 55Q379 55
420 76T526 161H609Z" />
<glyph unicode="&#xe8;" glyph-name="egrave" horiz-adv-x="650" d="M626 249H131Q129 225 129 221Q129 151 181 103T308 55Q369 55 429 90T522 180H599Q551 92 469 40T295 -13Q193 -13 126 53T58 220Q58 355 160 457T398 560Q502 560 568 496T635 332Q635 300
626 249ZM565 316Q561 397 513 444T385 492Q307 492 240 443T146 316H565ZM491 650L446 594L274 708L320 766L491 650Z" />
<glyph unicode="&#xe9;" glyph-name="eacute" horiz-adv-x="650" d="M626 249H131Q129 225 129 221Q129 151 181 103T308 55Q369 55 429 90T522 180H599Q551 92 469 40T295 -13Q193 -13 126 53T58 220Q58 355 160 457T398 560Q502 560 568 496T635 332Q635 300
626 249ZM565 316Q561 397 513 444T385 492Q307 492 240 443T146 316H565ZM576 708L362 594L338 650L552 766L576 708Z" />
<glyph unicode="&#xea;" glyph-name="ecircumflex" horiz-adv-x="650" d="M626 249H131Q129 225 129 221Q129 151 181 103T308 55Q369 55 429 90T522 180H599Q551 92 469 40T295 -13Q193 -13 126 53T58 220Q58 355 160 457T398 560Q502 560 568 496T635 332Q635
300 626 249ZM565 316Q561 397 513 444T385 492Q307 492 240 443T146 316H565ZM583 607H494L422 681L320 607H229L397 733H463L583 607Z" />
<glyph unicode="&#xeb;" glyph-name="edieresis" horiz-adv-x="650" d="M626 249H131Q129 225 129 221Q129 151 181 103T308 55Q369 55 429 90T522 180H599Q551 92 469 40T295 -13Q193 -13 126 53T58 220Q58 355 160 457T398 560Q502 560 568 496T635 332Q635
300 626 249ZM565 316Q561 397 513 444T385 492Q307 492 240 443T146 316H565ZM368 607H294L317 733H391L368 607ZM515 607H441L464 733H538L515 607Z" />
<glyph unicode="&#xec;" glyph-name="igrave" horiz-adv-x="200" d="M107 0H33L134 547H208L107 0ZM262 650L217 594L45 708L91 766L262 650Z" />
<glyph unicode="&#xed;" glyph-name="iacute" horiz-adv-x="200" d="M107 0H33L134 547H208L107 0ZM356 708L142 594L118 650L332 766L356 708Z" />
<glyph unicode="&#xee;" glyph-name="icircumflex" horiz-adv-x="200" d="M107 0H33L134 547H208L107 0ZM359 607H270L198 681L96 607H5L173 733H239L359 607Z" />
<glyph unicode="&#xef;" glyph-name="idieresis" horiz-adv-x="200" d="M107 0H33L134 547H208L107 0ZM144 607H70L93 733H167L144 607ZM291 607H217L240 733H314L291 607Z" />
<glyph unicode="&#xf1;" glyph-name="ntilde" horiz-adv-x="610" d="M515 0H441L494 287Q502 332 502 361Q502 421 465 456T363 492Q287 492 234 445T163 301L107 0H33L134 547H208L195 476Q282 560 383 560Q473 560 526 511T579 379Q579 344 568 287L515 0ZM537
675Q497 620 445 620Q418 620 349 653Q342 657 332 657Q323 657 314 652T274 624L251 669Q300 720 340 720Q354 720 395 702T445 683Q481 683 516 721L537 675Z" />
<glyph unicode="&#xf2;" glyph-name="ograve" horiz-adv-x="655" d="M639 332Q639 192 537 90T303 -13Q194 -13 126 50T57 215Q57 356 162 458T405 560Q509 560 574 497T639 332ZM562 325Q562 398 514 445T392 492Q287 492 211 414T134 228Q134 151 183 103T313
55Q417 55 489 133T562 325ZM498 650L453 594L281 708L327 766L498 650Z" />
<glyph unicode="&#xf3;" glyph-name="oacute" horiz-adv-x="655" d="M639 332Q639 192 537 90T303 -13Q194 -13 126 50T57 215Q57 356 162 458T405 560Q509 560 574 497T639 332ZM562 325Q562 398 514 445T392 492Q287 492 211 414T134 228Q134 151 183 103T313
55Q417 55 489 133T562 325ZM583 708L369 594L345 650L559 766L583 708Z" />
<glyph unicode="&#xf4;" glyph-name="ocircumflex" horiz-adv-x="655" d="M639 332Q639 192 537 90T303 -13Q194 -13 126 50T57 215Q57 356 162 458T405 560Q509 560 574 497T639 332ZM562 325Q562 398 514 445T392 492Q287 492 211 414T134 228Q134 151 183 103T313
55Q417 55 489 133T562 325ZM590 607H501L429 681L327 607H236L404 733H470L590 607Z" />
<glyph unicode="&#xf5;" glyph-name="otilde" horiz-adv-x="655" d="M639 332Q639 192 537 90T303 -13Q194 -13 126 50T57 215Q57 356 162 458T405 560Q509 560 574 497T639 332ZM562 325Q562 398 514 445T392 492Q287 492 211 414T134 228Q134 151 183 103T313
55Q417 55 489 133T562 325ZM564 675Q524 620 472 620Q445 620 376 653Q369 657 359 657Q350 657 341 652T301 624L278 669Q327 720 367 720Q381 720 422 702T472 683Q508 683 543 721L564 675Z" />
<glyph unicode="&#xf6;" glyph-name="odieresis" horiz-adv-x="655" d="M639 332Q639 192 537 90T303 -13Q194 -13 126 50T57 215Q57 356 162 458T405 560Q509 560 574 497T639 332ZM562 325Q562 398 514 445T392 492Q287 492 211 414T134 228Q134 151 183 103T313
55Q417 55 489 133T562 325ZM375 607H301L324 733H398L375 607ZM522 607H448L471 733H545L522 607Z" />
<glyph unicode="&#xf7;" glyph-name="divide" horiz-adv-x="606" d="M566 213H86V287H566V213ZM389 461T389 435T371 391T326 372T282 390T263 435T281 479T326 498T370 480ZM389 91T389 65T371 21T326 2T282 20T263 65T281 109T326 128T370 110Z" />
<glyph unicode="&#xf8;" glyph-name="oslash" horiz-adv-x="653" d="M639 340Q639 196 539 92T299 -13Q217 -13 154 28L91 -38L46 2L108 68Q80 109 70 141T59 214Q59 307 110 388T239 514T400 560Q483 560 541 519L611 593L657 551L587 478Q639 423 639 340ZM491
468Q446 492 395 492Q295 492 216 410T136 225Q136 170 159 121L491 468ZM562 336Q562 381 537 426L203 79Q243 63 257 59T299 55Q411 55 486 135T562 336Z" />
<glyph unicode="&#xf9;" glyph-name="ugrave" horiz-adv-x="608" d="M616 547L514 0H440L456 85Q416 32 371 10T260 -13Q173 -13 121 32T69 155Q69 202 78 252L133 547H207L152 252Q146 226 146 185Q146 123 180 89T280 55Q357 55 412 105T489 266L542 547H616ZM470
650L425 594L253 708L299 766L470 650Z" />
<glyph unicode="&#xfa;" glyph-name="uacute" horiz-adv-x="608" d="M616 547L514 0H440L456 85Q416 32 371 10T260 -13Q173 -13 121 32T69 155Q69 202 78 252L133 547H207L152 252Q146 226 146 185Q146 123 180 89T280 55Q357 55 412 105T489 266L542 547H616ZM555
708L341 594L317 650L531 766L555 708Z" />
<glyph unicode="&#xfb;" glyph-name="ucircumflex" horiz-adv-x="608" d="M616 547L514 0H440L456 85Q416 32 371 10T260 -13Q173 -13 121 32T69 155Q69 202 78 252L133 547H207L152 252Q146 226 146 185Q146 123 180 89T280 55Q357 55 412 105T489 266L542 547H616ZM562
607H473L401 681L299 607H208L376 733H442L562 607Z" />
<glyph unicode="&#xfc;" glyph-name="udieresis" horiz-adv-x="608" d="M616 547L514 0H440L456 85Q416 32 371 10T260 -13Q173 -13 121 32T69 155Q69 202 78 252L133 547H207L152 252Q146 226 146 185Q146 123 180 89T280 55Q357 55 412 105T489 266L542 547H616ZM347
607H273L296 733H370L347 607ZM494 607H420L443 733H517L494 607Z" />
<glyph unicode="&#xff;" glyph-name="ydieresis" horiz-adv-x="536" d="M598 547L145 -192H67L194 18L80 547H161L253 111L519 547H598ZM313 607H239L262 733H336L313 607ZM460 607H386L409 733H483L460 607Z" />
<glyph unicode="&#x131;" glyph-name="dotlessi" horiz-adv-x="200" d="M107 0H33L134 547H208L107 0Z" />
<glyph unicode="&#x152;" glyph-name="OE" horiz-adv-x="1194" d="M1245 739L1232 672H913L864 407H1172L1160 340H852L801 67H1120L1108 0H714L742 151Q614 -13 412 -13Q260 -13 168 72T76 300Q76 482 215 617T542 752Q645 752 717 711T823 592L851 739H1245ZM791
436Q791 547 719 615T528 684Q378 684 266 572T153 313Q153 202 225 129T419 55Q514 55 600 106T738 245T791 436Z" />
<glyph unicode="&#x153;" glyph-name="oe" horiz-adv-x="1137" d="M1110 248H622Q620 222 620 216Q620 151 673 103T804 55Q935 55 1013 179H1088Q1052 101 969 44T792 -13Q712 -13 651 24T566 138Q524 88 505 70T460 35Q381 -13 302 -13Q195 -13 127 51T58 217Q58
311 108 391T237 515T398 560Q477 560 526 529T617 414Q651 470 727 515T889 560Q991 560 1057 498T1123 339Q1123 306 1110 248ZM1054 315V318V327Q1054 397 1004 444T878 492Q799 492 736 447T635 315H1054ZM560 320Q560 397 512 444T387 492Q286 492 211 414T135
230Q135 153 183 104T308 55Q408 55 484 135T560 320Z" />
<glyph unicode="&#x178;" glyph-name="Ydieresis" horiz-adv-x="592" d="M697 739L348 247L302 0H228L274 247L109 739H191L324 325L616 739H697ZM373 789H299L322 915H396L373 789ZM520 789H446L469 915H543L520 789Z" />
<glyph unicode="&#x192;" glyph-name="florin" horiz-adv-x="554" d="M655 815L632 749Q621 751 613 751H611Q566 752 535 722T468 607L458 584H570L546 517H434L274 86Q242 0 221 -36T164 -101Q97 -153 3 -153Q-18 -153 -51 -146L-26 -82L-6 -84Q-1 -85 18 -85Q89
-85 128 -49T206 92L365 517H252L277 584H388L397 607Q479 818 632 818Q642 818 655 815Z" />
<glyph unicode="&#x2c6;" glyph-name="circumflex" horiz-adv-x="502" d="M510 607H421L349 681L247 607H156L324 733H390L510 607Z" />
<glyph unicode="&#x2c7;" glyph-name="caron" horiz-adv-x="502" d="M534 733L366 607H300L180 733H269L341 659L443 733H534Z" />
<glyph unicode="&#x2d8;" glyph-name="breve" horiz-adv-x="453" d="M478 729Q443 612 306 612Q244 612 211 638T174 729H238Q242 693 260 680T319 667Q357 667 386 683T425 729H478Z" />
<glyph unicode="&#x2d9;" glyph-name="dotaccent" horiz-adv-x="222" d="M231 607H157L180 733H254L231 607Z" />
<glyph unicode="&#x2da;" glyph-name="ring" horiz-adv-x="332" d="M364 694Q364 650 326 615T242 579Q206 579 183 601T159 658Q159 708 194 744T279 781Q317 781 340 757T364 694ZM323 689Q323 709 308 723T271 737Q245 737 223 716T201 669Q201 649 214 636T250
623Q276 623 299 644T323 689Z" />
<glyph unicode="&#x2db;" glyph-name="ogonek" horiz-adv-x="302" d="M160 -246Q133 -250 100 -250Q54 -250 33 -219T12 -147Q12 -66 116 0H190Q144 -23 116 -56T88 -116Q88 -176 124 -176Q153 -176 174 -172L160 -246Z" />
<glyph unicode="&#x2dc;" glyph-name="tilde" horiz-adv-x="439" d="M453 675Q413 620 361 620Q334 620 265 653Q258 657 248 657Q239 657 230 652T190 624L167 669Q216 720 256 720Q270 720 311 702T361 683Q397 683 432 721L453 675Z" />
<glyph unicode="&#x2dd;" glyph-name="hungarumlaut" horiz-adv-x="552" d="M456 706L262 584L233 634L425 756L456 706ZM651 706L457 584L428 634L621 756L651 706Z" />
<glyph unicode="&#x3a9;" glyph-name="Omega" horiz-adv-x="797" d="M795 340Q779 258 731 184T619 74H698L684 -2H452L466 76Q557 101 626 173T714 340Q719 365 719 384Q719 479 649 545T478 612Q363 612 263 530T145 336Q142 316 142 296Q142 217 187 158T303
76L289 -2H54L68 74H150Q108 105 84 161T60 283Q60 313 64 336Q79 430 143 512T301 642T491 690Q620 690 710 606T801 399Q801 370 795 340Z" />
<glyph unicode="&#x3c0;" glyph-name="pi" horiz-adv-x="736" d="M731 473H597L509 0H435L523 473H375L287 0H213L301 473H288Q248 473 216 441T175 365H101Q115 440 173 493T301 547H744L731 473Z" />
<glyph unicode="&#x2013;" glyph-name="endash" horiz-adv-x="500" d="M532 296L520 233H19L31 296H532Z" />
<glyph unicode="&#x2014;" glyph-name="emdash" horiz-adv-x="1000" d="M1032 296L1020 233H19L31 296H1032Z" />
<glyph unicode="&#x2018;" glyph-name="quoteleft" horiz-adv-x="351" d="M331 547H257L205 739H279L331 547Z" />
<glyph unicode="&#x2019;" glyph-name="quoteright" horiz-adv-x="351" d="M360 739L236 547H162L286 739H360Z" />
<glyph unicode="&#x201a;" glyph-name="quotesinglbase" horiz-adv-x="354" d="M244 126L120 -67H47L171 126H244Z" />
<glyph unicode="&#x201c;" glyph-name="quotedblleft" horiz-adv-x="502" d="M329 547H255L203 739H277L329 547ZM477 547H403L351 739H425L477 547Z" />
<glyph unicode="&#x201d;" glyph-name="quotedblright" horiz-adv-x="484" d="M356 739L232 547H158L282 739H356ZM500 739L376 547H302L426 739H500Z" />
<glyph unicode="&#x201e;" glyph-name="quotedblbase" horiz-adv-x="502" d="M245 126L121 -66H47L171 126H245ZM391 126L267 -66H193L317 126H391Z" />
<glyph unicode="&#x2020;" glyph-name="dagger" horiz-adv-x="553" d="M552 470H368L256 -133H182L294 470H116L128 536H306L344 739H418L380 536H564L552 470Z" />
<glyph unicode="&#x2021;" glyph-name="daggerdbl" horiz-adv-x="553" d="M526 335H344L257 -133H183L270 335H91L103 401H282L299 493H120L133 563H312L345 739H419L386 563H568L555 493H373L356 401H538L526 335Z" />
<glyph unicode="&#x2022;" glyph-name="bullet" horiz-adv-x="606" d="M517 380T517 301T462 168T327 113Q251 113 196 169T141 303Q141 379 196 434T329 489Q408 489 462 435Z" />
<glyph unicode="&#x2026;" glyph-name="ellipsis" horiz-adv-x="1000" d="M174 0H100L123 126H197L174 0ZM507 0H433L456 126H530L507 0ZM840 0H766L789 126H863L840 0Z" />
<glyph unicode="&#x2030;" glyph-name="perthousand" horiz-adv-x="1174" d="M696 739L225 0H153L622 739H696ZM756 195Q756 114 692 51T546 -13Q482 -13 441 28T399 132Q399 212 463 275T611 338Q673 338 714 297T756 195ZM688 185Q688 220 663 245T600 270Q548
270 508 231T467 142Q467 105 492 80T555 55Q608 55 648 94T688 185ZM1154 195Q1154 114 1090 51T944 -13Q880 -13 839 28T797 132Q797 212 861 275T1009 338Q1071 338 1112 297T1154 195ZM1086 185Q1086 220 1061 245T998 270Q946 270 906 231T865 142Q865 105
890 80T953 55Q1006 55 1046 94T1086 185ZM444 606Q444 525 380 461T235 397Q171 397 129 438T87 542Q87 620 151 684T299 749Q361 749 402 708T444 606ZM376 595Q376 631 351 656T288 681Q235 681 195 643T155 552Q155 515 180 490T243 465Q296 465 336 504T376
595Z" />
<glyph unicode="&#x2039;" glyph-name="guilsinglleft" horiz-adv-x="251" d="M206 132L141 99L66 300L215 499L268 467L144 300L206 132Z" />
<glyph unicode="&#x203a;" glyph-name="guilsinglright" horiz-adv-x="251" d="M237 300L88 99L35 132L159 300L97 467L162 499L237 300Z" />
<glyph unicode="&#x2044;" glyph-name="fraction" horiz-adv-x="166" d="M388 739L-91 0H-145L334 739H388Z" />
<glyph unicode="&#x20ac;" glyph-name="Euro" horiz-adv-x="554" d="M608 628L565 561Q531 632 495 659T399 686Q310 686 254 637T145 459H496L461 400H128Q119 366 115 331H418L383 272H109V245Q109 152 151 102T274 52Q331 52 368 70T480 148L466 62Q380 -13
268 -13Q146 -13 90 55T34 272H-62L-27 331H41Q45 366 55 400H-39L-4 459H71Q101 540 126 584T188 663Q280 752 406 752Q476 752 521 727T608 628Z" />
<glyph unicode="&#x2122;" glyph-name="trademark" horiz-adv-x="1023" d="M489 687H381L312 318H252L321 687H214L223 739H498L489 687ZM1067 739L989 318H929L992 658L762 318H714L611 658L548 318H488L566 739H649L754 401L983 739H1067Z" />
<glyph unicode="&#x2202;" glyph-name="partialdiff" horiz-adv-x="494" d="M520 370Q502 270 453 183T327 41T165 -15Q87 -15 44 43T16 182Q33 275 107 342T270 410Q364 410 448 378Q460 438 456 495T436 598T384 670T297 698Q249 698 155 666L144 736Q198 754
307 754Q372 754 421 722T494 636T527 513T520 370ZM435 319Q354 355 259 355Q199 355 151 304T90 182Q80 125 103 83T175 41Q266 41 334 121T435 319Z" />
<glyph unicode="&#x2211;" glyph-name="summation" horiz-adv-x="713" d="M570 -123H37L51 -49L266 315L186 678L199 752H732L719 678H266L346 314L131 -49H584L570 -123Z" />
<glyph unicode="&#x221a;" glyph-name="radical" horiz-adv-x="549" d="M653 908L326 -35L176 461L73 414L63 449L222 520L344 126L617 913L653 908Z" />
<glyph unicode="&#x221e;" glyph-name="infinity" horiz-adv-x="768" d="M623 320Q633 374 606 407T525 440Q494 440 459 411T402 352L382 322Q383 317 385 309T397 281T416 246T444 217T481 204Q534 204 573 236T623 320ZM320 322Q319 327 317 335T305 363T286
398T258 427T221 440Q168 440 129 408T79 324Q69 270 96 237T177 204Q208 204 243 233T300 292L320 322ZM691 324Q676 238 619 184T480 130Q426 130 388 159T336 234Q305 187 260 159T161 130Q79 130 39 184T13 324Q29 410 90 465T234 520Q287 520 321 492T369
416Q399 462 449 491T553 520Q635 520 671 466T691 324Z" />
<glyph unicode="&#x2248;" glyph-name="approxequal" horiz-adv-x="606" d="M563 203Q528 152 484 122T401 91Q373 91 314 117L264 139Q217 159 195 159Q164 159 142 143T76 70L43 117Q91 182 129 209T209 237Q238 237 282 218L342 191Q392 168 417 169Q464 169
528 250L563 203ZM596 383Q561 332 517 302T434 271Q406 271 347 297L297 319Q250 339 228 339Q197 339 175 323T109 250L76 297Q124 362 162 389T242 417Q271 417 315 398L375 371Q425 348 450 349Q497 349 561 430L596 383Z" />
<glyph unicode="&#x2260;" glyph-name="notequal" horiz-adv-x="606" d="M566 121H302L207 -64L142 -30L218 121H86V195H256L313 305H86V379H350L445 564L510 530L434 379H566V305H396L339 195H566V121Z" />
<glyph unicode="&#x2264;" glyph-name="lessequal" horiz-adv-x="606" d="M503 67L125 384V440L503 757V661L207 412L503 163V67ZM503 -37H149V37H503V-37Z" />
<glyph unicode="&#x2265;" glyph-name="greaterequal" horiz-adv-x="606" d="M527 384L149 67V163L445 412L149 661V757L527 440V384ZM503 -37H149V37H503V-37Z" />
<glyph unicode="&#x25ca;" glyph-name="lozenge" horiz-adv-x="494" d="M505 374L239 0H179L58 377L321 740H384L505 374ZM442 374L342 683L121 376L221 58L442 374Z" />
<glyph unicode="&#xfb01;" glyph-name="f_i" horiz-adv-x="487" d="M405 672H390Q326 672 292 643T246 547H381L369 480H234L145 0H71L160 480H75L87 547H172Q192 646 253 692T400 739H417L405 672ZM394 0H320L421 547H495L394 0ZM507 607H433L456 733H530L507 607Z" />
<glyph unicode="&#xfb02;" glyph-name="f_l" horiz-adv-x="485" d="M405 672H390Q326 672 292 643T246 547H381L369 480H234L145 0H71L160 480H75L87 547H172Q192 646 253 692T400 739H417L405 672ZM529 739L392 0H318L455 739H529Z" />
</font>
</defs>
</svg>
